solid OpenSCAD_Model
  facet normal -1 0 0
    outer loop
      vertex 0 0.850651 2
      vertex 0 7.14935 2
      vertex 0 7.14935 0
    endloop
  endfacet
  facet normal -1 0 0
    outer loop
      vertex 0 0.850651 2
      vertex 0 7.14935 0
      vertex 0 0.850651 0
    endloop
  endfacet
  facet normal -1 0 0
    outer loop
      vertex 0 7.14935 2
      vertex 0 0.850651 2
      vertex 0 7 5
    endloop
  endfacet
  facet normal -1 0 0
    outer loop
      vertex 0 0 15
      vertex 0 7 5
      vertex 0 0.850651 2
    endloop
  endfacet
  facet normal -1 0 0
    outer loop
      vertex 0 0 15
      vertex 0 0.850651 2
      vertex 0 0 2
    endloop
  endfacet
  facet normal -1 0 0
    outer loop
      vertex 0 7 5
      vertex 0 0 15
      vertex 0 7 15
    endloop
  endfacet
  facet normal -1 0 0
    outer loop
      vertex 0 8.85065 2
      vertex 0 10 0
      vertex 0 8.85065 0
    endloop
  endfacet
  facet normal -1 0 0
    outer loop
      vertex 0 10 0
      vertex 0 8.85065 2
      vertex 0 10 5
    endloop
  endfacet
  facet normal -1 0 0
    outer loop
      vertex 0 7 5
      vertex 0 8.85065 2
      vertex 0 7.14935 2
    endloop
  endfacet
  facet normal -1 0 0
    outer loop
      vertex 0 8.85065 2
      vertex 0 7 5
      vertex 0 10 5
    endloop
  endfacet
  facet normal 0 0 1
    outer loop
      vertex 30 10 5
      vertex 27 7 5
      vertex 30 7 5
    endloop
  endfacet
  facet normal 0 0 1
    outer loop
      vertex 27 7 5
      vertex 3 7 5
      vertex 27 3 5
    endloop
  endfacet
  facet normal 0 0 1
    outer loop
      vertex 30 10 5
      vertex 3 7 5
      vertex 27 7 5
    endloop
  endfacet
  facet normal -0 0 1
    outer loop
      vertex 0 10 5
      vertex 3 7 5
      vertex 30 10 5
    endloop
  endfacet
  facet normal 0 0 1
    outer loop
      vertex 3 7 5
      vertex 0 10 5
      vertex 0 7 5
    endloop
  endfacet
  facet normal 0 0 1
    outer loop
      vertex 27 3 5
      vertex 3 7 5
      vertex 3 3 5
    endloop
  endfacet
  facet normal 1 0 0
    outer loop
      vertex 30 7 15
      vertex 30 0 15
      vertex 30 7 5
    endloop
  endfacet
  facet normal 1 -0 0
    outer loop
      vertex 30 7 5
      vertex 30 10 0
      vertex 30 10 5
    endloop
  endfacet
  facet normal 1 0 0
    outer loop
      vertex 30 0 0
      vertex 30 7 5
      vertex 30 0 15
    endloop
  endfacet
  facet normal 1 0 0
    outer loop
      vertex 30 7 5
      vertex 30 0 0
      vertex 30 10 0
    endloop
  endfacet
  facet normal 0 1 -0
    outer loop
      vertex 30 10 0
      vertex 0 10 5
      vertex 30 10 5
    endloop
  endfacet
  facet normal 0 1 0
    outer loop
      vertex 0 10 5
      vertex 30 10 0
      vertex 0 10 0
    endloop
  endfacet
  facet normal 0 0 -1
    outer loop
      vertex -0.809016 7.41221 0
      vertex 0 8.85065 0
      vertex 0 7.14935 0
    endloop
  endfacet
  facet normal 0 0 -1
    outer loop
      vertex 0 8.85065 0
      vertex -0.809016 7.41221 0
      vertex -0.809016 8.58778 0
    endloop
  endfacet
  facet normal 0 0 -1
    outer loop
      vertex -0.809016 -0.587785 0
      vertex 0 0.850651 0
      vertex 0.309016 -0.951056 0
    endloop
  endfacet
  facet normal 0 0 -1
    outer loop
      vertex 0 0.850651 0
      vertex -0.809016 -0.587785 0
      vertex -0.809016 0.587785 0
    endloop
  endfacet
  facet normal 0 0 -1
    outer loop
      vertex 27 0 0
      vertex 30 10 0
      vertex 30 0 0
    endloop
  endfacet
  facet normal 0 0 -1
    outer loop
      vertex 25.191 0 0
      vertex 27 0 0
      vertex 26.309 -0.951056 0
    endloop
  endfacet
  facet normal 0 0 -1
    outer loop
      vertex 25.191 0 0
      vertex 26.309 -0.951056 0
      vertex 25.191 -0.587785 0
    endloop
  endfacet
  facet normal 0 0 -1
    outer loop
      vertex 27 0 0
      vertex 25.191 0 0
      vertex 30 10 0
    endloop
  endfacet
  facet normal 0 0 -1
    outer loop
      vertex 0 7.14935 0
      vertex 25.191 0 0
      vertex 1 0 0
    endloop
  endfacet
  facet normal 0 0 -1
    outer loop
      vertex 0 0.850651 0
      vertex 1 0 0
      vertex 0.309016 -0.951056 0
    endloop
  endfacet
  facet normal 0 0 -1
    outer loop
      vertex 0 7.14935 0
      vertex 1 0 0
      vertex 0 0.850651 0
    endloop
  endfacet
  facet normal 0 0 -1
    outer loop
      vertex 0 8.85065 0
      vertex 25.191 0 0
      vertex 0 7.14935 0
    endloop
  endfacet
  facet normal 0 0 -1
    outer loop
      vertex 0 10 0
      vertex 25.191 0 0
      vertex 0 8.85065 0
    endloop
  endfacet
  facet normal 0 0 -1
    outer loop
      vertex 25.191 0 0
      vertex 0 10 0
      vertex 30 10 0
    endloop
  endfacet
  facet normal 0 -1 0
    outer loop
      vertex 1 0 0
      vertex 25.191 0 2
      vertex 1 0 2
    endloop
  endfacet
  facet normal 0 -1 -0
    outer loop
      vertex 25.191 0 2
      vertex 1 0 0
      vertex 25.191 0 0
    endloop
  endfacet
  facet normal 0 -1 0
    outer loop
      vertex 1 0 2
      vertex 0 0 15
      vertex 0 0 2
    endloop
  endfacet
  facet normal 0 -1 0
    outer loop
      vertex 25.191 0 2
      vertex 0 0 15
      vertex 1 0 2
    endloop
  endfacet
  facet normal 0 -1 0
    outer loop
      vertex 0 0 15
      vertex 25.191 0 2
      vertex 30 0 15
    endloop
  endfacet
  facet normal 0 -1 0
    outer loop
      vertex 27 0 2
      vertex 30 0 15
      vertex 25.191 0 2
    endloop
  endfacet
  facet normal 0 -1 0
    outer loop
      vertex 30 0 0
      vertex 27 0 2
      vertex 27 0 0
    endloop
  endfacet
  facet normal 0 -1 0
    outer loop
      vertex 27 0 2
      vertex 30 0 0
      vertex 30 0 15
    endloop
  endfacet
  facet normal 1 0 0
    outer loop
      vertex 1 9 3
      vertex 1 8 1
      vertex 1 9 1
    endloop
  endfacet
  facet normal 1 -0 0
    outer loop
      vertex 1 1 3
      vertex 1 8 1
      vertex 1 9 3
    endloop
  endfacet
  facet normal 1 0 0
    outer loop
      vertex 1 8 1
      vertex 1 1 3
      vertex 1 1 1
    endloop
  endfacet
  facet normal -1 0 0
    outer loop
      vertex 29 1 1
      vertex 29 9 3
      vertex 29 9 1
    endloop
  endfacet
  facet normal -1 -0 0
    outer loop
      vertex 29 9 3
      vertex 29 1 1
      vertex 29 1 3
    endloop
  endfacet
  facet normal 0 -1 0
    outer loop
      vertex 1 9 1
      vertex 29 9 3
      vertex 1 9 3
    endloop
  endfacet
  facet normal 0 -1 -0
    outer loop
      vertex 29 9 3
      vertex 1 9 1
      vertex 29 9 1
    endloop
  endfacet
  facet normal 0 0 1
    outer loop
      vertex 26.309 7.04894 1
      vertex 29 9 1
      vertex 27 8 1
    endloop
  endfacet
  facet normal 0 0 1
    outer loop
      vertex 29 9 1
      vertex 26.309 8.95106 1
      vertex 27 8 1
    endloop
  endfacet
  facet normal 0 0 1
    outer loop
      vertex 1 8 1
      vertex 25.191 8.58778 1
      vertex 1 9 1
    endloop
  endfacet
  facet normal 0 0 1
    outer loop
      vertex 26.309 8.95106 1
      vertex 1 9 1
      vertex 25.191 8.58778 1
    endloop
  endfacet
  facet normal -0 0 1
    outer loop
      vertex 1 9 1
      vertex 26.309 8.95106 1
      vertex 29 9 1
    endloop
  endfacet
  facet normal 0 0 1
    outer loop
      vertex 29 9 1
      vertex 26.309 7.04894 1
      vertex 29 1 1
    endloop
  endfacet
  facet normal 0 0 1
    outer loop
      vertex 25.191 7.41221 1
      vertex 29 1 1
      vertex 26.309 7.04894 1
    endloop
  endfacet
  facet normal 0 0 1
    outer loop
      vertex 25.191 8.58778 1
      vertex 1 8 1
      vertex 25.191 7.41221 1
    endloop
  endfacet
  facet normal 0 0 1
    outer loop
      vertex 1 1 1
      vertex 25.191 7.41221 1
      vertex 1 8 1
    endloop
  endfacet
  facet normal 0 0 1
    outer loop
      vertex 25.191 7.41221 1
      vertex 1 1 1
      vertex 29 1 1
    endloop
  endfacet
  facet normal 0 1 -0
    outer loop
      vertex 29 1 1
      vertex 1 1 3
      vertex 29 1 3
    endloop
  endfacet
  facet normal 0 1 0
    outer loop
      vertex 1 1 3
      vertex 29 1 1
      vertex 1 1 1
    endloop
  endfacet
  facet normal -1 0 0
    outer loop
      vertex -0.809016 -0.587785 0
      vertex -0.809016 0.587785 2
      vertex -0.809016 0.587785 0
    endloop
  endfacet
  facet normal -1 -0 0
    outer loop
      vertex -0.809016 0.587785 2
      vertex -0.809016 -0.587785 0
      vertex -0.809016 -0.587785 2
    endloop
  endfacet
  facet normal -0.309018 0.951056 0
    outer loop
      vertex 0 0.850651 0
      vertex -0.809016 0.587785 2
      vertex 0 0.850651 2
    endloop
  endfacet
  facet normal -0.309018 0.951056 0
    outer loop
      vertex -0.809016 0.587785 2
      vertex 0 0.850651 0
      vertex -0.809016 0.587785 0
    endloop
  endfacet
  facet normal 0 0 1
    outer loop
      vertex 0 0.850651 2
      vertex -0.809016 0.587785 2
      vertex 0 0 2
    endloop
  endfacet
  facet normal -0 0 1
    outer loop
      vertex 0 0 2
      vertex 0.309016 -0.951056 2
      vertex 1 0 2
    endloop
  endfacet
  facet normal 0 0 1
    outer loop
      vertex -0.809016 -0.587785 2
      vertex 0 0 2
      vertex -0.809016 0.587785 2
    endloop
  endfacet
  facet normal 0 0 1
    outer loop
      vertex 0 0 2
      vertex -0.809016 -0.587785 2
      vertex 0.309016 -0.951056 2
    endloop
  endfacet
  facet normal 0.809016 -0.587786 0
    outer loop
      vertex 0.309016 -0.951056 2
      vertex 1 0 0
      vertex 1 0 2
    endloop
  endfacet
  facet normal 0.809016 -0.587786 0
    outer loop
      vertex 1 0 0
      vertex 0.309016 -0.951056 2
      vertex 0.309016 -0.951056 0
    endloop
  endfacet
  facet normal -0.309017 -0.951056 0
    outer loop
      vertex -0.809016 -0.587785 0
      vertex 0.309016 -0.951056 2
      vertex -0.809016 -0.587785 2
    endloop
  endfacet
  facet normal -0.309017 -0.951056 -0
    outer loop
      vertex 0.309016 -0.951056 2
      vertex -0.809016 -0.587785 0
      vertex 0.309016 -0.951056 0
    endloop
  endfacet
  facet normal -1 0 0
    outer loop
      vertex -0.809016 7.41221 0
      vertex -0.809016 8.58778 2
      vertex -0.809016 8.58778 0
    endloop
  endfacet
  facet normal -1 -0 0
    outer loop
      vertex -0.809016 8.58778 2
      vertex -0.809016 7.41221 0
      vertex -0.809016 7.41221 2
    endloop
  endfacet
  facet normal -0.309022 0.951055 0
    outer loop
      vertex 0 8.85065 0
      vertex -0.809016 8.58778 2
      vertex 0 8.85065 2
    endloop
  endfacet
  facet normal -0.309022 0.951055 0
    outer loop
      vertex -0.809016 8.58778 2
      vertex 0 8.85065 0
      vertex -0.809016 8.58778 0
    endloop
  endfacet
  facet normal -0 0 1
    outer loop
      vertex -0.809016 8.58778 2
      vertex 0 7.14935 2
      vertex 0 8.85065 2
    endloop
  endfacet
  facet normal 0 0 1
    outer loop
      vertex 0 7.14935 2
      vertex -0.809016 8.58778 2
      vertex -0.809016 7.41221 2
    endloop
  endfacet
  facet normal -0.309011 -0.951058 0
    outer loop
      vertex -0.809016 7.41221 0
      vertex 0 7.14935 2
      vertex -0.809016 7.41221 2
    endloop
  endfacet
  facet normal -0.309011 -0.951058 -0
    outer loop
      vertex 0 7.14935 2
      vertex -0.809016 7.41221 0
      vertex 0 7.14935 0
    endloop
  endfacet
  facet normal -1 0 0
    outer loop
      vertex 25.191 -0.587785 0
      vertex 25.191 0 2
      vertex 25.191 0 0
    endloop
  endfacet
  facet normal -1 -0 0
    outer loop
      vertex 25.191 0 2
      vertex 25.191 -0.587785 0
      vertex 25.191 -0.587785 2
    endloop
  endfacet
  facet normal -0 0 1
    outer loop
      vertex 25.191 0 2
      vertex 26.309 -0.951056 2
      vertex 27 0 2
    endloop
  endfacet
  facet normal 0 0 1
    outer loop
      vertex 26.309 -0.951056 2
      vertex 25.191 0 2
      vertex 25.191 -0.587785 2
    endloop
  endfacet
  facet normal 0.80901 -0.587795 0
    outer loop
      vertex 26.309 -0.951056 2
      vertex 27 0 0
      vertex 27 0 2
    endloop
  endfacet
  facet normal 0.80901 -0.587795 0
    outer loop
      vertex 27 0 0
      vertex 26.309 -0.951056 2
      vertex 26.309 -0.951056 0
    endloop
  endfacet
  facet normal -0.309025 -0.951054 0
    outer loop
      vertex 25.191 -0.587785 0
      vertex 26.309 -0.951056 2
      vertex 25.191 -0.587785 2
    endloop
  endfacet
  facet normal -0.309025 -0.951054 -0
    outer loop
      vertex 26.309 -0.951056 2
      vertex 25.191 -0.587785 0
      vertex 26.309 -0.951056 0
    endloop
  endfacet
  facet normal 0.809011 0.587793 0
    outer loop
      vertex 27 8 2
      vertex 26.309 8.95106 1
      vertex 26.309 8.95106 2
    endloop
  endfacet
  facet normal 0.809011 0.587793 0
    outer loop
      vertex 26.309 8.95106 1
      vertex 27 8 2
      vertex 27 8 1
    endloop
  endfacet
  facet normal -1 0 0
    outer loop
      vertex 25.191 7.41221 1
      vertex 25.191 8.58778 2
      vertex 25.191 8.58778 1
    endloop
  endfacet
  facet normal -1 -0 0
    outer loop
      vertex 25.191 8.58778 2
      vertex 25.191 7.41221 1
      vertex 25.191 7.41221 2
    endloop
  endfacet
  facet normal -0.309032 0.951052 0
    outer loop
      vertex 26.309 8.95106 1
      vertex 25.191 8.58778 2
      vertex 26.309 8.95106 2
    endloop
  endfacet
  facet normal -0.309032 0.951052 0
    outer loop
      vertex 25.191 8.58778 2
      vertex 26.309 8.95106 1
      vertex 25.191 8.58778 1
    endloop
  endfacet
  facet normal 0 0 1
    outer loop
      vertex 26.309 8.95106 2
      vertex 26.309 7.04894 2
      vertex 27 8 2
    endloop
  endfacet
  facet normal -0 0 1
    outer loop
      vertex 25.191 8.58778 2
      vertex 26.309 7.04894 2
      vertex 26.309 8.95106 2
    endloop
  endfacet
  facet normal 0 0 1
    outer loop
      vertex 26.309 7.04894 2
      vertex 25.191 8.58778 2
      vertex 25.191 7.41221 2
    endloop
  endfacet
  facet normal 0.809011 -0.587793 0
    outer loop
      vertex 26.309 7.04894 2
      vertex 27 8 1
      vertex 27 8 2
    endloop
  endfacet
  facet normal 0.809011 -0.587793 0
    outer loop
      vertex 27 8 1
      vertex 26.309 7.04894 2
      vertex 26.309 7.04894 1
    endloop
  endfacet
  facet normal -0.309025 -0.951054 0
    outer loop
      vertex 25.191 7.41221 1
      vertex 26.309 7.04894 2
      vertex 25.191 7.41221 2
    endloop
  endfacet
  facet normal -0.309025 -0.951054 -0
    outer loop
      vertex 26.309 7.04894 2
      vertex 25.191 7.41221 1
      vertex 26.309 7.04894 1
    endloop
  endfacet
  facet normal 0 0 1
    outer loop
      vertex 3 7 15
      vertex 0 7 15
      vertex 3 3 15
    endloop
  endfacet
  facet normal 0 0 1
    outer loop
      vertex 27 3 15
      vertex 30 7 15
      vertex 27 7 15
    endloop
  endfacet
  facet normal 0 0 1
    outer loop
      vertex 30 7 15
      vertex 27 3 15
      vertex 30 0 15
    endloop
  endfacet
  facet normal -0 0 1
    outer loop
      vertex 3 3 15
      vertex 30 0 15
      vertex 27 3 15
    endloop
  endfacet
  facet normal 0 0 1
    outer loop
      vertex 3 3 15
      vertex 0 0 15
      vertex 30 0 15
    endloop
  endfacet
  facet normal 0 0 1
    outer loop
      vertex 0 0 15
      vertex 3 3 15
      vertex 0 7 15
    endloop
  endfacet
  facet normal 1 -0 0
    outer loop
      vertex 3 3 15
      vertex 3 7 5
      vertex 3 7 15
    endloop
  endfacet
  facet normal 1 0 0
    outer loop
      vertex 3 7 5
      vertex 3 3 15
      vertex 3 3 5
    endloop
  endfacet
  facet normal 0 1 -0
    outer loop
      vertex 3 7 5
      vertex 0 7 15
      vertex 3 7 15
    endloop
  endfacet
  facet normal 0 1 0
    outer loop
      vertex 0 7 15
      vertex 3 7 5
      vertex 0 7 5
    endloop
  endfacet
  facet normal 0 1 -0
    outer loop
      vertex 27 3 5
      vertex 3 3 15
      vertex 27 3 15
    endloop
  endfacet
  facet normal 0 1 0
    outer loop
      vertex 3 3 15
      vertex 27 3 5
      vertex 3 3 5
    endloop
  endfacet
  facet normal -1 0 0
    outer loop
      vertex 27 3 5
      vertex 27 7 15
      vertex 27 7 5
    endloop
  endfacet
  facet normal -1 -0 0
    outer loop
      vertex 27 7 15
      vertex 27 3 5
      vertex 27 3 15
    endloop
  endfacet
  facet normal 0 1 -0
    outer loop
      vertex 30 7 5
      vertex 27 7 15
      vertex 30 7 15
    endloop
  endfacet
  facet normal 0 1 0
    outer loop
      vertex 27 7 15
      vertex 30 7 5
      vertex 27 7 5
    endloop
  endfacet
  facet normal 0 0 -1
    outer loop
      vertex 1 1 3
      vertex 29 9 3
      vertex 29 1 3
    endloop
  endfacet
  facet normal -0 0 -1
    outer loop
      vertex 29 9 3
      vertex 1 1 3
      vertex 1 9 3
    endloop
  endfacet
endsolid OpenSCAD_Model
