solid OpenSCAD_Model
  facet normal -1 0 0
    outer loop
      vertex 0 0 0
      vertex 0 10 20
      vertex 0 10 0
    endloop
  endfacet
  facet normal -1 -0 0
    outer loop
      vertex 0 10 20
      vertex 0 0 0
      vertex 0 0 20
    endloop
  endfacet
  facet normal -0 0 1
    outer loop
      vertex 5 10 5
      vertex 25 9.5 5
      vertex 25 10 5
    endloop
  endfacet
  facet normal 0 0 1
    outer loop
      vertex 25 9.5 5
      vertex 5 10 5
      vertex 5 9.5 5
    endloop
  endfacet
  facet normal 1 -0 0
    outer loop
      vertex 30 0 20
      vertex 30 10 0
      vertex 30 10 20
    endloop
  endfacet
  facet normal 1 0 0
    outer loop
      vertex 30 10 0
      vertex 30 0 20
      vertex 30 0 0
    endloop
  endfacet
  facet normal 0 1 0
    outer loop
      vertex 30 10 20
      vertex 25 10 5
      vertex 25 10 20
    endloop
  endfacet
  facet normal 0 1 0
    outer loop
      vertex 25 10 5
      vertex 30 10 0
      vertex 5 10 5
    endloop
  endfacet
  facet normal 0 1 -0
    outer loop
      vertex 30 10 0
      vertex 25 10 5
      vertex 30 10 20
    endloop
  endfacet
  facet normal 0 1 -0
    outer loop
      vertex 5 10 5
      vertex 0 10 20
      vertex 5 10 20
    endloop
  endfacet
  facet normal 0 1 0
    outer loop
      vertex 5 10 5
      vertex 0 10 0
      vertex 0 10 20
    endloop
  endfacet
  facet normal 0 1 0
    outer loop
      vertex 0 10 0
      vertex 5 10 5
      vertex 30 10 0
    endloop
  endfacet
  facet normal 0 0 -1
    outer loop
      vertex 0 0 0
      vertex 30 10 0
      vertex 30 0 0
    endloop
  endfacet
  facet normal -0 0 -1
    outer loop
      vertex 30 10 0
      vertex 0 0 0
      vertex 0 10 0
    endloop
  endfacet
  facet normal 0 -1 0
    outer loop
      vertex 0 0 0
      vertex 30 0 20
      vertex 0 0 20
    endloop
  endfacet
  facet normal 0 -1 -0
    outer loop
      vertex 30 0 20
      vertex 0 0 0
      vertex 30 0 0
    endloop
  endfacet
  facet normal 0 0 1
    outer loop
      vertex 5 10 20
      vertex 0 10 20
      vertex 5 5 20
    endloop
  endfacet
  facet normal 0 0 1
    outer loop
      vertex 25 5 20
      vertex 30 10 20
      vertex 25 10 20
    endloop
  endfacet
  facet normal 0 0 1
    outer loop
      vertex 30 10 20
      vertex 25 5 20
      vertex 30 0 20
    endloop
  endfacet
  facet normal -0 0 1
    outer loop
      vertex 5 5 20
      vertex 30 0 20
      vertex 25 5 20
    endloop
  endfacet
  facet normal 0 0 1
    outer loop
      vertex 5 5 20
      vertex 0 0 20
      vertex 30 0 20
    endloop
  endfacet
  facet normal 0 0 1
    outer loop
      vertex 0 0 20
      vertex 5 5 20
      vertex 0 10 20
    endloop
  endfacet
  facet normal 0 1 -0
    outer loop
      vertex 25 5 11
      vertex 5 5 20
      vertex 25 5 20
    endloop
  endfacet
  facet normal 0 1 0
    outer loop
      vertex 5 5 20
      vertex 25 5 11
      vertex 5 5 11
    endloop
  endfacet
  facet normal 1 0 0
    outer loop
      vertex 5 10 20
      vertex 5 9.5 11
      vertex 5 10 5
    endloop
  endfacet
  facet normal 1 -0 0
    outer loop
      vertex 5 5 20
      vertex 5 9.5 11
      vertex 5 10 20
    endloop
  endfacet
  facet normal 1 0 0
    outer loop
      vertex 5 9.5 11
      vertex 5 5 20
      vertex 5 5 11
    endloop
  endfacet
  facet normal 1 0 0
    outer loop
      vertex 5 10 5
      vertex 5 9.5 11
      vertex 5 9.5 5
    endloop
  endfacet
  facet normal -1 0 0
    outer loop
      vertex 25 9.5 11
      vertex 25 10 5
      vertex 25 9.5 5
    endloop
  endfacet
  facet normal -1 0 0
    outer loop
      vertex 25 10 5
      vertex 25 9.5 11
      vertex 25 10 20
    endloop
  endfacet
  facet normal -1 0 0
    outer loop
      vertex 25 5 20
      vertex 25 9.5 11
      vertex 25 5 11
    endloop
  endfacet
  facet normal -1 0 0
    outer loop
      vertex 25 9.5 11
      vertex 25 5 20
      vertex 25 10 20
    endloop
  endfacet
  facet normal -0 0 1
    outer loop
      vertex 5 9.5 11
      vertex 25 5 11
      vertex 25 9.5 11
    endloop
  endfacet
  facet normal 0 0 1
    outer loop
      vertex 25 5 11
      vertex 5 9.5 11
      vertex 5 5 11
    endloop
  endfacet
  facet normal 0 1 -0
    outer loop
      vertex 25 9.5 5
      vertex 5 9.5 11
      vertex 25 9.5 11
    endloop
  endfacet
  facet normal 0 1 0
    outer loop
      vertex 5 9.5 11
      vertex 25 9.5 5
      vertex 5 9.5 5
    endloop
  endfacet
endsolid OpenSCAD_Model
