solid OpenSCAD_Model
  facet normal -1 0 0
    outer loop
      vertex 0 10 0
      vertex 0 9 2
      vertex 0 10 8
    endloop
  endfacet
  facet normal -1 0 0
    outer loop
      vertex 0 10 0
      vertex 0 1 2
      vertex 0 9 2
    endloop
  endfacet
  facet normal -1 0 0
    outer loop
      vertex 0 0 0
      vertex 0 1 2
      vertex 0 10 0
    endloop
  endfacet
  facet normal -1 0 0
    outer loop
      vertex 0 0 5
      vertex 0 1 2
      vertex 0 0 0
    endloop
  endfacet
  facet normal -1 0 0
    outer loop
      vertex 0 1 2
      vertex 0 0 5
      vertex 0 1 5
    endloop
  endfacet
  facet normal -1 -0 0
    outer loop
      vertex 0 10 8
      vertex 0 9 2
      vertex 0 9 8
    endloop
  endfacet
  facet normal -0 0 1
    outer loop
      vertex 14 1 2
      vertex 16 0 2
      vertex 16 1 2
    endloop
  endfacet
  facet normal 0 0 1
    outer loop
      vertex 16 0 2
      vertex 14 1 2
      vertex 14 0 2
    endloop
  endfacet
  facet normal 0 0 -1
    outer loop
      vertex 13 1 2
      vertex 14 9 2
      vertex 14 1 2
    endloop
  endfacet
  facet normal -0 0 -1
    outer loop
      vertex 14 9 2
      vertex 13 1 2
      vertex 13 9 2
    endloop
  endfacet
  facet normal 0 0 -1
    outer loop
      vertex 16 1 2
      vertex 17 9 2
      vertex 17 1 2
    endloop
  endfacet
  facet normal -0 0 -1
    outer loop
      vertex 17 9 2
      vertex 16 1 2
      vertex 16 9 2
    endloop
  endfacet
  facet normal 0 0 -1
    outer loop
      vertex -0.5 1 2
      vertex 0 9 2
      vertex 0 1 2
    endloop
  endfacet
  facet normal -0 0 -1
    outer loop
      vertex 0 9 2
      vertex -0.5 1 2
      vertex -0.5 9 2
    endloop
  endfacet
  facet normal 0 0 -1
    outer loop
      vertex 30 1 2
      vertex 30.5 9 2
      vertex 30.5 1 2
    endloop
  endfacet
  facet normal -0 0 -1
    outer loop
      vertex 30.5 9 2
      vertex 30 1 2
      vertex 30 9 2
    endloop
  endfacet
  facet normal 1 0 0
    outer loop
      vertex 30 1 5
      vertex 30 0 5
      vertex 30 1 2
    endloop
  endfacet
  facet normal 1 0 0
    outer loop
      vertex 30 9 2
      vertex 30 10 8
      vertex 30 9 8
    endloop
  endfacet
  facet normal 1 0 0
    outer loop
      vertex 30 10 8
      vertex 30 9 2
      vertex 30 10 0
    endloop
  endfacet
  facet normal 1 -0 0
    outer loop
      vertex 30 1 2
      vertex 30 10 0
      vertex 30 9 2
    endloop
  endfacet
  facet normal 1 0 0
    outer loop
      vertex 30 1 2
      vertex 30 0 0
      vertex 30 10 0
    endloop
  endfacet
  facet normal 1 0 0
    outer loop
      vertex 30 0 0
      vertex 30 1 2
      vertex 30 0 5
    endloop
  endfacet
  facet normal 0 0 -1
    outer loop
      vertex 30 0 0
      vertex 29 1 0
      vertex 30 10 0
    endloop
  endfacet
  facet normal 0 0 -1
    outer loop
      vertex 30 0 0
      vertex 1 1 0
      vertex 29 1 0
    endloop
  endfacet
  facet normal -0 0 -1
    outer loop
      vertex 1 1 0
      vertex 0 0 0
      vertex 1 9 0
    endloop
  endfacet
  facet normal 0 0 -1
    outer loop
      vertex 0 0 0
      vertex 1 1 0
      vertex 30 0 0
    endloop
  endfacet
  facet normal 0 0 -1
    outer loop
      vertex 29 9 0
      vertex 30 10 0
      vertex 29 1 0
    endloop
  endfacet
  facet normal 0 0 -1
    outer loop
      vertex 1 9 0
      vertex 30 10 0
      vertex 29 9 0
    endloop
  endfacet
  facet normal 0 0 -1
    outer loop
      vertex 1 9 0
      vertex 0 10 0
      vertex 30 10 0
    endloop
  endfacet
  facet normal 0 0 -1
    outer loop
      vertex 0 10 0
      vertex 1 9 0
      vertex 0 0 0
    endloop
  endfacet
  facet normal 0 -1 0
    outer loop
      vertex 0 0 5
      vertex 14 0 2
      vertex 14 0 5
    endloop
  endfacet
  facet normal 0 -1 -0
    outer loop
      vertex 14 0 2
      vertex 0 0 0
      vertex 16 0 2
    endloop
  endfacet
  facet normal 0 -1 0
    outer loop
      vertex 0 0 0
      vertex 14 0 2
      vertex 0 0 5
    endloop
  endfacet
  facet normal 0 -1 0
    outer loop
      vertex 16 0 2
      vertex 30 0 5
      vertex 16 0 5
    endloop
  endfacet
  facet normal 0 -1 0
    outer loop
      vertex 16 0 2
      vertex 30 0 0
      vertex 30 0 5
    endloop
  endfacet
  facet normal 0 -1 0
    outer loop
      vertex 30 0 0
      vertex 16 0 2
      vertex 0 0 0
    endloop
  endfacet
  facet normal 0 1 -0
    outer loop
      vertex 30 10 0
      vertex 0 10 8
      vertex 30 10 8
    endloop
  endfacet
  facet normal 0 1 0
    outer loop
      vertex 0 10 8
      vertex 30 10 0
      vertex 0 10 0
    endloop
  endfacet
  facet normal 1 -0 0
    outer loop
      vertex 1 1 5
      vertex 1 9 2
      vertex 1 9 5
    endloop
  endfacet
  facet normal 1 0 0
    outer loop
      vertex 1 1 0
      vertex 1 9 2
      vertex 1 1 5
    endloop
  endfacet
  facet normal 1 0 0
    outer loop
      vertex 1 9 2
      vertex 1 1 0
      vertex 1 9 0
    endloop
  endfacet
  facet normal -1 0 0
    outer loop
      vertex 29 1 0
      vertex 29 9 2
      vertex 29 9 0
    endloop
  endfacet
  facet normal -1 0 0
    outer loop
      vertex 29 1 5
      vertex 29 9 2
      vertex 29 1 0
    endloop
  endfacet
  facet normal -1 0 0
    outer loop
      vertex 29 9 2
      vertex 29 1 5
      vertex 29 9 5
    endloop
  endfacet
  facet normal 0 -1 0
    outer loop
      vertex 1 9 0
      vertex 13 9 2
      vertex 1 9 2
    endloop
  endfacet
  facet normal 0 -1 -0
    outer loop
      vertex 13 9 2
      vertex 1 9 0
      vertex 14 9 2
    endloop
  endfacet
  facet normal 0 -1 -0
    outer loop
      vertex 14 9 2
      vertex 1 9 0
      vertex 16 9 2
    endloop
  endfacet
  facet normal 0 -1 0
    outer loop
      vertex 29 9 0
      vertex 16 9 2
      vertex 1 9 0
    endloop
  endfacet
  facet normal 0 -1 0
    outer loop
      vertex 16 9 2
      vertex 29 9 0
      vertex 17 9 2
    endloop
  endfacet
  facet normal 0 -1 0
    outer loop
      vertex 17 9 2
      vertex 29 9 0
      vertex 29 9 2
    endloop
  endfacet
  facet normal 0 1 0
    outer loop
      vertex 29 1 5
      vertex 17 1 2
      vertex 17 1 5
    endloop
  endfacet
  facet normal 0 1 0
    outer loop
      vertex 29 1 0
      vertex 16 1 2
      vertex 17 1 2
    endloop
  endfacet
  facet normal 0 1 0
    outer loop
      vertex 16 1 2
      vertex 29 1 0
      vertex 14 1 2
    endloop
  endfacet
  facet normal 0 1 0
    outer loop
      vertex 1 1 0
      vertex 14 1 2
      vertex 29 1 0
    endloop
  endfacet
  facet normal 0 1 -0
    outer loop
      vertex 29 1 0
      vertex 17 1 2
      vertex 29 1 5
    endloop
  endfacet
  facet normal 0 1 -0
    outer loop
      vertex 13 1 2
      vertex 1 1 5
      vertex 13 1 5
    endloop
  endfacet
  facet normal 0 1 0
    outer loop
      vertex 13 1 2
      vertex 1 1 0
      vertex 1 1 5
    endloop
  endfacet
  facet normal 0 1 0
    outer loop
      vertex 14 1 2
      vertex 1 1 0
      vertex 13 1 2
    endloop
  endfacet
  facet normal 0 0 1
    outer loop
      vertex 1 9 5
      vertex 0.5 9 5
      vertex 1 1 5
    endloop
  endfacet
  facet normal 0 0 1
    outer loop
      vertex 13 1 5
      vertex 14 9 5
      vertex 13 9 5
    endloop
  endfacet
  facet normal 0 0 1
    outer loop
      vertex 14 9 5
      vertex 13 1 5
      vertex 14 0 5
    endloop
  endfacet
  facet normal -0 0 1
    outer loop
      vertex 1 1 5
      vertex 14 0 5
      vertex 13 1 5
    endloop
  endfacet
  facet normal 0 0 1
    outer loop
      vertex 0.5 1 5
      vertex 1 1 5
      vertex 0.5 9 5
    endloop
  endfacet
  facet normal 0 0 1
    outer loop
      vertex 0 0 5
      vertex 1 1 5
      vertex 0.5 1 5
    endloop
  endfacet
  facet normal 0 0 1
    outer loop
      vertex 0 0 5
      vertex 0.5 1 5
      vertex 0 1 5
    endloop
  endfacet
  facet normal 0 0 1
    outer loop
      vertex 1 1 5
      vertex 0 0 5
      vertex 14 0 5
    endloop
  endfacet
  facet normal 1 0 0
    outer loop
      vertex 14 9 5
      vertex 14 1 2
      vertex 14 9 2
    endloop
  endfacet
  facet normal 1 -0 0
    outer loop
      vertex 14 0 5
      vertex 14 1 2
      vertex 14 9 5
    endloop
  endfacet
  facet normal 1 0 0
    outer loop
      vertex 14 1 2
      vertex 14 0 5
      vertex 14 0 2
    endloop
  endfacet
  facet normal -1 0 0
    outer loop
      vertex 13 1 2
      vertex 13 9 5
      vertex 13 9 2
    endloop
  endfacet
  facet normal -1 -0 0
    outer loop
      vertex 13 9 5
      vertex 13 1 2
      vertex 13 1 5
    endloop
  endfacet
  facet normal 0 -1 0
    outer loop
      vertex 17 9 2
      vertex 29 9 5
      vertex 17 9 5
    endloop
  endfacet
  facet normal 0 -1 -0
    outer loop
      vertex 29 9 5
      vertex 17 9 2
      vertex 29 9 2
    endloop
  endfacet
  facet normal 0 -1 0
    outer loop
      vertex 14 9 2
      vertex 16 9 5
      vertex 14 9 5
    endloop
  endfacet
  facet normal 0 -1 -0
    outer loop
      vertex 16 9 5
      vertex 14 9 2
      vertex 16 9 2
    endloop
  endfacet
  facet normal 0 -1 0
    outer loop
      vertex 1 9 2
      vertex 13 9 5
      vertex 1 9 5
    endloop
  endfacet
  facet normal 0 -1 -0
    outer loop
      vertex 13 9 5
      vertex 1 9 2
      vertex 13 9 2
    endloop
  endfacet
  facet normal 0 -1 0
    outer loop
      vertex 1 9 5
      vertex 0.5 9 8
      vertex 0.5 9 5
    endloop
  endfacet
  facet normal 0 -1 0
    outer loop
      vertex 13 9 5
      vertex 0.5 9 8
      vertex 1 9 5
    endloop
  endfacet
  facet normal 0 -1 0
    outer loop
      vertex 14 9 5
      vertex 0.5 9 8
      vertex 13 9 5
    endloop
  endfacet
  facet normal 0 -1 0
    outer loop
      vertex 0.5 9 8
      vertex 14 9 5
      vertex 29.5 9 8
    endloop
  endfacet
  facet normal 0 -1 0
    outer loop
      vertex 16 9 5
      vertex 29.5 9 8
      vertex 14 9 5
    endloop
  endfacet
  facet normal 0 -1 0
    outer loop
      vertex 17 9 5
      vertex 29.5 9 8
      vertex 16 9 5
    endloop
  endfacet
  facet normal 0 -1 0
    outer loop
      vertex 29 9 5
      vertex 29.5 9 8
      vertex 17 9 5
    endloop
  endfacet
  facet normal 0 -1 -0
    outer loop
      vertex 29.5 9 8
      vertex 29 9 5
      vertex 29.5 9 5
    endloop
  endfacet
  facet normal 0 1 -0
    outer loop
      vertex 0 9 2
      vertex -0.5 9 8
      vertex 0 9 8
    endloop
  endfacet
  facet normal 0 1 0
    outer loop
      vertex -0.5 9 8
      vertex 0 9 2
      vertex -0.5 9 2
    endloop
  endfacet
  facet normal 0 1 -0
    outer loop
      vertex 30.5 9 2
      vertex 30 9 8
      vertex 30.5 9 8
    endloop
  endfacet
  facet normal 0 1 0
    outer loop
      vertex 30 9 8
      vertex 30.5 9 2
      vertex 30 9 2
    endloop
  endfacet
  facet normal -1 0 0
    outer loop
      vertex 16 1 2
      vertex 16 9 5
      vertex 16 9 2
    endloop
  endfacet
  facet normal -1 0 0
    outer loop
      vertex 16 0 5
      vertex 16 1 2
      vertex 16 0 2
    endloop
  endfacet
  facet normal -1 0 0
    outer loop
      vertex 16 1 2
      vertex 16 0 5
      vertex 16 9 5
    endloop
  endfacet
  facet normal 0 0 1
    outer loop
      vertex 17 9 5
      vertex 16 9 5
      vertex 17 1 5
    endloop
  endfacet
  facet normal 0 0 1
    outer loop
      vertex 29.5 9 5
      vertex 29 9 5
      vertex 29.5 1 5
    endloop
  endfacet
  facet normal -0 0 1
    outer loop
      vertex 29.5 1 5
      vertex 30 0 5
      vertex 30 1 5
    endloop
  endfacet
  facet normal 0 0 1
    outer loop
      vertex 29 1 5
      vertex 29.5 1 5
      vertex 29 9 5
    endloop
  endfacet
  facet normal -0 0 1
    outer loop
      vertex 29 1 5
      vertex 30 0 5
      vertex 29.5 1 5
    endloop
  endfacet
  facet normal -0 0 1
    outer loop
      vertex 17 1 5
      vertex 30 0 5
      vertex 29 1 5
    endloop
  endfacet
  facet normal 0 0 1
    outer loop
      vertex 17 1 5
      vertex 16 0 5
      vertex 30 0 5
    endloop
  endfacet
  facet normal 0 0 1
    outer loop
      vertex 16 0 5
      vertex 17 1 5
      vertex 16 9 5
    endloop
  endfacet
  facet normal 1 -0 0
    outer loop
      vertex 17 1 5
      vertex 17 9 2
      vertex 17 9 5
    endloop
  endfacet
  facet normal 1 0 0
    outer loop
      vertex 17 9 2
      vertex 17 1 5
      vertex 17 1 2
    endloop
  endfacet
  facet normal -1 0 0
    outer loop
      vertex -0.5 1 2
      vertex -0.5 9 8
      vertex -0.5 9 2
    endloop
  endfacet
  facet normal -1 -0 0
    outer loop
      vertex -0.5 9 8
      vertex -0.5 1 2
      vertex -0.5 1 8
    endloop
  endfacet
  facet normal 0 0 1
    outer loop
      vertex 30 10 8
      vertex 29.5 9 8
      vertex 30 9 8
    endloop
  endfacet
  facet normal 0 0 1
    outer loop
      vertex 30 10 8
      vertex 0.5 9 8
      vertex 29.5 9 8
    endloop
  endfacet
  facet normal -0 0 1
    outer loop
      vertex 0 10 8
      vertex 0.5 9 8
      vertex 30 10 8
    endloop
  endfacet
  facet normal 0 0 1
    outer loop
      vertex 0 9 8
      vertex 0.5 9 8
      vertex 0 10 8
    endloop
  endfacet
  facet normal 0 0 1
    outer loop
      vertex 0.5 9 8
      vertex 0 9 8
      vertex 0.5 1 8
    endloop
  endfacet
  facet normal 0 0 1
    outer loop
      vertex -0.5 1 8
      vertex 0 9 8
      vertex -0.5 9 8
    endloop
  endfacet
  facet normal 0 0 1
    outer loop
      vertex 0 9 8
      vertex -0.5 1 8
      vertex 0.5 1 8
    endloop
  endfacet
  facet normal -0 0 1
    outer loop
      vertex 30 9 8
      vertex 30.5 1 8
      vertex 30.5 9 8
    endloop
  endfacet
  facet normal 0 0 1
    outer loop
      vertex 29.5 1 8
      vertex 30 9 8
      vertex 29.5 9 8
    endloop
  endfacet
  facet normal 0 0 1
    outer loop
      vertex 30 9 8
      vertex 29.5 1 8
      vertex 30.5 1 8
    endloop
  endfacet
  facet normal 1 -0 0
    outer loop
      vertex 0.5 1 8
      vertex 0.5 9 5
      vertex 0.5 9 8
    endloop
  endfacet
  facet normal 1 0 0
    outer loop
      vertex 0.5 9 5
      vertex 0.5 1 8
      vertex 0.5 1 5
    endloop
  endfacet
  facet normal 0 -1 0
    outer loop
      vertex -0.5 1 8
      vertex 0 1 5
      vertex 0.5 1 8
    endloop
  endfacet
  facet normal 0 -1 0
    outer loop
      vertex -0.5 1 2
      vertex 0 1 5
      vertex -0.5 1 8
    endloop
  endfacet
  facet normal 0 -1 -0
    outer loop
      vertex 0 1 5
      vertex -0.5 1 2
      vertex 0 1 2
    endloop
  endfacet
  facet normal 0 -1 -0
    outer loop
      vertex 0.5 1 8
      vertex 0 1 5
      vertex 0.5 1 5
    endloop
  endfacet
  facet normal -1 0 0
    outer loop
      vertex 29.5 1 5
      vertex 29.5 9 8
      vertex 29.5 9 5
    endloop
  endfacet
  facet normal -1 -0 0
    outer loop
      vertex 29.5 9 8
      vertex 29.5 1 5
      vertex 29.5 1 8
    endloop
  endfacet
  facet normal 1 -0 0
    outer loop
      vertex 30.5 1 8
      vertex 30.5 9 2
      vertex 30.5 9 8
    endloop
  endfacet
  facet normal 1 0 0
    outer loop
      vertex 30.5 9 2
      vertex 30.5 1 8
      vertex 30.5 1 2
    endloop
  endfacet
  facet normal 0 -1 0
    outer loop
      vertex 30 1 5
      vertex 29.5 1 8
      vertex 29.5 1 5
    endloop
  endfacet
  facet normal 0 -1 0
    outer loop
      vertex 29.5 1 8
      vertex 30 1 5
      vertex 30.5 1 8
    endloop
  endfacet
  facet normal 0 -1 0
    outer loop
      vertex 30.5 1 2
      vertex 30 1 5
      vertex 30 1 2
    endloop
  endfacet
  facet normal 0 -1 0
    outer loop
      vertex 30 1 5
      vertex 30.5 1 2
      vertex 30.5 1 8
    endloop
  endfacet
endsolid OpenSCAD_Model
