solid OpenSCAD_Model
  facet normal 0.80901 0.587795 0
    outer loop
      vertex 16 0 15
      vertex 15.309 0.951056 -15
      vertex 15.309 0.951056 15
    endloop
  endfacet
  facet normal 0.80901 0.587795 0
    outer loop
      vertex 15.309 0.951056 -15
      vertex 16 0 15
      vertex 16 0 -15
    endloop
  endfacet
  facet normal -1 0 0
    outer loop
      vertex 14.191 -0.587785 1.5
      vertex 14.191 0.587785 15
      vertex 14.191 0.587785 1.5
    endloop
  endfacet
  facet normal -1 -0 0
    outer loop
      vertex 14.191 0.587785 15
      vertex 14.191 -0.587785 1.5
      vertex 14.191 -0.587785 15
    endloop
  endfacet
  facet normal -1 0 0
    outer loop
      vertex 14.191 -0.587785 -15
      vertex 14.191 0.587785 -1.5
      vertex 14.191 0.587785 -15
    endloop
  endfacet
  facet normal -1 -0 0
    outer loop
      vertex 14.191 0.587785 -1.5
      vertex 14.191 -0.587785 -15
      vertex 14.191 -0.587785 -1.5
    endloop
  endfacet
  facet normal -0.309025 0.951054 9.54803e-07
    outer loop
      vertex 15.309 0.951056 15
      vertex 14.9135 0.82256 1.5
      vertex 14.191 0.587785 15
    endloop
  endfacet
  facet normal -0.308996 0.951063 0
    outer loop
      vertex 15.309 0.951056 15
      vertex 14.9135 0.82256 -1.5
      vertex 14.9135 0.82256 1.5
    endloop
  endfacet
  facet normal -0.308996 0.951063 0
    outer loop
      vertex 15.309 0.951056 -15
      vertex 14.9135 0.82256 -1.5
      vertex 15.309 0.951056 15
    endloop
  endfacet
  facet normal -0.309025 0.951054 -9.54803e-07
    outer loop
      vertex 14.191 0.587785 -15
      vertex 14.9135 0.82256 -1.5
      vertex 15.309 0.951056 -15
    endloop
  endfacet
  facet normal -0.309041 0.951049 0
    outer loop
      vertex 14.9135 0.82256 -1.5
      vertex 14.191 0.587785 -15
      vertex 14.191 0.587785 -1.5
    endloop
  endfacet
  facet normal -0.309041 0.951049 0
    outer loop
      vertex 14.191 0.587785 15
      vertex 14.9135 0.82256 1.5
      vertex 14.191 0.587785 1.5
    endloop
  endfacet
  facet normal 0 0 1
    outer loop
      vertex 15.309 0.951056 15
      vertex 15.309 -0.951056 15
      vertex 16 0 15
    endloop
  endfacet
  facet normal -0 0 1
    outer loop
      vertex 14.191 0.587785 15
      vertex 15.309 -0.951056 15
      vertex 15.309 0.951056 15
    endloop
  endfacet
  facet normal 0 0 1
    outer loop
      vertex 15.309 -0.951056 15
      vertex 14.191 0.587785 15
      vertex 14.191 -0.587785 15
    endloop
  endfacet
  facet normal 0 0 -1
    outer loop
      vertex 15.309 -0.951056 -15
      vertex 15.309 0.951056 -15
      vertex 16 0 -15
    endloop
  endfacet
  facet normal 0 0 -1
    outer loop
      vertex 14.191 -0.587785 -15
      vertex 15.309 0.951056 -15
      vertex 15.309 -0.951056 -15
    endloop
  endfacet
  facet normal 0 0 -1
    outer loop
      vertex 15.309 0.951056 -15
      vertex 14.191 -0.587785 -15
      vertex 14.191 0.587785 -15
    endloop
  endfacet
  facet normal 0.80901 -0.587795 0
    outer loop
      vertex 15.309 -0.951056 15
      vertex 16 0 -15
      vertex 16 0 15
    endloop
  endfacet
  facet normal 0.80901 -0.587795 0
    outer loop
      vertex 16 0 -15
      vertex 15.309 -0.951056 15
      vertex 15.309 -0.951056 -15
    endloop
  endfacet
  facet normal -0.309041 -0.951049 -0
    outer loop
      vertex 14.191 -0.587785 -1.5
      vertex 14.191 -0.587785 -15
      vertex 14.9135 -0.82256 -1.5
    endloop
  endfacet
  facet normal -0.309041 -0.951049 0
    outer loop
      vertex 14.9135 -0.82256 1.5
      vertex 14.191 -0.587785 15
      vertex 14.191 -0.587785 1.5
    endloop
  endfacet
  facet normal -0.309025 -0.951054 9.54803e-07
    outer loop
      vertex 14.191 -0.587785 15
      vertex 14.9135 -0.82256 1.5
      vertex 15.309 -0.951056 15
    endloop
  endfacet
  facet normal -0.308996 -0.951063 0
    outer loop
      vertex 14.9135 -0.82256 -1.5
      vertex 15.309 -0.951056 15
      vertex 14.9135 -0.82256 1.5
    endloop
  endfacet
  facet normal -0.308996 -0.951063 0
    outer loop
      vertex 14.9135 -0.82256 -1.5
      vertex 15.309 -0.951056 -15
      vertex 15.309 -0.951056 15
    endloop
  endfacet
  facet normal -0.309025 -0.951054 -9.54803e-07
    outer loop
      vertex 15.309 -0.951056 -15
      vertex 14.9135 -0.82256 -1.5
      vertex 14.191 -0.587785 -15
    endloop
  endfacet
  facet normal 0.809029 0.587768 0
    outer loop
      vertex 1 15 15
      vertex 0.309016 15.9511 -15
      vertex 0.309016 15.9511 15
    endloop
  endfacet
  facet normal 0.809029 0.587768 0
    outer loop
      vertex 0.309016 15.9511 -15
      vertex 1 15 15
      vertex 1 15 -15
    endloop
  endfacet
  facet normal -1 0 0
    outer loop
      vertex -0.809016 15.5878 -15
      vertex -0.809016 14.9178 -1.5
      vertex -0.809016 15.5878 15
    endloop
  endfacet
  facet normal -1 0 0
    outer loop
      vertex -0.809016 14.4122 -15
      vertex -0.809016 14.9178 -1.5
      vertex -0.809016 15.5878 -15
    endloop
  endfacet
  facet normal -1 -0 0
    outer loop
      vertex -0.809016 14.9178 -1.5
      vertex -0.809016 14.4122 -15
      vertex -0.809016 14.4122 -1.5
    endloop
  endfacet
  facet normal -1 0 0
    outer loop
      vertex -0.809016 14.9178 1.5
      vertex -0.809016 15.5878 15
      vertex -0.809016 14.9178 -1.5
    endloop
  endfacet
  facet normal -1 0 0
    outer loop
      vertex -0.809016 14.4122 15
      vertex -0.809016 14.9178 1.5
      vertex -0.809016 14.4122 1.5
    endloop
  endfacet
  facet normal -1 0 0
    outer loop
      vertex -0.809016 14.9178 1.5
      vertex -0.809016 14.4122 15
      vertex -0.809016 15.5878 15
    endloop
  endfacet
  facet normal -0.30904 0.951049 0
    outer loop
      vertex 0.309016 15.9511 -15
      vertex -0.809016 15.5878 15
      vertex 0.309016 15.9511 15
    endloop
  endfacet
  facet normal -0.30904 0.951049 0
    outer loop
      vertex -0.809016 15.5878 15
      vertex 0.309016 15.9511 -15
      vertex -0.809016 15.5878 -15
    endloop
  endfacet
  facet normal 0 0 1
    outer loop
      vertex 0.309016 15.9511 15
      vertex 0.309016 14.0489 15
      vertex 1 15 15
    endloop
  endfacet
  facet normal -0 0 1
    outer loop
      vertex -0.809016 15.5878 15
      vertex 0.309016 14.0489 15
      vertex 0.309016 15.9511 15
    endloop
  endfacet
  facet normal 0 0 1
    outer loop
      vertex 0.309016 14.0489 15
      vertex -0.809016 15.5878 15
      vertex -0.809016 14.4122 15
    endloop
  endfacet
  facet normal 0 0 -1
    outer loop
      vertex 0.309016 14.0489 -15
      vertex 0.309016 15.9511 -15
      vertex 1 15 -15
    endloop
  endfacet
  facet normal 0 0 -1
    outer loop
      vertex -0.809016 14.4122 -15
      vertex 0.309016 15.9511 -15
      vertex 0.309016 14.0489 -15
    endloop
  endfacet
  facet normal 0 0 -1
    outer loop
      vertex 0.309016 15.9511 -15
      vertex -0.809016 14.4122 -15
      vertex -0.809016 15.5878 -15
    endloop
  endfacet
  facet normal 0.80911 -0.587658 0
    outer loop
      vertex 1 15 15
      vertex 0.940298 14.9178 1.5
      vertex 1 15 -15
    endloop
  endfacet
  facet normal 0.809029 -0.587768 1.02784e-06
    outer loop
      vertex 0.309016 14.0489 15
      vertex 0.940298 14.9178 1.5
      vertex 1 15 15
    endloop
  endfacet
  facet normal 0.809022 -0.587779 0
    outer loop
      vertex 0.940298 14.9178 1.5
      vertex 0.309016 14.0489 15
      vertex 0.309016 14.0489 1.5
    endloop
  endfacet
  facet normal 0.80911 -0.587658 0
    outer loop
      vertex 0.940298 14.9178 -1.5
      vertex 1 15 -15
      vertex 0.940298 14.9178 1.5
    endloop
  endfacet
  facet normal 0.809022 -0.587779 -1.12507e-06
    outer loop
      vertex 0.309016 14.0489 -1.5
      vertex 1 15 -15
      vertex 0.940298 14.9178 -1.5
    endloop
  endfacet
  facet normal 0.809029 -0.587768 0
    outer loop
      vertex 1 15 -15
      vertex 0.309016 14.0489 -1.5
      vertex 0.309016 14.0489 -15
    endloop
  endfacet
  facet normal -0.30904 -0.951049 0
    outer loop
      vertex -0.809016 14.4122 1.5
      vertex 0.309016 14.0489 15
      vertex -0.809016 14.4122 15
    endloop
  endfacet
  facet normal -0.30904 -0.951049 -0
    outer loop
      vertex 0.309016 14.0489 15
      vertex -0.809016 14.4122 1.5
      vertex 0.309016 14.0489 1.5
    endloop
  endfacet
  facet normal -0.30904 -0.951049 0
    outer loop
      vertex -0.809016 14.4122 -15
      vertex 0.309016 14.0489 -1.5
      vertex -0.809016 14.4122 -1.5
    endloop
  endfacet
  facet normal -0.30904 -0.951049 -0
    outer loop
      vertex 0.309016 14.0489 -1.5
      vertex -0.809016 14.4122 -15
      vertex 0.309016 14.0489 -15
    endloop
  endfacet
  facet normal 0.80901 0.587795 0
    outer loop
      vertex -14 0 -1.5
      vertex -14.691 0.951056 -15
      vertex -14.691 0.951056 -1.5
    endloop
  endfacet
  facet normal 0.80901 0.587795 0
    outer loop
      vertex -14.691 0.951056 -15
      vertex -14 0 -1.5
      vertex -14 0 -15
    endloop
  endfacet
  facet normal 0.80901 0.587795 0
    outer loop
      vertex -14 0 15
      vertex -14.691 0.951056 1.5
      vertex -14.691 0.951056 15
    endloop
  endfacet
  facet normal 0.80901 0.587795 0
    outer loop
      vertex -14.691 0.951056 1.5
      vertex -14 0 15
      vertex -14 0 1.5
    endloop
  endfacet
  facet normal -1 0 0
    outer loop
      vertex -15.809 -0.587785 -15
      vertex -15.809 0.587785 15
      vertex -15.809 0.587785 -15
    endloop
  endfacet
  facet normal -1 -0 0
    outer loop
      vertex -15.809 0.587785 15
      vertex -15.809 -0.587785 -15
      vertex -15.809 -0.587785 15
    endloop
  endfacet
  facet normal -0.309078 0.951037 0
    outer loop
      vertex -14.691 0.951056 -1.5
      vertex -14.691 0.951056 -15
      vertex -14.9074 0.880728 -1.5
    endloop
  endfacet
  facet normal -0.309078 0.951037 0
    outer loop
      vertex -14.9074 0.880728 1.5
      vertex -14.691 0.951056 15
      vertex -14.691 0.951056 1.5
    endloop
  endfacet
  facet normal -0.309025 0.951054 -9.36347e-07
    outer loop
      vertex -14.691 0.951056 15
      vertex -14.9074 0.880728 1.5
      vertex -15.809 0.587785 15
    endloop
  endfacet
  facet normal -0.309013 0.951058 0
    outer loop
      vertex -14.9074 0.880728 -1.5
      vertex -15.809 0.587785 15
      vertex -14.9074 0.880728 1.5
    endloop
  endfacet
  facet normal -0.309025 0.951054 9.36347e-07
    outer loop
      vertex -15.809 0.587785 -15
      vertex -14.9074 0.880728 -1.5
      vertex -14.691 0.951056 -15
    endloop
  endfacet
  facet normal -0.309013 0.951058 0
    outer loop
      vertex -14.9074 0.880728 -1.5
      vertex -15.809 0.587785 -15
      vertex -15.809 0.587785 15
    endloop
  endfacet
  facet normal -0.309025 -0.951054 -9.36347e-07
    outer loop
      vertex -15.809 -0.587785 15
      vertex -14.9074 -0.880728 1.5
      vertex -14.691 -0.951056 15
    endloop
  endfacet
  facet normal -0.309013 -0.951058 0
    outer loop
      vertex -15.809 -0.587785 15
      vertex -14.9074 -0.880728 -1.5
      vertex -14.9074 -0.880728 1.5
    endloop
  endfacet
  facet normal -0.309013 -0.951058 0
    outer loop
      vertex -15.809 -0.587785 -15
      vertex -14.9074 -0.880728 -1.5
      vertex -15.809 -0.587785 15
    endloop
  endfacet
  facet normal -0.309025 -0.951054 9.36347e-07
    outer loop
      vertex -14.691 -0.951056 -15
      vertex -14.9074 -0.880728 -1.5
      vertex -15.809 -0.587785 -15
    endloop
  endfacet
  facet normal -0.309078 -0.951037 0
    outer loop
      vertex -14.9074 -0.880728 -1.5
      vertex -14.691 -0.951056 -15
      vertex -14.691 -0.951056 -1.5
    endloop
  endfacet
  facet normal -0.309078 -0.951037 -0
    outer loop
      vertex -14.691 -0.951056 15
      vertex -14.9074 -0.880728 1.5
      vertex -14.691 -0.951056 1.5
    endloop
  endfacet
  facet normal 0 0 -1
    outer loop
      vertex -14.691 -0.951056 -15
      vertex -14.691 0.951056 -15
      vertex -14 0 -15
    endloop
  endfacet
  facet normal 0 0 -1
    outer loop
      vertex -15.809 -0.587785 -15
      vertex -14.691 0.951056 -15
      vertex -14.691 -0.951056 -15
    endloop
  endfacet
  facet normal 0 0 -1
    outer loop
      vertex -14.691 0.951056 -15
      vertex -15.809 -0.587785 -15
      vertex -15.809 0.587785 -15
    endloop
  endfacet
  facet normal 0 0 1
    outer loop
      vertex -14.691 0.951056 15
      vertex -14.691 -0.951056 15
      vertex -14 0 15
    endloop
  endfacet
  facet normal -0 0 1
    outer loop
      vertex -15.809 0.587785 15
      vertex -14.691 -0.951056 15
      vertex -14.691 0.951056 15
    endloop
  endfacet
  facet normal 0 0 1
    outer loop
      vertex -14.691 -0.951056 15
      vertex -15.809 0.587785 15
      vertex -15.809 -0.587785 15
    endloop
  endfacet
  facet normal 0.80901 -0.587795 0
    outer loop
      vertex -14.691 -0.951056 -1.5
      vertex -14 0 -15
      vertex -14 0 -1.5
    endloop
  endfacet
  facet normal 0.80901 -0.587795 0
    outer loop
      vertex -14 0 -15
      vertex -14.691 -0.951056 -1.5
      vertex -14.691 -0.951056 -15
    endloop
  endfacet
  facet normal 0.80901 -0.587795 0
    outer loop
      vertex -14.691 -0.951056 15
      vertex -14 0 1.5
      vertex -14 0 15
    endloop
  endfacet
  facet normal 0.80901 -0.587795 0
    outer loop
      vertex -14 0 1.5
      vertex -14.691 -0.951056 15
      vertex -14.691 -0.951056 1.5
    endloop
  endfacet
  facet normal 0.809022 0.587779 0
    outer loop
      vertex 0.309016 -14.0489 15
      vertex 0.940298 -14.9178 1.5
      vertex 0.309016 -14.0489 1.5
    endloop
  endfacet
  facet normal 0.80911 0.587658 0
    outer loop
      vertex 0.940298 -14.9178 1.5
      vertex 1 -15 15
      vertex 0.940298 -14.9178 -1.5
    endloop
  endfacet
  facet normal 0.809029 0.587768 1.02784e-06
    outer loop
      vertex 1 -15 15
      vertex 0.940298 -14.9178 1.5
      vertex 0.309016 -14.0489 15
    endloop
  endfacet
  facet normal 0.809022 0.587779 0
    outer loop
      vertex 0.940298 -14.9178 -1.5
      vertex 0.309016 -14.0489 -15
      vertex 0.309016 -14.0489 -1.5
    endloop
  endfacet
  facet normal 0.809029 0.587768 -1.02784e-06
    outer loop
      vertex 0.940298 -14.9178 -1.5
      vertex 1 -15 -15
      vertex 0.309016 -14.0489 -15
    endloop
  endfacet
  facet normal 0.80911 0.587658 -0
    outer loop
      vertex 1 -15 -15
      vertex 0.940298 -14.9178 -1.5
      vertex 1 -15 15
    endloop
  endfacet
  facet normal -1 0 0
    outer loop
      vertex -0.809016 -14.4122 -15
      vertex -0.809016 -14.9178 -1.5
      vertex -0.809016 -14.4122 -1.5
    endloop
  endfacet
  facet normal -1 -0 0
    outer loop
      vertex -0.809016 -14.9178 -1.5
      vertex -0.809016 -15.5878 -15
      vertex -0.809016 -14.9178 1.5
    endloop
  endfacet
  facet normal -1 0 0
    outer loop
      vertex -0.809016 -15.5878 -15
      vertex -0.809016 -14.9178 -1.5
      vertex -0.809016 -14.4122 -15
    endloop
  endfacet
  facet normal -1 0 0
    outer loop
      vertex -0.809016 -14.9178 1.5
      vertex -0.809016 -14.4122 15
      vertex -0.809016 -14.4122 1.5
    endloop
  endfacet
  facet normal -1 0 0
    outer loop
      vertex -0.809016 -15.5878 15
      vertex -0.809016 -14.9178 1.5
      vertex -0.809016 -15.5878 -15
    endloop
  endfacet
  facet normal -1 0 0
    outer loop
      vertex -0.809016 -14.9178 1.5
      vertex -0.809016 -15.5878 15
      vertex -0.809016 -14.4122 15
    endloop
  endfacet
  facet normal -0.30904 0.951049 0
    outer loop
      vertex 0.309016 -14.0489 -15
      vertex -0.809016 -14.4122 -1.5
      vertex 0.309016 -14.0489 -1.5
    endloop
  endfacet
  facet normal -0.30904 0.951049 0
    outer loop
      vertex -0.809016 -14.4122 -1.5
      vertex 0.309016 -14.0489 -15
      vertex -0.809016 -14.4122 -15
    endloop
  endfacet
  facet normal -0.30904 0.951049 0
    outer loop
      vertex 0.309016 -14.0489 1.5
      vertex -0.809016 -14.4122 15
      vertex 0.309016 -14.0489 15
    endloop
  endfacet
  facet normal -0.30904 0.951049 0
    outer loop
      vertex -0.809016 -14.4122 15
      vertex 0.309016 -14.0489 1.5
      vertex -0.809016 -14.4122 1.5
    endloop
  endfacet
  facet normal 0 0 1
    outer loop
      vertex 0.309016 -14.0489 15
      vertex 0.309016 -15.9511 15
      vertex 1 -15 15
    endloop
  endfacet
  facet normal -0 0 1
    outer loop
      vertex -0.809016 -14.4122 15
      vertex 0.309016 -15.9511 15
      vertex 0.309016 -14.0489 15
    endloop
  endfacet
  facet normal 0 0 1
    outer loop
      vertex 0.309016 -15.9511 15
      vertex -0.809016 -14.4122 15
      vertex -0.809016 -15.5878 15
    endloop
  endfacet
  facet normal 0 0 -1
    outer loop
      vertex 0.309016 -15.9511 -15
      vertex 0.309016 -14.0489 -15
      vertex 1 -15 -15
    endloop
  endfacet
  facet normal 0 0 -1
    outer loop
      vertex -0.809016 -15.5878 -15
      vertex 0.309016 -14.0489 -15
      vertex 0.309016 -15.9511 -15
    endloop
  endfacet
  facet normal 0 0 -1
    outer loop
      vertex 0.309016 -14.0489 -15
      vertex -0.809016 -15.5878 -15
      vertex -0.809016 -14.4122 -15
    endloop
  endfacet
  facet normal 0.809029 -0.587768 0
    outer loop
      vertex 0.309016 -15.9511 15
      vertex 1 -15 -15
      vertex 1 -15 15
    endloop
  endfacet
  facet normal 0.809029 -0.587768 0
    outer loop
      vertex 1 -15 -15
      vertex 0.309016 -15.9511 15
      vertex 0.309016 -15.9511 -15
    endloop
  endfacet
  facet normal -0.30904 -0.951049 0
    outer loop
      vertex -0.809016 -15.5878 -15
      vertex 0.309016 -15.9511 15
      vertex -0.809016 -15.5878 15
    endloop
  endfacet
  facet normal -0.30904 -0.951049 -0
    outer loop
      vertex 0.309016 -15.9511 15
      vertex -0.809016 -15.5878 -15
      vertex 0.309016 -15.9511 -15
    endloop
  endfacet
  facet normal 0.994523 0.104515 0
    outer loop
      vertex 14.9135 0.82256 1.5
      vertex 14.6722 3.11868 -1.5
      vertex 14.6722 3.11868 1.5
    endloop
  endfacet
  facet normal 0.994523 0.104515 0
    outer loop
      vertex 14.6722 3.11868 -1.5
      vertex 14.9135 0.82256 1.5
      vertex 14.9135 0.82256 -1.5
    endloop
  endfacet
  facet normal -0.994523 0.10452 0
    outer loop
      vertex -14.9074 0.880728 -1.5
      vertex -14.6722 3.11868 1.5
      vertex -14.6722 3.11868 -1.5
    endloop
  endfacet
  facet normal -0.994523 0.10452 0
    outer loop
      vertex -14.6722 3.11868 1.5
      vertex -14.9074 0.880728 -1.5
      vertex -14.9074 0.880728 1.5
    endloop
  endfacet
  facet normal 0 1 -0
    outer loop
      vertex -0.809016 14.9178 -1.5
      vertex -1.56793 14.9178 1.5
      vertex -0.809016 14.9178 1.5
    endloop
  endfacet
  facet normal 0 1 0
    outer loop
      vertex -1.56793 14.9178 1.5
      vertex -0.809016 14.9178 -1.5
      vertex -1.56793 14.9178 -1.5
    endloop
  endfacet
  facet normal 0 1 -0
    outer loop
      vertex 1.56793 14.9178 -1.5
      vertex 0.940298 14.9178 1.5
      vertex 1.56793 14.9178 1.5
    endloop
  endfacet
  facet normal 0 1 0
    outer loop
      vertex 0.940298 14.9178 1.5
      vertex 1.56793 14.9178 -1.5
      vertex 0.940298 14.9178 -1.5
    endloop
  endfacet
  facet normal 0 -1 0
    outer loop
      vertex -1.56793 -14.9178 -1.5
      vertex -0.809016 -14.9178 1.5
      vertex -1.56793 -14.9178 1.5
    endloop
  endfacet
  facet normal 0 -1 -0
    outer loop
      vertex -0.809016 -14.9178 1.5
      vertex -1.56793 -14.9178 -1.5
      vertex -0.809016 -14.9178 -1.5
    endloop
  endfacet
  facet normal 0 -1 0
    outer loop
      vertex 0.940298 -14.9178 -1.5
      vertex 1.56793 -14.9178 1.5
      vertex 0.940298 -14.9178 1.5
    endloop
  endfacet
  facet normal 0 -1 -0
    outer loop
      vertex 1.56793 -14.9178 1.5
      vertex 0.940298 -14.9178 -1.5
      vertex 1.56793 -14.9178 -1.5
    endloop
  endfacet
  facet normal 0.743148 0.669127 0
    outer loop
      vertex 12.1353 8.81678 1.5
      vertex 10.037 11.1472 -1.5
      vertex 10.037 11.1472 1.5
    endloop
  endfacet
  facet normal 0.743148 0.669127 0
    outer loop
      vertex 10.037 11.1472 -1.5
      vertex 12.1353 8.81678 1.5
      vertex 12.1353 8.81678 -1.5
    endloop
  endfacet
  facet normal -0.587777 0.809023 0
    outer loop
      vertex -7.5 12.9904 -1.5
      vertex -10.037 11.1472 1.5
      vertex -7.5 12.9904 1.5
    endloop
  endfacet
  facet normal -0.587777 0.809023 0
    outer loop
      vertex -10.037 11.1472 1.5
      vertex -7.5 12.9904 -1.5
      vertex -10.037 11.1472 -1.5
    endloop
  endfacet
  facet normal -0.207918 0.978146 0
    outer loop
      vertex -1.56793 14.9178 -1.5
      vertex -4.63525 14.2658 1.5
      vertex -1.56793 14.9178 1.5
    endloop
  endfacet
  facet normal -0.207918 0.978146 0
    outer loop
      vertex -4.63525 14.2658 1.5
      vertex -1.56793 14.9178 -1.5
      vertex -4.63525 14.2658 -1.5
    endloop
  endfacet
  facet normal 0.866029 0.499993 0
    outer loop
      vertex 13.7032 6.10105 1.5
      vertex 12.1353 8.81678 -1.5
      vertex 12.1353 8.81678 1.5
    endloop
  endfacet
  facet normal 0.866029 0.499993 0
    outer loop
      vertex 12.1353 8.81678 -1.5
      vertex 13.7032 6.10105 1.5
      vertex 13.7032 6.10105 -1.5
    endloop
  endfacet
  facet normal 0.951059 0.309008 0
    outer loop
      vertex 14.6722 3.11868 1.5
      vertex 13.7032 6.10105 -1.5
      vertex 13.7032 6.10105 1.5
    endloop
  endfacet
  facet normal 0.951059 0.309008 0
    outer loop
      vertex 13.7032 6.10105 -1.5
      vertex 14.6722 3.11868 1.5
      vertex 14.6722 3.11868 -1.5
    endloop
  endfacet
  facet normal 0.406718 0.913554 -0
    outer loop
      vertex 7.5 12.9904 -1.5
      vertex 4.63525 14.2658 1.5
      vertex 7.5 12.9904 1.5
    endloop
  endfacet
  facet normal 0.406718 0.913554 0
    outer loop
      vertex 4.63525 14.2658 1.5
      vertex 7.5 12.9904 -1.5
      vertex 4.63525 14.2658 -1.5
    endloop
  endfacet
  facet normal 0.207918 0.978146 -0
    outer loop
      vertex 4.63525 14.2658 -1.5
      vertex 1.56793 14.9178 1.5
      vertex 4.63525 14.2658 1.5
    endloop
  endfacet
  facet normal 0.207918 0.978146 0
    outer loop
      vertex 1.56793 14.9178 1.5
      vertex 4.63525 14.2658 -1.5
      vertex 1.56793 14.9178 -1.5
    endloop
  endfacet
  facet normal 0.587777 0.809023 -0
    outer loop
      vertex 10.037 11.1472 -1.5
      vertex 7.5 12.9904 1.5
      vertex 10.037 11.1472 1.5
    endloop
  endfacet
  facet normal 0.587777 0.809023 0
    outer loop
      vertex 7.5 12.9904 1.5
      vertex 10.037 11.1472 -1.5
      vertex 7.5 12.9904 -1.5
    endloop
  endfacet
  facet normal -0.866029 0.499993 0
    outer loop
      vertex -13.7032 6.10105 -1.5
      vertex -12.1353 8.81678 1.5
      vertex -12.1353 8.81678 -1.5
    endloop
  endfacet
  facet normal -0.866029 0.499993 0
    outer loop
      vertex -12.1353 8.81678 1.5
      vertex -13.7032 6.10105 -1.5
      vertex -13.7032 6.10105 1.5
    endloop
  endfacet
  facet normal -0.743148 0.669127 0
    outer loop
      vertex -12.1353 8.81678 -1.5
      vertex -10.037 11.1472 1.5
      vertex -10.037 11.1472 -1.5
    endloop
  endfacet
  facet normal -0.743148 0.669127 0
    outer loop
      vertex -10.037 11.1472 1.5
      vertex -12.1353 8.81678 -1.5
      vertex -12.1353 8.81678 1.5
    endloop
  endfacet
  facet normal -0.951059 0.309008 0
    outer loop
      vertex -14.6722 3.11868 -1.5
      vertex -13.7032 6.10105 1.5
      vertex -13.7032 6.10105 -1.5
    endloop
  endfacet
  facet normal -0.951059 0.309008 0
    outer loop
      vertex -13.7032 6.10105 1.5
      vertex -14.6722 3.11868 -1.5
      vertex -14.6722 3.11868 1.5
    endloop
  endfacet
  facet normal 0 0 1
    outer loop
      vertex 14.6722 3.11868 1.5
      vertex 14.191 0.587785 1.5
      vertex 14.9135 0.82256 1.5
    endloop
  endfacet
  facet normal 0 0 1
    outer loop
      vertex 12.1353 8.81678 1.5
      vertex 14.191 0.587785 1.5
      vertex 13.7032 6.10105 1.5
    endloop
  endfacet
  facet normal 0 0 1
    outer loop
      vertex 13.7032 6.10105 1.5
      vertex 14.191 0.587785 1.5
      vertex 14.6722 3.11868 1.5
    endloop
  endfacet
  facet normal 0 0 1
    outer loop
      vertex 14.191 -0.587785 1.5
      vertex 14.6722 -3.11868 1.5
      vertex 14.9135 -0.82256 1.5
    endloop
  endfacet
  facet normal 0 0 1
    outer loop
      vertex 14.191 -0.587785 1.5
      vertex 13.7032 -6.10105 1.5
      vertex 14.6722 -3.11868 1.5
    endloop
  endfacet
  facet normal 0 0 1
    outer loop
      vertex 0.309016 14.0489 1.5
      vertex 14.191 0.587785 1.5
      vertex 12.1353 8.81678 1.5
    endloop
  endfacet
  facet normal 0 0 1
    outer loop
      vertex 14.191 0.587785 1.5
      vertex 0.309016 14.0489 1.5
      vertex 14.191 -0.587785 1.5
    endloop
  endfacet
  facet normal 0 0 1
    outer loop
      vertex 0.309016 -14.0489 1.5
      vertex 14.191 -0.587785 1.5
      vertex 0.309016 14.0489 1.5
    endloop
  endfacet
  facet normal 0 0 1
    outer loop
      vertex 0.309016 14.0489 1.5
      vertex 12.1353 8.81678 1.5
      vertex 10.037 11.1472 1.5
    endloop
  endfacet
  facet normal 0 -0 1
    outer loop
      vertex 12.1353 -8.81678 1.5
      vertex 14.191 -0.587785 1.5
      vertex 0.309016 -14.0489 1.5
    endloop
  endfacet
  facet normal 0 0 1
    outer loop
      vertex 0.309016 14.0489 1.5
      vertex 10.037 11.1472 1.5
      vertex 7.5 12.9904 1.5
    endloop
  endfacet
  facet normal 0 0 1
    outer loop
      vertex 14.191 -0.587785 1.5
      vertex 12.1353 -8.81678 1.5
      vertex 13.7032 -6.10105 1.5
    endloop
  endfacet
  facet normal -0 0 1
    outer loop
      vertex 0.309016 14.0489 1.5
      vertex 7.5 12.9904 1.5
      vertex 4.63525 14.2658 1.5
    endloop
  endfacet
  facet normal 0 0 1
    outer loop
      vertex 12.1353 -8.81678 1.5
      vertex 0.309016 -14.0489 1.5
      vertex 10.037 -11.1472 1.5
    endloop
  endfacet
  facet normal 0 0 1
    outer loop
      vertex 0.309016 14.0489 1.5
      vertex 4.63525 14.2658 1.5
      vertex 1.56793 14.9178 1.5
    endloop
  endfacet
  facet normal 0 0 1
    outer loop
      vertex 10.037 -11.1472 1.5
      vertex 0.309016 -14.0489 1.5
      vertex 7.5 -12.9904 1.5
    endloop
  endfacet
  facet normal 0 0 1
    outer loop
      vertex 0.309016 14.0489 1.5
      vertex 1.56793 14.9178 1.5
      vertex 0.940298 14.9178 1.5
    endloop
  endfacet
  facet normal 0 0 1
    outer loop
      vertex 7.5 -12.9904 1.5
      vertex 0.309016 -14.0489 1.5
      vertex 4.63525 -14.2658 1.5
    endloop
  endfacet
  facet normal 0 0 1
    outer loop
      vertex 4.63525 -14.2658 1.5
      vertex 0.309016 -14.0489 1.5
      vertex 1.56793 -14.9178 1.5
    endloop
  endfacet
  facet normal 0 0 1
    outer loop
      vertex 1.56793 -14.9178 1.5
      vertex 0.309016 -14.0489 1.5
      vertex 0.940298 -14.9178 1.5
    endloop
  endfacet
  facet normal -0 0 1
    outer loop
      vertex -4.63525 14.2658 1.5
      vertex 0.309016 14.0489 1.5
      vertex -0.809016 14.4122 1.5
    endloop
  endfacet
  facet normal 0 0 1
    outer loop
      vertex 0.309016 14.0489 1.5
      vertex -14 0 1.5
      vertex 0.309016 -14.0489 1.5
    endloop
  endfacet
  facet normal -0 0 1
    outer loop
      vertex -1.56793 14.9178 1.5
      vertex -0.809016 14.4122 1.5
      vertex -0.809016 14.9178 1.5
    endloop
  endfacet
  facet normal -0 -0 1
    outer loop
      vertex -10.037 -11.1472 1.5
      vertex 0.309016 -14.0489 1.5
      vertex -14 0 1.5
    endloop
  endfacet
  facet normal 0 0 1
    outer loop
      vertex -0.809016 14.4122 1.5
      vertex -1.56793 14.9178 1.5
      vertex -4.63525 14.2658 1.5
    endloop
  endfacet
  facet normal -0 -0 1
    outer loop
      vertex -7.5 -12.9904 1.5
      vertex 0.309016 -14.0489 1.5
      vertex -10.037 -11.1472 1.5
    endloop
  endfacet
  facet normal 0 0 1
    outer loop
      vertex 0.309016 14.0489 1.5
      vertex -4.63525 14.2658 1.5
      vertex -7.5 12.9904 1.5
    endloop
  endfacet
  facet normal 0 -0 1
    outer loop
      vertex -1.56793 -14.9178 1.5
      vertex -0.809016 -14.4122 1.5
      vertex -4.63525 -14.2658 1.5
    endloop
  endfacet
  facet normal 0 0 1
    outer loop
      vertex 0.309016 14.0489 1.5
      vertex -7.5 12.9904 1.5
      vertex -10.037 11.1472 1.5
    endloop
  endfacet
  facet normal 0 0 1
    outer loop
      vertex -0.809016 -14.4122 1.5
      vertex -1.56793 -14.9178 1.5
      vertex -0.809016 -14.9178 1.5
    endloop
  endfacet
  facet normal 0 0 1
    outer loop
      vertex 0.309016 14.0489 1.5
      vertex -10.037 11.1472 1.5
      vertex -14 0 1.5
    endloop
  endfacet
  facet normal 0 0 1
    outer loop
      vertex 0.309016 -14.0489 1.5
      vertex -4.63525 -14.2658 1.5
      vertex -0.809016 -14.4122 1.5
    endloop
  endfacet
  facet normal 0 0 1
    outer loop
      vertex -14 0 1.5
      vertex -10.037 11.1472 1.5
      vertex -12.1353 8.81678 1.5
    endloop
  endfacet
  facet normal 0 -0 1
    outer loop
      vertex -4.63525 -14.2658 1.5
      vertex 0.309016 -14.0489 1.5
      vertex -7.5 -12.9904 1.5
    endloop
  endfacet
  facet normal 0 0 1
    outer loop
      vertex -14 0 1.5
      vertex -12.1353 8.81678 1.5
      vertex -13.7032 6.10105 1.5
    endloop
  endfacet
  facet normal 0 0 1
    outer loop
      vertex -10.037 -11.1472 1.5
      vertex -14 0 1.5
      vertex -12.1353 -8.81678 1.5
    endloop
  endfacet
  facet normal 0 0 1
    outer loop
      vertex -12.1353 -8.81678 1.5
      vertex -14 0 1.5
      vertex -13.7032 -6.10105 1.5
    endloop
  endfacet
  facet normal -0 0 1
    outer loop
      vertex -14.6722 3.11868 1.5
      vertex -14 0 1.5
      vertex -13.7032 6.10105 1.5
    endloop
  endfacet
  facet normal 0 0 1
    outer loop
      vertex -14.6722 3.11868 1.5
      vertex -14.691 0.951056 1.5
      vertex -14 0 1.5
    endloop
  endfacet
  facet normal 0 -0 1
    outer loop
      vertex -14.691 0.951056 1.5
      vertex -14.6722 3.11868 1.5
      vertex -14.9074 0.880728 1.5
    endloop
  endfacet
  facet normal 0 0 1
    outer loop
      vertex -14 0 1.5
      vertex -14.6722 -3.11868 1.5
      vertex -13.7032 -6.10105 1.5
    endloop
  endfacet
  facet normal -0 0 1
    outer loop
      vertex -14.691 -0.951056 1.5
      vertex -14.6722 -3.11868 1.5
      vertex -14 0 1.5
    endloop
  endfacet
  facet normal 0 0 1
    outer loop
      vertex -14.6722 -3.11868 1.5
      vertex -14.691 -0.951056 1.5
      vertex -14.9074 -0.880728 1.5
    endloop
  endfacet
  facet normal -0.406718 0.913554 0
    outer loop
      vertex -4.63525 14.2658 -1.5
      vertex -7.5 12.9904 1.5
      vertex -4.63525 14.2658 1.5
    endloop
  endfacet
  facet normal -0.406718 0.913554 0
    outer loop
      vertex -7.5 12.9904 1.5
      vertex -4.63525 14.2658 -1.5
      vertex -7.5 12.9904 -1.5
    endloop
  endfacet
  facet normal 0.994523 -0.104515 0
    outer loop
      vertex 14.6722 -3.11868 1.5
      vertex 14.9135 -0.82256 -1.5
      vertex 14.9135 -0.82256 1.5
    endloop
  endfacet
  facet normal 0.994523 -0.104515 0
    outer loop
      vertex 14.9135 -0.82256 -1.5
      vertex 14.6722 -3.11868 1.5
      vertex 14.6722 -3.11868 -1.5
    endloop
  endfacet
  facet normal 0 0 -1
    outer loop
      vertex 14.6722 -3.11868 -1.5
      vertex 14.191 -0.587785 -1.5
      vertex 14.9135 -0.82256 -1.5
    endloop
  endfacet
  facet normal 0 0 -1
    outer loop
      vertex 12.1353 -8.81678 -1.5
      vertex 14.191 -0.587785 -1.5
      vertex 13.7032 -6.10105 -1.5
    endloop
  endfacet
  facet normal 0 0 -1
    outer loop
      vertex 13.7032 -6.10105 -1.5
      vertex 14.191 -0.587785 -1.5
      vertex 14.6722 -3.11868 -1.5
    endloop
  endfacet
  facet normal 0 0 -1
    outer loop
      vertex 14.191 0.587785 -1.5
      vertex 14.6722 3.11868 -1.5
      vertex 14.9135 0.82256 -1.5
    endloop
  endfacet
  facet normal 0 0 -1
    outer loop
      vertex 14.191 0.587785 -1.5
      vertex 13.7032 6.10105 -1.5
      vertex 14.6722 3.11868 -1.5
    endloop
  endfacet
  facet normal 0 0 -1
    outer loop
      vertex 0.309016 -14.0489 -1.5
      vertex 14.191 -0.587785 -1.5
      vertex 12.1353 -8.81678 -1.5
    endloop
  endfacet
  facet normal -0 0 -1
    outer loop
      vertex 14.191 -0.587785 -1.5
      vertex 0.309016 -14.0489 -1.5
      vertex 14.191 0.587785 -1.5
    endloop
  endfacet
  facet normal 0 0 -1
    outer loop
      vertex 0.309016 14.0489 -1.5
      vertex 14.191 0.587785 -1.5
      vertex 0.309016 -14.0489 -1.5
    endloop
  endfacet
  facet normal 0 0 -1
    outer loop
      vertex 0.309016 -14.0489 -1.5
      vertex 12.1353 -8.81678 -1.5
      vertex 10.037 -11.1472 -1.5
    endloop
  endfacet
  facet normal -0 -0 -1
    outer loop
      vertex 12.1353 8.81678 -1.5
      vertex 14.191 0.587785 -1.5
      vertex 0.309016 14.0489 -1.5
    endloop
  endfacet
  facet normal 0 0 -1
    outer loop
      vertex 0.309016 -14.0489 -1.5
      vertex 10.037 -11.1472 -1.5
      vertex 7.5 -12.9904 -1.5
    endloop
  endfacet
  facet normal 0 0 -1
    outer loop
      vertex 14.191 0.587785 -1.5
      vertex 12.1353 8.81678 -1.5
      vertex 13.7032 6.10105 -1.5
    endloop
  endfacet
  facet normal 0 0 -1
    outer loop
      vertex 0.309016 -14.0489 -1.5
      vertex 7.5 -12.9904 -1.5
      vertex 4.63525 -14.2658 -1.5
    endloop
  endfacet
  facet normal 0 0 -1
    outer loop
      vertex 12.1353 8.81678 -1.5
      vertex 0.309016 14.0489 -1.5
      vertex 10.037 11.1472 -1.5
    endloop
  endfacet
  facet normal 0 0 -1
    outer loop
      vertex 0.309016 -14.0489 -1.5
      vertex 4.63525 -14.2658 -1.5
      vertex 1.56793 -14.9178 -1.5
    endloop
  endfacet
  facet normal 0 0 -1
    outer loop
      vertex 10.037 11.1472 -1.5
      vertex 0.309016 14.0489 -1.5
      vertex 7.5 12.9904 -1.5
    endloop
  endfacet
  facet normal 0 0 -1
    outer loop
      vertex 0.309016 -14.0489 -1.5
      vertex 1.56793 -14.9178 -1.5
      vertex 0.940298 -14.9178 -1.5
    endloop
  endfacet
  facet normal 0 0 -1
    outer loop
      vertex 7.5 12.9904 -1.5
      vertex 0.309016 14.0489 -1.5
      vertex 4.63525 14.2658 -1.5
    endloop
  endfacet
  facet normal -0 0 -1
    outer loop
      vertex 4.63525 14.2658 -1.5
      vertex 0.309016 14.0489 -1.5
      vertex 1.56793 14.9178 -1.5
    endloop
  endfacet
  facet normal -0 0 -1
    outer loop
      vertex 1.56793 14.9178 -1.5
      vertex 0.309016 14.0489 -1.5
      vertex 0.940298 14.9178 -1.5
    endloop
  endfacet
  facet normal 0 0 -1
    outer loop
      vertex -4.63525 -14.2658 -1.5
      vertex 0.309016 -14.0489 -1.5
      vertex -0.809016 -14.4122 -1.5
    endloop
  endfacet
  facet normal 0 0 -1
    outer loop
      vertex 0.309016 -14.0489 -1.5
      vertex -14 0 -1.5
      vertex 0.309016 14.0489 -1.5
    endloop
  endfacet
  facet normal 0 0 -1
    outer loop
      vertex -1.56793 -14.9178 -1.5
      vertex -0.809016 -14.4122 -1.5
      vertex -0.809016 -14.9178 -1.5
    endloop
  endfacet
  facet normal 0 -0 -1
    outer loop
      vertex -10.037 11.1472 -1.5
      vertex 0.309016 14.0489 -1.5
      vertex -14 0 -1.5
    endloop
  endfacet
  facet normal -0 0 -1
    outer loop
      vertex -0.809016 -14.4122 -1.5
      vertex -1.56793 -14.9178 -1.5
      vertex -4.63525 -14.2658 -1.5
    endloop
  endfacet
  facet normal 0 -0 -1
    outer loop
      vertex -7.5 12.9904 -1.5
      vertex 0.309016 14.0489 -1.5
      vertex -10.037 11.1472 -1.5
    endloop
  endfacet
  facet normal -0 0 -1
    outer loop
      vertex 0.309016 -14.0489 -1.5
      vertex -4.63525 -14.2658 -1.5
      vertex -7.5 -12.9904 -1.5
    endloop
  endfacet
  facet normal 0 -0 -1
    outer loop
      vertex -1.56793 14.9178 -1.5
      vertex -0.809016 14.4122 -1.5
      vertex -4.63525 14.2658 -1.5
    endloop
  endfacet
  facet normal 0 0 -1
    outer loop
      vertex 0.309016 -14.0489 -1.5
      vertex -7.5 -12.9904 -1.5
      vertex -10.037 -11.1472 -1.5
    endloop
  endfacet
  facet normal 0 0 -1
    outer loop
      vertex -0.809016 14.4122 -1.5
      vertex -1.56793 14.9178 -1.5
      vertex -0.809016 14.9178 -1.5
    endloop
  endfacet
  facet normal 0 0 -1
    outer loop
      vertex 0.309016 -14.0489 -1.5
      vertex -10.037 -11.1472 -1.5
      vertex -14 0 -1.5
    endloop
  endfacet
  facet normal 0 0 -1
    outer loop
      vertex 0.309016 14.0489 -1.5
      vertex -4.63525 14.2658 -1.5
      vertex -0.809016 14.4122 -1.5
    endloop
  endfacet
  facet normal 0 0 -1
    outer loop
      vertex -14 0 -1.5
      vertex -10.037 -11.1472 -1.5
      vertex -12.1353 -8.81678 -1.5
    endloop
  endfacet
  facet normal 0 -0 -1
    outer loop
      vertex -4.63525 14.2658 -1.5
      vertex 0.309016 14.0489 -1.5
      vertex -7.5 12.9904 -1.5
    endloop
  endfacet
  facet normal 0 0 -1
    outer loop
      vertex -14 0 -1.5
      vertex -12.1353 -8.81678 -1.5
      vertex -13.7032 -6.10105 -1.5
    endloop
  endfacet
  facet normal 0 0 -1
    outer loop
      vertex -10.037 11.1472 -1.5
      vertex -14 0 -1.5
      vertex -12.1353 8.81678 -1.5
    endloop
  endfacet
  facet normal 0 0 -1
    outer loop
      vertex -12.1353 8.81678 -1.5
      vertex -14 0 -1.5
      vertex -13.7032 6.10105 -1.5
    endloop
  endfacet
  facet normal 0 0 -1
    outer loop
      vertex -14.6722 -3.11868 -1.5
      vertex -14 0 -1.5
      vertex -13.7032 -6.10105 -1.5
    endloop
  endfacet
  facet normal 0 0 -1
    outer loop
      vertex -14.6722 -3.11868 -1.5
      vertex -14.691 -0.951056 -1.5
      vertex -14 0 -1.5
    endloop
  endfacet
  facet normal -0 -0 -1
    outer loop
      vertex -14.691 -0.951056 -1.5
      vertex -14.6722 -3.11868 -1.5
      vertex -14.9074 -0.880728 -1.5
    endloop
  endfacet
  facet normal 0 0 -1
    outer loop
      vertex -14 0 -1.5
      vertex -14.6722 3.11868 -1.5
      vertex -13.7032 6.10105 -1.5
    endloop
  endfacet
  facet normal 0 0 -1
    outer loop
      vertex -14.691 0.951056 -1.5
      vertex -14.6722 3.11868 -1.5
      vertex -14 0 -1.5
    endloop
  endfacet
  facet normal 0 0 -1
    outer loop
      vertex -14.6722 3.11868 -1.5
      vertex -14.691 0.951056 -1.5
      vertex -14.9074 0.880728 -1.5
    endloop
  endfacet
  facet normal 0.207918 -0.978146 0
    outer loop
      vertex 1.56793 -14.9178 -1.5
      vertex 4.63525 -14.2658 1.5
      vertex 1.56793 -14.9178 1.5
    endloop
  endfacet
  facet normal 0.207918 -0.978146 0
    outer loop
      vertex 4.63525 -14.2658 1.5
      vertex 1.56793 -14.9178 -1.5
      vertex 4.63525 -14.2658 -1.5
    endloop
  endfacet
  facet normal 0.866029 -0.499993 0
    outer loop
      vertex 12.1353 -8.81678 1.5
      vertex 13.7032 -6.10105 -1.5
      vertex 13.7032 -6.10105 1.5
    endloop
  endfacet
  facet normal 0.866029 -0.499993 0
    outer loop
      vertex 13.7032 -6.10105 -1.5
      vertex 12.1353 -8.81678 1.5
      vertex 12.1353 -8.81678 -1.5
    endloop
  endfacet
  facet normal -0.587777 -0.809023 0
    outer loop
      vertex -10.037 -11.1472 -1.5
      vertex -7.5 -12.9904 1.5
      vertex -10.037 -11.1472 1.5
    endloop
  endfacet
  facet normal -0.587777 -0.809023 -0
    outer loop
      vertex -7.5 -12.9904 1.5
      vertex -10.037 -11.1472 -1.5
      vertex -7.5 -12.9904 -1.5
    endloop
  endfacet
  facet normal -0.866029 -0.499993 0
    outer loop
      vertex -12.1353 -8.81678 -1.5
      vertex -13.7032 -6.10105 1.5
      vertex -13.7032 -6.10105 -1.5
    endloop
  endfacet
  facet normal -0.866029 -0.499993 0
    outer loop
      vertex -13.7032 -6.10105 1.5
      vertex -12.1353 -8.81678 -1.5
      vertex -12.1353 -8.81678 1.5
    endloop
  endfacet
  facet normal -0.743148 -0.669127 0
    outer loop
      vertex -10.037 -11.1472 -1.5
      vertex -12.1353 -8.81678 1.5
      vertex -12.1353 -8.81678 -1.5
    endloop
  endfacet
  facet normal -0.743148 -0.669127 0
    outer loop
      vertex -12.1353 -8.81678 1.5
      vertex -10.037 -11.1472 -1.5
      vertex -10.037 -11.1472 1.5
    endloop
  endfacet
  facet normal -0.994523 -0.10452 0
    outer loop
      vertex -14.6722 -3.11868 -1.5
      vertex -14.9074 -0.880728 1.5
      vertex -14.9074 -0.880728 -1.5
    endloop
  endfacet
  facet normal -0.994523 -0.10452 0
    outer loop
      vertex -14.9074 -0.880728 1.5
      vertex -14.6722 -3.11868 -1.5
      vertex -14.6722 -3.11868 1.5
    endloop
  endfacet
  facet normal 0.587777 -0.809023 0
    outer loop
      vertex 7.5 -12.9904 -1.5
      vertex 10.037 -11.1472 1.5
      vertex 7.5 -12.9904 1.5
    endloop
  endfacet
  facet normal 0.587777 -0.809023 0
    outer loop
      vertex 10.037 -11.1472 1.5
      vertex 7.5 -12.9904 -1.5
      vertex 10.037 -11.1472 -1.5
    endloop
  endfacet
  facet normal 0.406718 -0.913554 0
    outer loop
      vertex 4.63525 -14.2658 -1.5
      vertex 7.5 -12.9904 1.5
      vertex 4.63525 -14.2658 1.5
    endloop
  endfacet
  facet normal 0.406718 -0.913554 0
    outer loop
      vertex 7.5 -12.9904 1.5
      vertex 4.63525 -14.2658 -1.5
      vertex 7.5 -12.9904 -1.5
    endloop
  endfacet
  facet normal 0.951059 -0.309008 0
    outer loop
      vertex 13.7032 -6.10105 1.5
      vertex 14.6722 -3.11868 -1.5
      vertex 14.6722 -3.11868 1.5
    endloop
  endfacet
  facet normal 0.951059 -0.309008 0
    outer loop
      vertex 14.6722 -3.11868 -1.5
      vertex 13.7032 -6.10105 1.5
      vertex 13.7032 -6.10105 -1.5
    endloop
  endfacet
  facet normal -0.207918 -0.978146 0
    outer loop
      vertex -4.63525 -14.2658 -1.5
      vertex -1.56793 -14.9178 1.5
      vertex -4.63525 -14.2658 1.5
    endloop
  endfacet
  facet normal -0.207918 -0.978146 -0
    outer loop
      vertex -1.56793 -14.9178 1.5
      vertex -4.63525 -14.2658 -1.5
      vertex -1.56793 -14.9178 -1.5
    endloop
  endfacet
  facet normal -0.951059 -0.309008 0
    outer loop
      vertex -13.7032 -6.10105 -1.5
      vertex -14.6722 -3.11868 1.5
      vertex -14.6722 -3.11868 -1.5
    endloop
  endfacet
  facet normal -0.951059 -0.309008 0
    outer loop
      vertex -14.6722 -3.11868 1.5
      vertex -13.7032 -6.10105 -1.5
      vertex -13.7032 -6.10105 1.5
    endloop
  endfacet
  facet normal 0.743148 -0.669127 0
    outer loop
      vertex 10.037 -11.1472 1.5
      vertex 12.1353 -8.81678 -1.5
      vertex 12.1353 -8.81678 1.5
    endloop
  endfacet
  facet normal 0.743148 -0.669127 0
    outer loop
      vertex 12.1353 -8.81678 -1.5
      vertex 10.037 -11.1472 1.5
      vertex 10.037 -11.1472 -1.5
    endloop
  endfacet
  facet normal -0.406718 -0.913554 0
    outer loop
      vertex -7.5 -12.9904 -1.5
      vertex -4.63525 -14.2658 1.5
      vertex -7.5 -12.9904 1.5
    endloop
  endfacet
  facet normal -0.406718 -0.913554 -0
    outer loop
      vertex -4.63525 -14.2658 1.5
      vertex -7.5 -12.9904 -1.5
      vertex -4.63525 -14.2658 -1.5
    endloop
  endfacet
endsolid OpenSCAD_Model
