solid OpenSCAD_Model
  facet normal -1 0 0
    outer loop
      vertex 0 2 0
      vertex 0 0 0
      vertex 0 2 5
    endloop
  endfacet
  facet normal -1 0 0
    outer loop
      vertex 0 2 5
      vertex 0 10 15
      vertex 0 10 5
    endloop
  endfacet
  facet normal -1 0 0
    outer loop
      vertex 0 2 5
      vertex 0 0 15
      vertex 0 10 15
    endloop
  endfacet
  facet normal -1 0 0
    outer loop
      vertex 0 0 15
      vertex 0 2 5
      vertex 0 0 0
    endloop
  endfacet
  facet normal 0 0 -1
    outer loop
      vertex 2 2 5
      vertex 30 0 5
      vertex 2 0 5
    endloop
  endfacet
  facet normal 0 0 -1
    outer loop
      vertex 30 0 5
      vertex 2 2 5
      vertex 30 10 5
    endloop
  endfacet
  facet normal 0 0 -1
    outer loop
      vertex 0 10 5
      vertex 2 2 5
      vertex 0 2 5
    endloop
  endfacet
  facet normal 0 0 -1
    outer loop
      vertex 2 2 5
      vertex 0 10 5
      vertex 30 10 5
    endloop
  endfacet
  facet normal 1 -0 0
    outer loop
      vertex 2 0 5
      vertex 2 2 0
      vertex 2 2 5
    endloop
  endfacet
  facet normal 1 0 0
    outer loop
      vertex 2 2 0
      vertex 2 0 5
      vertex 2 0 0
    endloop
  endfacet
  facet normal 0 1 -0
    outer loop
      vertex 2 2 0
      vertex 0 2 5
      vertex 2 2 5
    endloop
  endfacet
  facet normal 0 1 0
    outer loop
      vertex 0 2 5
      vertex 2 2 0
      vertex 0 2 0
    endloop
  endfacet
  facet normal 0 0 -1
    outer loop
      vertex 0 0 0
      vertex 2 2 0
      vertex 2 0 0
    endloop
  endfacet
  facet normal -0 0 -1
    outer loop
      vertex 2 2 0
      vertex 0 0 0
      vertex 0 2 0
    endloop
  endfacet
  facet normal 0 -1 0
    outer loop
      vertex 0 0 15
      vertex 2 0 5
      vertex 30 0 15
    endloop
  endfacet
  facet normal 0 -1 0
    outer loop
      vertex 0 0 0
      vertex 2 0 5
      vertex 0 0 15
    endloop
  endfacet
  facet normal 0 -1 -0
    outer loop
      vertex 2 0 5
      vertex 0 0 0
      vertex 2 0 0
    endloop
  endfacet
  facet normal 0 -1 -0
    outer loop
      vertex 30 0 15
      vertex 2 0 5
      vertex 30 0 5
    endloop
  endfacet
  facet normal -0 0 1
    outer loop
      vertex 0.5 10 15
      vertex 29.5 9.5 15
      vertex 29.5 10 15
    endloop
  endfacet
  facet normal 0 0 1
    outer loop
      vertex 0.5 10 15
      vertex 0.5 9.5 15
      vertex 29.5 9.5 15
    endloop
  endfacet
  facet normal -0 0 1
    outer loop
      vertex 0 10 15
      vertex 0.5 9.5 15
      vertex 0.5 10 15
    endloop
  endfacet
  facet normal 0 0 1
    outer loop
      vertex 0.5 9.5 15
      vertex 0 10 15
      vertex 0.5 0.5 15
    endloop
  endfacet
  facet normal 0 0 1
    outer loop
      vertex 29.5 9.5 15
      vertex 30 10 15
      vertex 29.5 10 15
    endloop
  endfacet
  facet normal 0 0 1
    outer loop
      vertex 30 10 15
      vertex 29.5 9.5 15
      vertex 30 0 15
    endloop
  endfacet
  facet normal -0 0 1
    outer loop
      vertex 29.5 0.5 15
      vertex 30 0 15
      vertex 29.5 9.5 15
    endloop
  endfacet
  facet normal -0 0 1
    outer loop
      vertex 0.5 0.5 15
      vertex 30 0 15
      vertex 29.5 0.5 15
    endloop
  endfacet
  facet normal 0 0 1
    outer loop
      vertex 0.5 0.5 15
      vertex 0 0 15
      vertex 30 0 15
    endloop
  endfacet
  facet normal 0 0 1
    outer loop
      vertex 0 0 15
      vertex 0.5 0.5 15
      vertex 0 10 15
    endloop
  endfacet
  facet normal 1 -0 0
    outer loop
      vertex 30 0 15
      vertex 30 10 5
      vertex 30 10 15
    endloop
  endfacet
  facet normal 1 0 0
    outer loop
      vertex 30 10 5
      vertex 30 0 15
      vertex 30 0 5
    endloop
  endfacet
  facet normal 0 1 -0
    outer loop
      vertex 30 10 5
      vertex 29.5 10 15
      vertex 30 10 15
    endloop
  endfacet
  facet normal 0 1 0
    outer loop
      vertex 29.5 10 15
      vertex 30 10 5
      vertex 0.5 10 15
    endloop
  endfacet
  facet normal 0 1 0
    outer loop
      vertex 0 10 5
      vertex 0.5 10 15
      vertex 30 10 5
    endloop
  endfacet
  facet normal 0 1 0
    outer loop
      vertex 0.5 10 15
      vertex 0 10 5
      vertex 0 10 15
    endloop
  endfacet
  facet normal -1 0 0
    outer loop
      vertex 0 -1 15
      vertex 0 0 30
      vertex 0 0 15
    endloop
  endfacet
  facet normal -1 -0 0
    outer loop
      vertex 0 0 30
      vertex 0 -1 15
      vertex 0 -1 30
    endloop
  endfacet
  facet normal -0 0 1
    outer loop
      vertex 0 0 30
      vertex 30 -1 30
      vertex 30 0 30
    endloop
  endfacet
  facet normal 0 0 1
    outer loop
      vertex 30 -1 30
      vertex 0 0 30
      vertex 0 -1 30
    endloop
  endfacet
  facet normal 1 -0 0
    outer loop
      vertex 30 -1 30
      vertex 30 0 15
      vertex 30 0 30
    endloop
  endfacet
  facet normal 1 0 0
    outer loop
      vertex 30 0 15
      vertex 30 -1 30
      vertex 30 -1 15
    endloop
  endfacet
  facet normal 0 1 -0
    outer loop
      vertex 30 0 15
      vertex 0 0 30
      vertex 30 0 30
    endloop
  endfacet
  facet normal 0 1 0
    outer loop
      vertex 0 0 30
      vertex 30 0 15
      vertex 0 0 15
    endloop
  endfacet
  facet normal 0 0 -1
    outer loop
      vertex 0 -1 15
      vertex 30 0 15
      vertex 30 -1 15
    endloop
  endfacet
  facet normal -0 0 -1
    outer loop
      vertex 30 0 15
      vertex 0 -1 15
      vertex 0 0 15
    endloop
  endfacet
  facet normal 0 -1 0
    outer loop
      vertex 0 -1 15
      vertex 30 -1 30
      vertex 0 -1 30
    endloop
  endfacet
  facet normal 0 -1 -0
    outer loop
      vertex 30 -1 30
      vertex 0 -1 15
      vertex 30 -1 15
    endloop
  endfacet
  facet normal -1 0 0
    outer loop
      vertex 0.5 0.5 15
      vertex 0.5 9.5 15.5
      vertex 0.5 9.5 15
    endloop
  endfacet
  facet normal -1 -0 0
    outer loop
      vertex 0.5 9.5 15.5
      vertex 0.5 0.5 15
      vertex 0.5 0.5 15.5
    endloop
  endfacet
  facet normal -0 0 1
    outer loop
      vertex 0.5 9.5 15.5
      vertex 29.5 0.5 15.5
      vertex 29.5 9.5 15.5
    endloop
  endfacet
  facet normal 0 0 1
    outer loop
      vertex 29.5 0.5 15.5
      vertex 0.5 9.5 15.5
      vertex 0.5 0.5 15.5
    endloop
  endfacet
  facet normal 1 -0 0
    outer loop
      vertex 29.5 0.5 15.5
      vertex 29.5 9.5 15
      vertex 29.5 9.5 15.5
    endloop
  endfacet
  facet normal 1 0 0
    outer loop
      vertex 29.5 9.5 15
      vertex 29.5 0.5 15.5
      vertex 29.5 0.5 15
    endloop
  endfacet
  facet normal 0 -1 0
    outer loop
      vertex 0.5 0.5 15
      vertex 29.5 0.5 15.5
      vertex 0.5 0.5 15.5
    endloop
  endfacet
  facet normal 0 -1 -0
    outer loop
      vertex 29.5 0.5 15.5
      vertex 0.5 0.5 15
      vertex 29.5 0.5 15
    endloop
  endfacet
  facet normal 0 1 -0
    outer loop
      vertex 29.5 9.5 15
      vertex 0.5 9.5 15.5
      vertex 29.5 9.5 15.5
    endloop
  endfacet
  facet normal 0 1 0
    outer loop
      vertex 0.5 9.5 15.5
      vertex 29.5 9.5 15
      vertex 0.5 9.5 15
    endloop
  endfacet
  facet normal -1 0 0
    outer loop
      vertex 0.5 10 15
      vertex 0.5 11 29
      vertex 0.5 11 15
    endloop
  endfacet
  facet normal -1 -0 0
    outer loop
      vertex 0.5 11 29
      vertex 0.5 10 15
      vertex 0.5 10 29
    endloop
  endfacet
  facet normal -0 0 1
    outer loop
      vertex 0.5 11 29
      vertex 29.5 10 29
      vertex 29.5 11 29
    endloop
  endfacet
  facet normal 0 0 1
    outer loop
      vertex 29.5 10 29
      vertex 0.5 11 29
      vertex 0.5 10 29
    endloop
  endfacet
  facet normal 1 -0 0
    outer loop
      vertex 29.5 10 29
      vertex 29.5 11 15
      vertex 29.5 11 29
    endloop
  endfacet
  facet normal 1 0 0
    outer loop
      vertex 29.5 11 15
      vertex 29.5 10 29
      vertex 29.5 10 15
    endloop
  endfacet
  facet normal 0 1 -0
    outer loop
      vertex 29.5 11 15
      vertex 0.5 11 29
      vertex 29.5 11 29
    endloop
  endfacet
  facet normal 0 1 0
    outer loop
      vertex 0.5 11 29
      vertex 29.5 11 15
      vertex 0.5 11 15
    endloop
  endfacet
  facet normal 0 0 -1
    outer loop
      vertex 0.5 10 15
      vertex 29.5 11 15
      vertex 29.5 10 15
    endloop
  endfacet
  facet normal -0 0 -1
    outer loop
      vertex 29.5 11 15
      vertex 0.5 10 15
      vertex 0.5 11 15
    endloop
  endfacet
  facet normal 0 -1 0
    outer loop
      vertex 0.5 10 15
      vertex 29.5 10 29
      vertex 0.5 10 29
    endloop
  endfacet
  facet normal 0 -1 -0
    outer loop
      vertex 29.5 10 29
      vertex 0.5 10 15
      vertex 29.5 10 15
    endloop
  endfacet
endsolid OpenSCAD_Model
