solid OpenSCAD_Model
  facet normal -1 0 0
    outer loop
      vertex 0 0 0
      vertex 0 15 15
      vertex 0 15 0
    endloop
  endfacet
  facet normal -1 -0 0
    outer loop
      vertex 0 15 15
      vertex 0 0 0
      vertex 0 0 15
    endloop
  endfacet
  facet normal -0 0 1
    outer loop
      vertex 2 1 5
      vertex 28 0 5
      vertex 28 1 5
    endloop
  endfacet
  facet normal 0 0 1
    outer loop
      vertex 28 0 5
      vertex 2 1 5
      vertex 2 0 5
    endloop
  endfacet
  facet normal 0 0 -1
    outer loop
      vertex 28 1 5
      vertex 29 14 5
      vertex 29 1 5
    endloop
  endfacet
  facet normal 0 0 -1
    outer loop
      vertex 2 1 5
      vertex 29 14 5
      vertex 28 1 5
    endloop
  endfacet
  facet normal 0 0 -1
    outer loop
      vertex 1 14 5
      vertex 2 1 5
      vertex 1 1 5
    endloop
  endfacet
  facet normal 0 0 -1
    outer loop
      vertex 2 1 5
      vertex 1 14 5
      vertex 29 14 5
    endloop
  endfacet
  facet normal 1 -0 0
    outer loop
      vertex 30 0 15
      vertex 30 15 0
      vertex 30 15 15
    endloop
  endfacet
  facet normal 1 0 0
    outer loop
      vertex 30 15 0
      vertex 30 0 15
      vertex 30 0 0
    endloop
  endfacet
  facet normal 0 0 -1
    outer loop
      vertex 30 0 0
      vertex 29 1 0
      vertex 30 15 0
    endloop
  endfacet
  facet normal 0 0 -1
    outer loop
      vertex 30 0 0
      vertex 1 1 0
      vertex 29 1 0
    endloop
  endfacet
  facet normal -0 0 -1
    outer loop
      vertex 1 1 0
      vertex 0 0 0
      vertex 1 14 0
    endloop
  endfacet
  facet normal 0 0 -1
    outer loop
      vertex 0 0 0
      vertex 1 1 0
      vertex 30 0 0
    endloop
  endfacet
  facet normal 0 0 -1
    outer loop
      vertex 29 14 0
      vertex 30 15 0
      vertex 29 1 0
    endloop
  endfacet
  facet normal 0 0 -1
    outer loop
      vertex 1 14 0
      vertex 30 15 0
      vertex 29 14 0
    endloop
  endfacet
  facet normal 0 0 -1
    outer loop
      vertex 1 14 0
      vertex 0 15 0
      vertex 30 15 0
    endloop
  endfacet
  facet normal 0 0 -1
    outer loop
      vertex 0 15 0
      vertex 1 14 0
      vertex 0 0 0
    endloop
  endfacet
  facet normal 0 -1 0
    outer loop
      vertex 0 0 15
      vertex 2 0 5
      vertex 2 0 15
    endloop
  endfacet
  facet normal 0 -1 -0
    outer loop
      vertex 2 0 5
      vertex 0 0 0
      vertex 28 0 5
    endloop
  endfacet
  facet normal 0 -1 0
    outer loop
      vertex 0 0 0
      vertex 2 0 5
      vertex 0 0 15
    endloop
  endfacet
  facet normal 0 -1 0
    outer loop
      vertex 28 0 5
      vertex 30 0 15
      vertex 28 0 15
    endloop
  endfacet
  facet normal 0 -1 0
    outer loop
      vertex 28 0 5
      vertex 30 0 0
      vertex 30 0 15
    endloop
  endfacet
  facet normal 0 -1 0
    outer loop
      vertex 30 0 0
      vertex 28 0 5
      vertex 0 0 0
    endloop
  endfacet
  facet normal 0 1 -0
    outer loop
      vertex 30 15 0
      vertex 0 15 15
      vertex 30 15 15
    endloop
  endfacet
  facet normal 0 1 0
    outer loop
      vertex 0 15 15
      vertex 30 15 0
      vertex 0 15 0
    endloop
  endfacet
  facet normal 1 -0 0
    outer loop
      vertex 1 1 5
      vertex 1 14 0
      vertex 1 14 5
    endloop
  endfacet
  facet normal 1 0 0
    outer loop
      vertex 1 14 0
      vertex 1 1 5
      vertex 1 1 0
    endloop
  endfacet
  facet normal -1 0 0
    outer loop
      vertex 29 1 0
      vertex 29 14 5
      vertex 29 14 0
    endloop
  endfacet
  facet normal -1 -0 0
    outer loop
      vertex 29 14 5
      vertex 29 1 0
      vertex 29 1 5
    endloop
  endfacet
  facet normal 0 -1 0
    outer loop
      vertex 1 14 0
      vertex 29 14 5
      vertex 1 14 5
    endloop
  endfacet
  facet normal 0 -1 -0
    outer loop
      vertex 29 14 5
      vertex 1 14 0
      vertex 29 14 0
    endloop
  endfacet
  facet normal 0 1 -0
    outer loop
      vertex 29 1 0
      vertex 28 1 5
      vertex 29 1 5
    endloop
  endfacet
  facet normal 0 1 0
    outer loop
      vertex 28 1 5
      vertex 29 1 0
      vertex 2 1 5
    endloop
  endfacet
  facet normal 0 1 0
    outer loop
      vertex 1 1 0
      vertex 2 1 5
      vertex 29 1 0
    endloop
  endfacet
  facet normal 0 1 0
    outer loop
      vertex 2 1 5
      vertex 1 1 0
      vertex 1 1 5
    endloop
  endfacet
  facet normal -0 0 1
    outer loop
      vertex 2 13 8
      vertex 28 1 8
      vertex 28 13 8
    endloop
  endfacet
  facet normal 0 0 1
    outer loop
      vertex 28 1 8
      vertex 2 13 8
      vertex 2 1 8
    endloop
  endfacet
  facet normal 0 -1 0
    outer loop
      vertex 2 1 5
      vertex 28 1 8
      vertex 2 1 8
    endloop
  endfacet
  facet normal 0 -1 -0
    outer loop
      vertex 28 1 8
      vertex 2 1 5
      vertex 28 1 5
    endloop
  endfacet
  facet normal 0 0 1
    outer loop
      vertex 30 15 15
      vertex 28 13 15
      vertex 30 0 15
    endloop
  endfacet
  facet normal 0 0 1
    outer loop
      vertex 30 15 15
      vertex 2 13 15
      vertex 28 13 15
    endloop
  endfacet
  facet normal -0 0 1
    outer loop
      vertex 0 15 15
      vertex 2 13 15
      vertex 30 15 15
    endloop
  endfacet
  facet normal 0 0 1
    outer loop
      vertex 0 0 15
      vertex 2 13 15
      vertex 0 15 15
    endloop
  endfacet
  facet normal 0 0 1
    outer loop
      vertex 2 13 15
      vertex 0 0 15
      vertex 2 0 15
    endloop
  endfacet
  facet normal 0 0 1
    outer loop
      vertex 30 0 15
      vertex 28 13 15
      vertex 28 0 15
    endloop
  endfacet
  facet normal 0 -1 0
    outer loop
      vertex 2 13 8
      vertex 28 13 15
      vertex 2 13 15
    endloop
  endfacet
  facet normal 0 -1 -0
    outer loop
      vertex 28 13 15
      vertex 2 13 8
      vertex 28 13 8
    endloop
  endfacet
  facet normal 1 0 0
    outer loop
      vertex 2 13 15
      vertex 2 1 8
      vertex 2 13 8
    endloop
  endfacet
  facet normal 1 -0 0
    outer loop
      vertex 2 0 15
      vertex 2 1 8
      vertex 2 13 15
    endloop
  endfacet
  facet normal 1 0 0
    outer loop
      vertex 2 0 5
      vertex 2 1 8
      vertex 2 0 15
    endloop
  endfacet
  facet normal 1 0 0
    outer loop
      vertex 2 1 8
      vertex 2 0 5
      vertex 2 1 5
    endloop
  endfacet
  facet normal -1 0 0
    outer loop
      vertex 28 1 5
      vertex 28 0 5
      vertex 28 1 8
    endloop
  endfacet
  facet normal -1 0 0
    outer loop
      vertex 28 1 8
      vertex 28 13 15
      vertex 28 13 8
    endloop
  endfacet
  facet normal -1 0 0
    outer loop
      vertex 28 1 8
      vertex 28 0 15
      vertex 28 13 15
    endloop
  endfacet
  facet normal -1 0 0
    outer loop
      vertex 28 0 15
      vertex 28 1 8
      vertex 28 0 5
    endloop
  endfacet
endsolid OpenSCAD_Model
