solid OpenSCAD_Model
  facet normal -1 0 0
    outer loop
      vertex 0 0 0
      vertex 0 10 5
      vertex 0 10 0
    endloop
  endfacet
  facet normal -1 -0 0
    outer loop
      vertex 0 10 5
      vertex 0 0 0
      vertex 0 0 5
    endloop
  endfacet
  facet normal -1 0 0
    outer loop
      vertex 0 0 20
      vertex 0 5 25
      vertex 0 5 20
    endloop
  endfacet
  facet normal -1 -0 0
    outer loop
      vertex 0 5 25
      vertex 0 0 20
      vertex 0 0 25
    endloop
  endfacet
  facet normal 0 0 -1
    outer loop
      vertex 30 0 5
      vertex 31 10 5
      vertex 31 0 5
    endloop
  endfacet
  facet normal -0 0 -1
    outer loop
      vertex 31 10 5
      vertex 30 0 5
      vertex 30 10 5
    endloop
  endfacet
  facet normal 0 0 -1
    outer loop
      vertex -1 0 5
      vertex 0 10 5
      vertex 0 0 5
    endloop
  endfacet
  facet normal -0 0 -1
    outer loop
      vertex 0 10 5
      vertex -1 0 5
      vertex -1 10 5
    endloop
  endfacet
  facet normal -0 0 1
    outer loop
      vertex 14 10 5
      vertex 16 5 5
      vertex 16 10 5
    endloop
  endfacet
  facet normal 0 0 1
    outer loop
      vertex 16 5 5
      vertex 14 10 5
      vertex 14 5 5
    endloop
  endfacet
  facet normal 1 -0 0
    outer loop
      vertex 30 0 5
      vertex 30 10 0
      vertex 30 10 5
    endloop
  endfacet
  facet normal 1 0 0
    outer loop
      vertex 30 10 0
      vertex 30 0 5
      vertex 30 0 0
    endloop
  endfacet
  facet normal 1 -0 0
    outer loop
      vertex 30 0 25
      vertex 30 5 20
      vertex 30 5 25
    endloop
  endfacet
  facet normal 1 0 0
    outer loop
      vertex 30 5 20
      vertex 30 0 25
      vertex 30 0 20
    endloop
  endfacet
  facet normal 0 1 0
    outer loop
      vertex 14 10 15
      vertex 14 10 5
      vertex 1 10 15
    endloop
  endfacet
  facet normal 0 1 -0
    outer loop
      vertex 1 10 15
      vertex -1 10 20
      vertex 1 10 20
    endloop
  endfacet
  facet normal 0 1 0
    outer loop
      vertex 0 10 5
      vertex 1 10 15
      vertex 14 10 5
    endloop
  endfacet
  facet normal 0 1 0
    outer loop
      vertex -1 10 5
      vertex 1 10 15
      vertex 0 10 5
    endloop
  endfacet
  facet normal 0 1 0
    outer loop
      vertex 1 10 15
      vertex -1 10 5
      vertex -1 10 20
    endloop
  endfacet
  facet normal 0 1 0
    outer loop
      vertex 31 10 20
      vertex 29 10 15
      vertex 29 10 20
    endloop
  endfacet
  facet normal 0 1 -0
    outer loop
      vertex 31 10 5
      vertex 29 10 15
      vertex 31 10 20
    endloop
  endfacet
  facet normal 0 1 -0
    outer loop
      vertex 30 10 5
      vertex 29 10 15
      vertex 31 10 5
    endloop
  endfacet
  facet normal 0 1 0
    outer loop
      vertex 16 10 5
      vertex 29 10 15
      vertex 30 10 5
    endloop
  endfacet
  facet normal 0 1 0
    outer loop
      vertex 29 10 15
      vertex 16 10 5
      vertex 16 10 15
    endloop
  endfacet
  facet normal 0 1 -0
    outer loop
      vertex 30 10 0
      vertex 16 10 5
      vertex 30 10 5
    endloop
  endfacet
  facet normal 0 1 0
    outer loop
      vertex 16 10 5
      vertex 30 10 0
      vertex 14 10 5
    endloop
  endfacet
  facet normal 0 1 0
    outer loop
      vertex 0 10 0
      vertex 14 10 5
      vertex 30 10 0
    endloop
  endfacet
  facet normal 0 1 0
    outer loop
      vertex 14 10 5
      vertex 0 10 0
      vertex 0 10 5
    endloop
  endfacet
  facet normal 0 0 -1
    outer loop
      vertex 0 0 0
      vertex 30 10 0
      vertex 30 0 0
    endloop
  endfacet
  facet normal -0 0 -1
    outer loop
      vertex 30 10 0
      vertex 0 0 0
      vertex 0 10 0
    endloop
  endfacet
  facet normal 0 -1 0
    outer loop
      vertex 0 0 0
      vertex 30 0 5
      vertex 0 0 5
    endloop
  endfacet
  facet normal 0 -1 -0
    outer loop
      vertex 30 0 5
      vertex 0 0 0
      vertex 30 0 0
    endloop
  endfacet
  facet normal 0 -1 0
    outer loop
      vertex 0 0 5
      vertex 0 0 20
      vertex -1 0 20
    endloop
  endfacet
  facet normal 0 -1 0
    outer loop
      vertex 0 0 20
      vertex 0 0 5
      vertex 30 0 20
    endloop
  endfacet
  facet normal 0 -1 0
    outer loop
      vertex 0 0 5
      vertex -1 0 20
      vertex -1 0 5
    endloop
  endfacet
  facet normal 0 -1 0
    outer loop
      vertex 30 0 5
      vertex 30 0 20
      vertex 0 0 5
    endloop
  endfacet
  facet normal 0 -1 0
    outer loop
      vertex 30 0 20
      vertex 30 0 5
      vertex 31 0 20
    endloop
  endfacet
  facet normal 0 -1 -0
    outer loop
      vertex 31 0 20
      vertex 30 0 5
      vertex 31 0 5
    endloop
  endfacet
  facet normal 0 -1 0
    outer loop
      vertex 0 0 20
      vertex 30 0 25
      vertex 0 0 25
    endloop
  endfacet
  facet normal 0 -1 -0
    outer loop
      vertex 30 0 25
      vertex 0 0 20
      vertex 30 0 20
    endloop
  endfacet
  facet normal -0 0 1
    outer loop
      vertex 0 5 25
      vertex 30 0 25
      vertex 30 5 25
    endloop
  endfacet
  facet normal 0 0 1
    outer loop
      vertex 30 0 25
      vertex 0 5 25
      vertex 0 0 25
    endloop
  endfacet
  facet normal 0 1 -0
    outer loop
      vertex 16 5 5
      vertex 14 5 15
      vertex 16 5 15
    endloop
  endfacet
  facet normal 0 1 0
    outer loop
      vertex 14 5 15
      vertex 16 5 5
      vertex 14 5 5
    endloop
  endfacet
  facet normal 0 1 0
    outer loop
      vertex 16 5 15
      vertex 29 5 20
      vertex 29 5 15
    endloop
  endfacet
  facet normal 0 1 0
    outer loop
      vertex 29 5 20
      vertex 16 5 15
      vertex 1 5 20
    endloop
  endfacet
  facet normal 0 1 -0
    outer loop
      vertex 14 5 15
      vertex 1 5 20
      vertex 16 5 15
    endloop
  endfacet
  facet normal 0 1 0
    outer loop
      vertex 1 5 20
      vertex 14 5 15
      vertex 1 5 15
    endloop
  endfacet
  facet normal 0 1 0
    outer loop
      vertex 29 5 20
      vertex 30 5 25
      vertex 30 5 20
    endloop
  endfacet
  facet normal 0 1 0
    outer loop
      vertex 30 5 25
      vertex 29 5 20
      vertex 0 5 25
    endloop
  endfacet
  facet normal 0 1 -0
    outer loop
      vertex 1 5 20
      vertex 0 5 25
      vertex 29 5 20
    endloop
  endfacet
  facet normal 0 1 0
    outer loop
      vertex 0 5 25
      vertex 1 5 20
      vertex 0 5 20
    endloop
  endfacet
  facet normal 1 -0 0
    outer loop
      vertex 1 5 20
      vertex 1 10 15
      vertex 1 10 20
    endloop
  endfacet
  facet normal 1 0 0
    outer loop
      vertex 1 10 15
      vertex 1 5 20
      vertex 1 5 15
    endloop
  endfacet
  facet normal -0 0 1
    outer loop
      vertex 1 10 15
      vertex 14 5 15
      vertex 14 10 15
    endloop
  endfacet
  facet normal 0 0 1
    outer loop
      vertex 14 5 15
      vertex 1 10 15
      vertex 1 5 15
    endloop
  endfacet
  facet normal 1 -0 0
    outer loop
      vertex 14 5 15
      vertex 14 10 5
      vertex 14 10 15
    endloop
  endfacet
  facet normal 1 0 0
    outer loop
      vertex 14 10 5
      vertex 14 5 15
      vertex 14 5 5
    endloop
  endfacet
  facet normal -1 0 0
    outer loop
      vertex 16 5 5
      vertex 16 10 15
      vertex 16 10 5
    endloop
  endfacet
  facet normal -1 -0 0
    outer loop
      vertex 16 10 15
      vertex 16 5 5
      vertex 16 5 15
    endloop
  endfacet
  facet normal -0 0 1
    outer loop
      vertex 16 10 15
      vertex 29 5 15
      vertex 29 10 15
    endloop
  endfacet
  facet normal 0 0 1
    outer loop
      vertex 29 5 15
      vertex 16 10 15
      vertex 16 5 15
    endloop
  endfacet
  facet normal -1 0 0
    outer loop
      vertex 29 5 15
      vertex 29 10 20
      vertex 29 10 15
    endloop
  endfacet
  facet normal -1 -0 0
    outer loop
      vertex 29 10 20
      vertex 29 5 15
      vertex 29 5 20
    endloop
  endfacet
  facet normal -1 0 0
    outer loop
      vertex -1 0 5
      vertex -1 10 20
      vertex -1 10 5
    endloop
  endfacet
  facet normal -1 -0 0
    outer loop
      vertex -1 10 20
      vertex -1 0 5
      vertex -1 0 20
    endloop
  endfacet
  facet normal 0 0 1
    outer loop
      vertex 1 10 20
      vertex 0 5 20
      vertex 1 5 20
    endloop
  endfacet
  facet normal -0 0 1
    outer loop
      vertex -1 10 20
      vertex 0 5 20
      vertex 1 10 20
    endloop
  endfacet
  facet normal 0 0 1
    outer loop
      vertex -1 0 20
      vertex 0 5 20
      vertex -1 10 20
    endloop
  endfacet
  facet normal 0 0 1
    outer loop
      vertex 0 5 20
      vertex -1 0 20
      vertex 0 0 20
    endloop
  endfacet
  facet normal 0 0 1
    outer loop
      vertex 31 10 20
      vertex 30 5 20
      vertex 31 0 20
    endloop
  endfacet
  facet normal -0 0 1
    outer loop
      vertex 29 10 20
      vertex 30 5 20
      vertex 31 10 20
    endloop
  endfacet
  facet normal 0 0 1
    outer loop
      vertex 30 5 20
      vertex 29 10 20
      vertex 29 5 20
    endloop
  endfacet
  facet normal 0 0 1
    outer loop
      vertex 31 0 20
      vertex 30 5 20
      vertex 30 0 20
    endloop
  endfacet
  facet normal 1 -0 0
    outer loop
      vertex 31 0 20
      vertex 31 10 5
      vertex 31 10 20
    endloop
  endfacet
  facet normal 1 0 0
    outer loop
      vertex 31 10 5
      vertex 31 0 20
      vertex 31 0 5
    endloop
  endfacet
endsolid OpenSCAD_Model
