solid OpenSCAD_Model
  facet normal -1 0 0
    outer loop
      vertex 0 0 0
      vertex 0 10 5
      vertex 0 10 0
    endloop
  endfacet
  facet normal -1 -0 0
    outer loop
      vertex 0 10 5
      vertex 0 0 0
      vertex 0 0 5
    endloop
  endfacet
  facet normal 0 0 1
    outer loop
      vertex 28 10 5
      vertex 23 9.5 5
      vertex 28 9.5 5
    endloop
  endfacet
  facet normal 0 0 1
    outer loop
      vertex 23 9.5 5
      vertex 22 9.5 5
      vertex 23 2 5
    endloop
  endfacet
  facet normal 0 0 1
    outer loop
      vertex 28 10 5
      vertex 22 9.5 5
      vertex 23 9.5 5
    endloop
  endfacet
  facet normal 0 0 1
    outer loop
      vertex 28 10 5
      vertex 13 9.5 5
      vertex 22 9.5 5
    endloop
  endfacet
  facet normal 0 0 1
    outer loop
      vertex 13 9.5 5
      vertex 12 9.5 5
      vertex 13 2 5
    endloop
  endfacet
  facet normal -0 0 1
    outer loop
      vertex 2 10 5
      vertex 13 9.5 5
      vertex 28 10 5
    endloop
  endfacet
  facet normal 0 0 1
    outer loop
      vertex 13 9.5 5
      vertex 2 10 5
      vertex 12 9.5 5
    endloop
  endfacet
  facet normal 0 0 1
    outer loop
      vertex 12 9.5 5
      vertex 2 10 5
      vertex 3 9.5 5
    endloop
  endfacet
  facet normal 0 0 1
    outer loop
      vertex 2 2 5
      vertex 3 9.5 5
      vertex 2 10 5
    endloop
  endfacet
  facet normal 0 0 1
    outer loop
      vertex 3 9.5 5
      vertex 2 2 5
      vertex 3 2 5
    endloop
  endfacet
  facet normal 0 0 1
    outer loop
      vertex 23 2 5
      vertex 22 9.5 5
      vertex 22 2 5
    endloop
  endfacet
  facet normal 0 0 1
    outer loop
      vertex 13 2 5
      vertex 12 9.5 5
      vertex 12 2 5
    endloop
  endfacet
  facet normal 0 0 -1
    outer loop
      vertex 0 -1 5
      vertex 30 0 5
      vertex 30 -1 5
    endloop
  endfacet
  facet normal -0 0 -1
    outer loop
      vertex 30 0 5
      vertex 0 -1 5
      vertex 0 0 5
    endloop
  endfacet
  facet normal 0 0 -1
    outer loop
      vertex 30 0 5
      vertex 31 10 5
      vertex 31 0 5
    endloop
  endfacet
  facet normal -0 0 -1
    outer loop
      vertex 31 10 5
      vertex 30 0 5
      vertex 30 10 5
    endloop
  endfacet
  facet normal 0 0 -1
    outer loop
      vertex -1 0 5
      vertex 0 10 5
      vertex 0 0 5
    endloop
  endfacet
  facet normal -0 0 -1
    outer loop
      vertex 0 10 5
      vertex -1 0 5
      vertex -1 10 5
    endloop
  endfacet
  facet normal 1 -0 0
    outer loop
      vertex 30 0 5
      vertex 30 10 0
      vertex 30 10 5
    endloop
  endfacet
  facet normal 1 0 0
    outer loop
      vertex 30 10 0
      vertex 30 0 5
      vertex 30 0 0
    endloop
  endfacet
  facet normal 0 1 0
    outer loop
      vertex 0 10 5
      vertex 2 10 15
      vertex 2 10 5
    endloop
  endfacet
  facet normal 0 1 0
    outer loop
      vertex 2 10 15
      vertex 0 10 5
      vertex -1 10 15
    endloop
  endfacet
  facet normal 0 1 0
    outer loop
      vertex -1 10 15
      vertex 0 10 5
      vertex -1 10 5
    endloop
  endfacet
  facet normal 0 1 0
    outer loop
      vertex 30 10 5
      vertex 31 10 15
      vertex 31 10 5
    endloop
  endfacet
  facet normal 0 1 0
    outer loop
      vertex 31 10 15
      vertex 30 10 5
      vertex 28 10 15
    endloop
  endfacet
  facet normal 0 1 0
    outer loop
      vertex 30 10 5
      vertex 28 10 5
      vertex 28 10 15
    endloop
  endfacet
  facet normal 0 1 -0
    outer loop
      vertex 30 10 0
      vertex 28 10 5
      vertex 30 10 5
    endloop
  endfacet
  facet normal 0 1 0
    outer loop
      vertex 28 10 5
      vertex 30 10 0
      vertex 2 10 5
    endloop
  endfacet
  facet normal 0 1 0
    outer loop
      vertex 0 10 0
      vertex 2 10 5
      vertex 30 10 0
    endloop
  endfacet
  facet normal 0 1 0
    outer loop
      vertex 2 10 5
      vertex 0 10 0
      vertex 0 10 5
    endloop
  endfacet
  facet normal 0 0 -1
    outer loop
      vertex 0 0 0
      vertex 30 10 0
      vertex 30 0 0
    endloop
  endfacet
  facet normal -0 0 -1
    outer loop
      vertex 30 10 0
      vertex 0 0 0
      vertex 0 10 0
    endloop
  endfacet
  facet normal 0 -1 0
    outer loop
      vertex 0 0 0
      vertex 30 0 5
      vertex 0 0 5
    endloop
  endfacet
  facet normal 0 -1 -0
    outer loop
      vertex 30 0 5
      vertex 0 0 0
      vertex 30 0 0
    endloop
  endfacet
  facet normal 0 -1 0
    outer loop
      vertex -1 0 5
      vertex 0 0 15
      vertex -1 0 15
    endloop
  endfacet
  facet normal 0 -1 -0
    outer loop
      vertex 0 0 15
      vertex -1 0 5
      vertex 0 0 5
    endloop
  endfacet
  facet normal -1 0 0
    outer loop
      vertex 0 -1 5
      vertex 0 0 15
      vertex 0 0 5
    endloop
  endfacet
  facet normal -1 -0 0
    outer loop
      vertex 0 0 15
      vertex 0 -1 5
      vertex 0 -1 15
    endloop
  endfacet
  facet normal -0 0 1
    outer loop
      vertex -1 10 15
      vertex 2 2 15
      vertex 2 10 15
    endloop
  endfacet
  facet normal 0 0 1
    outer loop
      vertex -1 0 15
      vertex 2 2 15
      vertex -1 10 15
    endloop
  endfacet
  facet normal 0 0 1
    outer loop
      vertex 2 2 15
      vertex -1 0 15
      vertex 0 0 15
    endloop
  endfacet
  facet normal -0 0 1
    outer loop
      vertex 28 2 15
      vertex 31 0 15
      vertex 31 10 15
    endloop
  endfacet
  facet normal 0 0 1
    outer loop
      vertex 28 2 15
      vertex 31 10 15
      vertex 28 10 15
    endloop
  endfacet
  facet normal 0 0 1
    outer loop
      vertex 31 0 15
      vertex 28 2 15
      vertex 30 0 15
    endloop
  endfacet
  facet normal 0 0 1
    outer loop
      vertex 30 0 15
      vertex 28 2 15
      vertex 30 -1 15
    endloop
  endfacet
  facet normal -0 0 1
    outer loop
      vertex 2 2 15
      vertex 30 -1 15
      vertex 28 2 15
    endloop
  endfacet
  facet normal 0 0 1
    outer loop
      vertex 0 -1 15
      vertex 2 2 15
      vertex 0 0 15
    endloop
  endfacet
  facet normal 0 0 1
    outer loop
      vertex 2 2 15
      vertex 0 -1 15
      vertex 30 -1 15
    endloop
  endfacet
  facet normal 1 -0 0
    outer loop
      vertex 30 -1 15
      vertex 30 0 5
      vertex 30 0 15
    endloop
  endfacet
  facet normal 1 0 0
    outer loop
      vertex 30 0 5
      vertex 30 -1 15
      vertex 30 -1 5
    endloop
  endfacet
  facet normal 0 1 -0
    outer loop
      vertex 13 2 5
      vertex 12 2 7.5
      vertex 13 2 7.5
    endloop
  endfacet
  facet normal 0 1 0
    outer loop
      vertex 12 2 7.5
      vertex 13 2 5
      vertex 12 2 5
    endloop
  endfacet
  facet normal 0 1 -0
    outer loop
      vertex 23 2 5
      vertex 22 2 7.5
      vertex 23 2 7.5
    endloop
  endfacet
  facet normal 0 1 0
    outer loop
      vertex 22 2 7.5
      vertex 23 2 5
      vertex 22 2 5
    endloop
  endfacet
  facet normal 0 1 0
    outer loop
      vertex 23 2 7.5
      vertex 28 2 15
      vertex 28 2 7.5
    endloop
  endfacet
  facet normal 0 1 0
    outer loop
      vertex 22 2 7.5
      vertex 28 2 15
      vertex 23 2 7.5
    endloop
  endfacet
  facet normal 0 1 0
    outer loop
      vertex 13 2 7.5
      vertex 28 2 15
      vertex 22 2 7.5
    endloop
  endfacet
  facet normal 0 1 0
    outer loop
      vertex 28 2 15
      vertex 13 2 7.5
      vertex 2 2 15
    endloop
  endfacet
  facet normal 0 1 -0
    outer loop
      vertex 12 2 7.5
      vertex 2 2 15
      vertex 13 2 7.5
    endloop
  endfacet
  facet normal 0 1 -0
    outer loop
      vertex 3 2 7.5
      vertex 2 2 15
      vertex 12 2 7.5
    endloop
  endfacet
  facet normal 0 1 0
    outer loop
      vertex 2 2 5
      vertex 3 2 7.5
      vertex 3 2 5
    endloop
  endfacet
  facet normal 0 1 0
    outer loop
      vertex 3 2 7.5
      vertex 2 2 5
      vertex 2 2 15
    endloop
  endfacet
  facet normal 0 -1 0
    outer loop
      vertex 0 -1 5
      vertex 30 -1 15
      vertex 0 -1 15
    endloop
  endfacet
  facet normal 0 -1 -0
    outer loop
      vertex 30 -1 15
      vertex 0 -1 5
      vertex 30 -1 5
    endloop
  endfacet
  facet normal -1 0 0
    outer loop
      vertex -1 0 5
      vertex -1 10 15
      vertex -1 10 5
    endloop
  endfacet
  facet normal -1 -0 0
    outer loop
      vertex -1 10 15
      vertex -1 0 5
      vertex -1 0 15
    endloop
  endfacet
  facet normal 1 -0 0
    outer loop
      vertex 2 2 15
      vertex 2 10 5
      vertex 2 10 15
    endloop
  endfacet
  facet normal 1 0 0
    outer loop
      vertex 2 10 5
      vertex 2 2 15
      vertex 2 2 5
    endloop
  endfacet
  facet normal -1 0 0
    outer loop
      vertex 28 9.5 7.5
      vertex 28 10 5
      vertex 28 9.5 5
    endloop
  endfacet
  facet normal -1 0 0
    outer loop
      vertex 28 10 5
      vertex 28 9.5 7.5
      vertex 28 10 15
    endloop
  endfacet
  facet normal -1 0 0
    outer loop
      vertex 28 2 15
      vertex 28 9.5 7.5
      vertex 28 2 7.5
    endloop
  endfacet
  facet normal -1 0 0
    outer loop
      vertex 28 9.5 7.5
      vertex 28 2 15
      vertex 28 10 15
    endloop
  endfacet
  facet normal 1 -0 0
    outer loop
      vertex 31 0 15
      vertex 31 10 5
      vertex 31 10 15
    endloop
  endfacet
  facet normal 1 0 0
    outer loop
      vertex 31 10 5
      vertex 31 0 15
      vertex 31 0 5
    endloop
  endfacet
  facet normal 0 -1 0
    outer loop
      vertex 30 0 5
      vertex 31 0 15
      vertex 30 0 15
    endloop
  endfacet
  facet normal 0 -1 -0
    outer loop
      vertex 31 0 15
      vertex 30 0 5
      vertex 31 0 5
    endloop
  endfacet
  facet normal -1 0 0
    outer loop
      vertex 3 2 5
      vertex 3 9.5 7.5
      vertex 3 9.5 5
    endloop
  endfacet
  facet normal -1 -0 0
    outer loop
      vertex 3 9.5 7.5
      vertex 3 2 5
      vertex 3 2 7.5
    endloop
  endfacet
  facet normal -0 0 1
    outer loop
      vertex 3 9.5 7.5
      vertex 12 2 7.5
      vertex 12 9.5 7.5
    endloop
  endfacet
  facet normal 0 0 1
    outer loop
      vertex 12 2 7.5
      vertex 3 9.5 7.5
      vertex 3 2 7.5
    endloop
  endfacet
  facet normal 1 -0 0
    outer loop
      vertex 12 2 7.5
      vertex 12 9.5 5
      vertex 12 9.5 7.5
    endloop
  endfacet
  facet normal 1 0 0
    outer loop
      vertex 12 9.5 5
      vertex 12 2 7.5
      vertex 12 2 5
    endloop
  endfacet
  facet normal 0 1 -0
    outer loop
      vertex 12 9.5 5
      vertex 3 9.5 7.5
      vertex 12 9.5 7.5
    endloop
  endfacet
  facet normal 0 1 0
    outer loop
      vertex 3 9.5 7.5
      vertex 12 9.5 5
      vertex 3 9.5 5
    endloop
  endfacet
  facet normal -1 0 0
    outer loop
      vertex 13 2 5
      vertex 13 9.5 7.5
      vertex 13 9.5 5
    endloop
  endfacet
  facet normal -1 -0 0
    outer loop
      vertex 13 9.5 7.5
      vertex 13 2 5
      vertex 13 2 7.5
    endloop
  endfacet
  facet normal -0 0 1
    outer loop
      vertex 13 9.5 7.5
      vertex 22 2 7.5
      vertex 22 9.5 7.5
    endloop
  endfacet
  facet normal 0 0 1
    outer loop
      vertex 22 2 7.5
      vertex 13 9.5 7.5
      vertex 13 2 7.5
    endloop
  endfacet
  facet normal 1 -0 0
    outer loop
      vertex 22 2 7.5
      vertex 22 9.5 5
      vertex 22 9.5 7.5
    endloop
  endfacet
  facet normal 1 0 0
    outer loop
      vertex 22 9.5 5
      vertex 22 2 7.5
      vertex 22 2 5
    endloop
  endfacet
  facet normal 0 1 -0
    outer loop
      vertex 22 9.5 5
      vertex 13 9.5 7.5
      vertex 22 9.5 7.5
    endloop
  endfacet
  facet normal 0 1 0
    outer loop
      vertex 13 9.5 7.5
      vertex 22 9.5 5
      vertex 13 9.5 5
    endloop
  endfacet
  facet normal -1 0 0
    outer loop
      vertex 23 2 5
      vertex 23 9.5 7.5
      vertex 23 9.5 5
    endloop
  endfacet
  facet normal -1 -0 0
    outer loop
      vertex 23 9.5 7.5
      vertex 23 2 5
      vertex 23 2 7.5
    endloop
  endfacet
  facet normal -0 0 1
    outer loop
      vertex 23 9.5 7.5
      vertex 28 2 7.5
      vertex 28 9.5 7.5
    endloop
  endfacet
  facet normal 0 0 1
    outer loop
      vertex 28 2 7.5
      vertex 23 9.5 7.5
      vertex 23 2 7.5
    endloop
  endfacet
  facet normal 0 1 -0
    outer loop
      vertex 28 9.5 5
      vertex 23 9.5 7.5
      vertex 28 9.5 7.5
    endloop
  endfacet
  facet normal 0 1 0
    outer loop
      vertex 23 9.5 7.5
      vertex 28 9.5 5
      vertex 23 9.5 5
    endloop
  endfacet
endsolid OpenSCAD_Model
