solid OpenSCAD_Model
  facet normal -1 0 0
    outer loop
      vertex 0 1 -2
      vertex 0 0 -2
      vertex 0 1 0
    endloop
  endfacet
  facet normal -1 0 0
    outer loop
      vertex 0 9 0
      vertex 0 10 -2
      vertex 0 9 -2
    endloop
  endfacet
  facet normal -1 0 0
    outer loop
      vertex 0 9 10
      vertex 0 11 5
      vertex 0 10 5
    endloop
  endfacet
  facet normal -1 0 0
    outer loop
      vertex 0 10 -2
      vertex 0 9 0
      vertex 0 10 5
    endloop
  endfacet
  facet normal -1 0 0
    outer loop
      vertex 0 1 0
      vertex 0 10 5
      vertex 0 9 0
    endloop
  endfacet
  facet normal -1 0 0
    outer loop
      vertex 0 11 5
      vertex 0 9 10
      vertex 0 11 15
    endloop
  endfacet
  facet normal -1 -0 0
    outer loop
      vertex 0 11 15
      vertex 0 9 10
      vertex 0 9 15
    endloop
  endfacet
  facet normal -1 0 0
    outer loop
      vertex 0 0 10
      vertex 0 10 5
      vertex 0 1 0
    endloop
  endfacet
  facet normal -1 0 0
    outer loop
      vertex 0 10 5
      vertex 0 0 10
      vertex 0 9 10
    endloop
  endfacet
  facet normal -1 0 0
    outer loop
      vertex 0 0 10
      vertex 0 1 0
      vertex 0 0 -2
    endloop
  endfacet
  facet normal -0 0 1
    outer loop
      vertex 26 1 5
      vertex 28 0 5
      vertex 28 1 5
    endloop
  endfacet
  facet normal -0 0 1
    outer loop
      vertex 24 1 5
      vertex 28 0 5
      vertex 26 1 5
    endloop
  endfacet
  facet normal -0 0 1
    outer loop
      vertex 18 1 5
      vertex 28 0 5
      vertex 24 1 5
    endloop
  endfacet
  facet normal -0 0 1
    outer loop
      vertex 16 1 5
      vertex 28 0 5
      vertex 18 1 5
    endloop
  endfacet
  facet normal 0 0 1
    outer loop
      vertex 2 0 5
      vertex 16 1 5
      vertex 10 1 5
    endloop
  endfacet
  facet normal 0 0 1
    outer loop
      vertex 2 0 5
      vertex 10 1 5
      vertex 8 1 5
    endloop
  endfacet
  facet normal 0 0 1
    outer loop
      vertex 2 0 5
      vertex 8 1 5
      vertex 2 1 5
    endloop
  endfacet
  facet normal 0 0 1
    outer loop
      vertex 16 1 5
      vertex 2 0 5
      vertex 28 0 5
    endloop
  endfacet
  facet normal 0 0 -1
    outer loop
      vertex 2 1 5
      vertex 8 9 5
      vertex 8 1 5
    endloop
  endfacet
  facet normal 0 0 -1
    outer loop
      vertex 1 9 5
      vertex 2 1 5
      vertex 1 1 5
    endloop
  endfacet
  facet normal 0 0 -1
    outer loop
      vertex 2 1 5
      vertex 1 9 5
      vertex 8 9 5
    endloop
  endfacet
  facet normal 0 0 -1
    outer loop
      vertex 28 1 5
      vertex 29 9 5
      vertex 29 1 5
    endloop
  endfacet
  facet normal 0 0 -1
    outer loop
      vertex 26 9 5
      vertex 28 1 5
      vertex 26 1 5
    endloop
  endfacet
  facet normal 0 0 -1
    outer loop
      vertex 28 1 5
      vertex 26 9 5
      vertex 29 9 5
    endloop
  endfacet
  facet normal 0 0 -1
    outer loop
      vertex 30 1 5
      vertex 32 9 5
      vertex 32 1 5
    endloop
  endfacet
  facet normal -0 0 -1
    outer loop
      vertex 32 9 5
      vertex 30 1 5
      vertex 30 9 5
    endloop
  endfacet
  facet normal 0 0 -1
    outer loop
      vertex 0 10 5
      vertex 30 11 5
      vertex 30 10 5
    endloop
  endfacet
  facet normal -0 0 -1
    outer loop
      vertex 30 11 5
      vertex 0 10 5
      vertex 0 11 5
    endloop
  endfacet
  facet normal 1 -0 0
    outer loop
      vertex 30 1 5
      vertex 30 9 0
      vertex 30 9 5
    endloop
  endfacet
  facet normal 1 0 0
    outer loop
      vertex 30 9 0
      vertex 30 1 5
      vertex 30 1 0
    endloop
  endfacet
  facet normal 1 0 0
    outer loop
      vertex 30 9 10
      vertex 30 1 8
      vertex 30 9 8
    endloop
  endfacet
  facet normal 1 0 0
    outer loop
      vertex 30 0 10
      vertex 30 1 5
      vertex 30 1 8
    endloop
  endfacet
  facet normal 1 0 0
    outer loop
      vertex 30 1 5
      vertex 30 0 -2
      vertex 30 1 0
    endloop
  endfacet
  facet normal 1 -0 0
    outer loop
      vertex 30 0 10
      vertex 30 1 8
      vertex 30 9 10
    endloop
  endfacet
  facet normal 1 0 0
    outer loop
      vertex 30 1 5
      vertex 30 0 10
      vertex 30 0 -2
    endloop
  endfacet
  facet normal 1 0 0
    outer loop
      vertex 30 1 0
      vertex 30 0 -2
      vertex 30 1 -2
    endloop
  endfacet
  facet normal 1 -0 0
    outer loop
      vertex 30 9 10
      vertex 30 11 5
      vertex 30 11 15
    endloop
  endfacet
  facet normal 1 0 0
    outer loop
      vertex 30 9 10
      vertex 30 11 15
      vertex 30 9 15
    endloop
  endfacet
  facet normal 1 -0 0
    outer loop
      vertex 30 9 8
      vertex 30 11 5
      vertex 30 9 10
    endloop
  endfacet
  facet normal 1 0 0
    outer loop
      vertex 30 11 5
      vertex 30 9 8
      vertex 30 10 5
    endloop
  endfacet
  facet normal 1 0 0
    outer loop
      vertex 30 9 5
      vertex 30 10 5
      vertex 30 9 8
    endloop
  endfacet
  facet normal 1 0 0
    outer loop
      vertex 30 9 0
      vertex 30 10 5
      vertex 30 9 5
    endloop
  endfacet
  facet normal 1 0 0
    outer loop
      vertex 30 10 5
      vertex 30 9 0
      vertex 30 10 -2
    endloop
  endfacet
  facet normal 1 0 0
    outer loop
      vertex 30 10 -2
      vertex 30 9 0
      vertex 30 9 -2
    endloop
  endfacet
  facet normal 0 1 0
    outer loop
      vertex 30 10 5
      vertex 29 10 0
      vertex 0 10 5
    endloop
  endfacet
  facet normal 0 1 -0
    outer loop
      vertex 30 10 -2
      vertex 29 10 0
      vertex 30 10 5
    endloop
  endfacet
  facet normal 0 1 0
    outer loop
      vertex 29 10 0
      vertex 30 10 -2
      vertex 29 10 -2
    endloop
  endfacet
  facet normal 0 1 -0
    outer loop
      vertex 1 10 0
      vertex 0 10 5
      vertex 29 10 0
    endloop
  endfacet
  facet normal 0 1 0
    outer loop
      vertex 0 10 -2
      vertex 1 10 0
      vertex 1 10 -2
    endloop
  endfacet
  facet normal 0 1 0
    outer loop
      vertex 1 10 0
      vertex 0 10 -2
      vertex 0 10 5
    endloop
  endfacet
  facet normal 0 0 -1
    outer loop
      vertex 0 1 0
      vertex 1 9 0
      vertex 1 1 0
    endloop
  endfacet
  facet normal -0 0 -1
    outer loop
      vertex 1 9 0
      vertex 0 1 0
      vertex 0 9 0
    endloop
  endfacet
  facet normal 0 0 -1
    outer loop
      vertex 1 1 0
      vertex 29 1 0
      vertex 29 0 0
    endloop
  endfacet
  facet normal 0 0 -1
    outer loop
      vertex 29 1 0
      vertex 1 1 0
      vertex 29 9 0
    endloop
  endfacet
  facet normal 0 0 -1
    outer loop
      vertex 1 1 0
      vertex 29 0 0
      vertex 1 0 0
    endloop
  endfacet
  facet normal 0 0 -1
    outer loop
      vertex 1 9 0
      vertex 29 9 0
      vertex 1 1 0
    endloop
  endfacet
  facet normal 0 0 -1
    outer loop
      vertex 29 9 0
      vertex 1 9 0
      vertex 29 10 0
    endloop
  endfacet
  facet normal -0 0 -1
    outer loop
      vertex 29 10 0
      vertex 1 9 0
      vertex 1 10 0
    endloop
  endfacet
  facet normal 0 0 -1
    outer loop
      vertex 29 1 0
      vertex 30 9 0
      vertex 30 1 0
    endloop
  endfacet
  facet normal -0 0 -1
    outer loop
      vertex 30 9 0
      vertex 29 1 0
      vertex 29 9 0
    endloop
  endfacet
  facet normal 0 -1 0
    outer loop
      vertex 0 0 10
      vertex 2 0 5
      vertex 2 0 10
    endloop
  endfacet
  facet normal 0 -1 -0
    outer loop
      vertex 2 0 5
      vertex 1 0 0
      vertex 28 0 5
    endloop
  endfacet
  facet normal 0 -1 0
    outer loop
      vertex 0 0 10
      vertex 1 0 0
      vertex 2 0 5
    endloop
  endfacet
  facet normal 0 -1 0
    outer loop
      vertex 0 0 -2
      vertex 1 0 0
      vertex 0 0 10
    endloop
  endfacet
  facet normal 0 -1 -0
    outer loop
      vertex 1 0 0
      vertex 0 0 -2
      vertex 1 0 -2
    endloop
  endfacet
  facet normal 0 -1 0
    outer loop
      vertex 28 0 5
      vertex 30 0 10
      vertex 28 0 10
    endloop
  endfacet
  facet normal 0 -1 0
    outer loop
      vertex 29 0 0
      vertex 28 0 5
      vertex 1 0 0
    endloop
  endfacet
  facet normal 0 -1 0
    outer loop
      vertex 29 0 0
      vertex 30 0 10
      vertex 28 0 5
    endloop
  endfacet
  facet normal 0 -1 0
    outer loop
      vertex 30 0 -2
      vertex 29 0 0
      vertex 29 0 -2
    endloop
  endfacet
  facet normal 0 -1 0
    outer loop
      vertex 29 0 0
      vertex 30 0 -2
      vertex 30 0 10
    endloop
  endfacet
  facet normal 1 -0 0
    outer loop
      vertex 1 1 5
      vertex 1 9 1
      vertex 1 9 5
    endloop
  endfacet
  facet normal 1 0 0
    outer loop
      vertex 1 9 1
      vertex 1 1 5
      vertex 1 1 1
    endloop
  endfacet
  facet normal -1 0 0
    outer loop
      vertex 29 1 1
      vertex 29 9 5
      vertex 29 9 1
    endloop
  endfacet
  facet normal -1 -0 0
    outer loop
      vertex 29 9 5
      vertex 29 1 1
      vertex 29 1 5
    endloop
  endfacet
  facet normal 0 -1 0
    outer loop
      vertex 1 9 1
      vertex 8 9 5
      vertex 1 9 5
    endloop
  endfacet
  facet normal 0 -1 -0
    outer loop
      vertex 8 9 5
      vertex 1 9 1
      vertex 10 9 5
    endloop
  endfacet
  facet normal 0 -1 -0
    outer loop
      vertex 10 9 5
      vertex 1 9 1
      vertex 16 9 5
    endloop
  endfacet
  facet normal 0 -1 0
    outer loop
      vertex 29 9 1
      vertex 16 9 5
      vertex 1 9 1
    endloop
  endfacet
  facet normal 0 -1 0
    outer loop
      vertex 16 9 5
      vertex 29 9 1
      vertex 18 9 5
    endloop
  endfacet
  facet normal 0 -1 0
    outer loop
      vertex 18 9 5
      vertex 29 9 1
      vertex 24 9 5
    endloop
  endfacet
  facet normal 0 -1 0
    outer loop
      vertex 24 9 5
      vertex 29 9 1
      vertex 26 9 5
    endloop
  endfacet
  facet normal 0 -1 0
    outer loop
      vertex 26 9 5
      vertex 29 9 1
      vertex 29 9 5
    endloop
  endfacet
  facet normal -0 0 1
    outer loop
      vertex 1 9 1
      vertex 29 1 1
      vertex 29 9 1
    endloop
  endfacet
  facet normal 0 0 1
    outer loop
      vertex 29 1 1
      vertex 1 9 1
      vertex 1 1 1
    endloop
  endfacet
  facet normal 0 1 -0
    outer loop
      vertex 29 1 1
      vertex 28 1 5
      vertex 29 1 5
    endloop
  endfacet
  facet normal 0 1 0
    outer loop
      vertex 28 1 5
      vertex 29 1 1
      vertex 26 1 5
    endloop
  endfacet
  facet normal 0 1 0
    outer loop
      vertex 26 1 5
      vertex 29 1 1
      vertex 24 1 5
    endloop
  endfacet
  facet normal 0 1 0
    outer loop
      vertex 24 1 5
      vertex 29 1 1
      vertex 18 1 5
    endloop
  endfacet
  facet normal 0 1 0
    outer loop
      vertex 18 1 5
      vertex 29 1 1
      vertex 16 1 5
    endloop
  endfacet
  facet normal 0 1 0
    outer loop
      vertex 1 1 1
      vertex 16 1 5
      vertex 29 1 1
    endloop
  endfacet
  facet normal 0 1 0
    outer loop
      vertex 16 1 5
      vertex 1 1 1
      vertex 10 1 5
    endloop
  endfacet
  facet normal 0 1 0
    outer loop
      vertex 10 1 5
      vertex 1 1 1
      vertex 8 1 5
    endloop
  endfacet
  facet normal 0 1 0
    outer loop
      vertex 8 1 5
      vertex 1 1 1
      vertex 2 1 5
    endloop
  endfacet
  facet normal 0 1 0
    outer loop
      vertex 2 1 5
      vertex 1 1 1
      vertex 1 1 5
    endloop
  endfacet
  facet normal 1 -0 0
    outer loop
      vertex 1 0 0
      vertex 1 1 -2
      vertex 1 1 0
    endloop
  endfacet
  facet normal 1 0 0
    outer loop
      vertex 1 1 -2
      vertex 1 0 0
      vertex 1 0 -2
    endloop
  endfacet
  facet normal 0 0 -1
    outer loop
      vertex 0 0 -2
      vertex 1 1 -2
      vertex 1 0 -2
    endloop
  endfacet
  facet normal -0 0 -1
    outer loop
      vertex 1 1 -2
      vertex 0 0 -2
      vertex 0 1 -2
    endloop
  endfacet
  facet normal 0 1 -0
    outer loop
      vertex 1 1 -2
      vertex 0 1 0
      vertex 1 1 0
    endloop
  endfacet
  facet normal 0 1 0
    outer loop
      vertex 0 1 0
      vertex 1 1 -2
      vertex 0 1 -2
    endloop
  endfacet
  facet normal 1 -0 0
    outer loop
      vertex 1 9 0
      vertex 1 10 -2
      vertex 1 10 0
    endloop
  endfacet
  facet normal 1 0 0
    outer loop
      vertex 1 10 -2
      vertex 1 9 0
      vertex 1 9 -2
    endloop
  endfacet
  facet normal 0 0 -1
    outer loop
      vertex 0 9 -2
      vertex 1 10 -2
      vertex 1 9 -2
    endloop
  endfacet
  facet normal -0 0 -1
    outer loop
      vertex 1 10 -2
      vertex 0 9 -2
      vertex 0 10 -2
    endloop
  endfacet
  facet normal 0 -1 0
    outer loop
      vertex 0 9 -2
      vertex 1 9 0
      vertex 0 9 0
    endloop
  endfacet
  facet normal 0 -1 -0
    outer loop
      vertex 1 9 0
      vertex 0 9 -2
      vertex 1 9 -2
    endloop
  endfacet
  facet normal -1 0 0
    outer loop
      vertex 29 0 -2
      vertex 29 1 0
      vertex 29 1 -2
    endloop
  endfacet
  facet normal -1 -0 0
    outer loop
      vertex 29 1 0
      vertex 29 0 -2
      vertex 29 0 0
    endloop
  endfacet
  facet normal 0 1 -0
    outer loop
      vertex 30 1 -2
      vertex 29 1 0
      vertex 30 1 0
    endloop
  endfacet
  facet normal 0 1 0
    outer loop
      vertex 29 1 0
      vertex 30 1 -2
      vertex 29 1 -2
    endloop
  endfacet
  facet normal 0 0 -1
    outer loop
      vertex 29 0 -2
      vertex 30 1 -2
      vertex 30 0 -2
    endloop
  endfacet
  facet normal -0 0 -1
    outer loop
      vertex 30 1 -2
      vertex 29 0 -2
      vertex 29 1 -2
    endloop
  endfacet
  facet normal -1 0 0
    outer loop
      vertex 29 9 -2
      vertex 29 10 0
      vertex 29 10 -2
    endloop
  endfacet
  facet normal -1 -0 0
    outer loop
      vertex 29 10 0
      vertex 29 9 -2
      vertex 29 9 0
    endloop
  endfacet
  facet normal 0 0 -1
    outer loop
      vertex 29 9 -2
      vertex 30 10 -2
      vertex 30 9 -2
    endloop
  endfacet
  facet normal -0 0 -1
    outer loop
      vertex 30 10 -2
      vertex 29 9 -2
      vertex 29 10 -2
    endloop
  endfacet
  facet normal 0 -1 0
    outer loop
      vertex 29 9 -2
      vertex 30 9 0
      vertex 29 9 0
    endloop
  endfacet
  facet normal 0 -1 -0
    outer loop
      vertex 30 9 0
      vertex 29 9 -2
      vertex 30 9 -2
    endloop
  endfacet
  facet normal 1 0 0
    outer loop
      vertex 2 9 10
      vertex 2 1 8
      vertex 2 9 8
    endloop
  endfacet
  facet normal 1 -0 0
    outer loop
      vertex 2 0 10
      vertex 2 1 8
      vertex 2 9 10
    endloop
  endfacet
  facet normal 1 0 0
    outer loop
      vertex 2 0 5
      vertex 2 1 8
      vertex 2 0 10
    endloop
  endfacet
  facet normal 1 0 0
    outer loop
      vertex 2 1 8
      vertex 2 0 5
      vertex 2 1 5
    endloop
  endfacet
  facet normal -0 0 1
    outer loop
      vertex 2 9 8
      vertex 8 1 8
      vertex 8 9 8
    endloop
  endfacet
  facet normal 0 0 1
    outer loop
      vertex 8 1 8
      vertex 2 9 8
      vertex 2 1 8
    endloop
  endfacet
  facet normal 1 -0 0
    outer loop
      vertex 8 1 8
      vertex 8 9 5
      vertex 8 9 8
    endloop
  endfacet
  facet normal 1 0 0
    outer loop
      vertex 8 9 5
      vertex 8 1 8
      vertex 8 1 5
    endloop
  endfacet
  facet normal 0 -1 0
    outer loop
      vertex 2 1 5
      vertex 8 1 8
      vertex 2 1 8
    endloop
  endfacet
  facet normal 0 -1 -0
    outer loop
      vertex 8 1 8
      vertex 2 1 5
      vertex 8 1 5
    endloop
  endfacet
  facet normal 0 -1 0
    outer loop
      vertex 24 9 5
      vertex 26 9 8
      vertex 24 9 8
    endloop
  endfacet
  facet normal 0 -1 -0
    outer loop
      vertex 26 9 8
      vertex 24 9 5
      vertex 26 9 5
    endloop
  endfacet
  facet normal 0 -1 0
    outer loop
      vertex 16 9 5
      vertex 18 9 8
      vertex 16 9 8
    endloop
  endfacet
  facet normal 0 -1 -0
    outer loop
      vertex 18 9 8
      vertex 16 9 5
      vertex 18 9 5
    endloop
  endfacet
  facet normal 0 -1 0
    outer loop
      vertex 8 9 5
      vertex 10 9 8
      vertex 8 9 8
    endloop
  endfacet
  facet normal 0 -1 -0
    outer loop
      vertex 10 9 8
      vertex 8 9 5
      vertex 10 9 5
    endloop
  endfacet
  facet normal 0 -1 0
    outer loop
      vertex 8 9 8
      vertex 2 9 10
      vertex 2 9 8
    endloop
  endfacet
  facet normal 0 -1 0
    outer loop
      vertex 10 9 8
      vertex 2 9 10
      vertex 8 9 8
    endloop
  endfacet
  facet normal 0 -1 0
    outer loop
      vertex 16 9 8
      vertex 2 9 10
      vertex 10 9 8
    endloop
  endfacet
  facet normal 0 -1 0
    outer loop
      vertex 2 9 10
      vertex 16 9 8
      vertex 28 9 10
    endloop
  endfacet
  facet normal 0 -1 0
    outer loop
      vertex 18 9 8
      vertex 28 9 10
      vertex 16 9 8
    endloop
  endfacet
  facet normal 0 -1 0
    outer loop
      vertex 24 9 8
      vertex 28 9 10
      vertex 18 9 8
    endloop
  endfacet
  facet normal 0 -1 0
    outer loop
      vertex 26 9 8
      vertex 28 9 10
      vertex 24 9 8
    endloop
  endfacet
  facet normal 0 -1 -0
    outer loop
      vertex 28 9 10
      vertex 26 9 8
      vertex 28 9 8
    endloop
  endfacet
  facet normal 0 -1 0
    outer loop
      vertex 2 9 10
      vertex 0 9 15
      vertex 0 9 10
    endloop
  endfacet
  facet normal 0 -1 0
    outer loop
      vertex 0 9 15
      vertex 2 9 10
      vertex 30 9 15
    endloop
  endfacet
  facet normal 0 -1 0
    outer loop
      vertex 28 9 10
      vertex 30 9 15
      vertex 2 9 10
    endloop
  endfacet
  facet normal 0 -1 -0
    outer loop
      vertex 30 9 15
      vertex 28 9 10
      vertex 30 9 10
    endloop
  endfacet
  facet normal 0 1 -0
    outer loop
      vertex 32 9 5
      vertex 30 9 8
      vertex 32 9 8
    endloop
  endfacet
  facet normal 0 1 0
    outer loop
      vertex 30 9 8
      vertex 32 9 5
      vertex 30 9 5
    endloop
  endfacet
  facet normal -1 0 0
    outer loop
      vertex 10 1 5
      vertex 10 9 8
      vertex 10 9 5
    endloop
  endfacet
  facet normal -1 -0 0
    outer loop
      vertex 10 9 8
      vertex 10 1 5
      vertex 10 1 8
    endloop
  endfacet
  facet normal -0 0 1
    outer loop
      vertex 10 9 8
      vertex 16 1 8
      vertex 16 9 8
    endloop
  endfacet
  facet normal 0 0 1
    outer loop
      vertex 16 1 8
      vertex 10 9 8
      vertex 10 1 8
    endloop
  endfacet
  facet normal 1 -0 0
    outer loop
      vertex 16 1 8
      vertex 16 9 5
      vertex 16 9 8
    endloop
  endfacet
  facet normal 1 0 0
    outer loop
      vertex 16 9 5
      vertex 16 1 8
      vertex 16 1 5
    endloop
  endfacet
  facet normal 0 0 -1
    outer loop
      vertex 10 1 5
      vertex 16 9 5
      vertex 16 1 5
    endloop
  endfacet
  facet normal -0 0 -1
    outer loop
      vertex 16 9 5
      vertex 10 1 5
      vertex 10 9 5
    endloop
  endfacet
  facet normal 0 -1 0
    outer loop
      vertex 10 1 5
      vertex 16 1 8
      vertex 10 1 8
    endloop
  endfacet
  facet normal 0 -1 -0
    outer loop
      vertex 16 1 8
      vertex 10 1 5
      vertex 16 1 5
    endloop
  endfacet
  facet normal -1 0 0
    outer loop
      vertex 18 1 5
      vertex 18 9 8
      vertex 18 9 5
    endloop
  endfacet
  facet normal -1 -0 0
    outer loop
      vertex 18 9 8
      vertex 18 1 5
      vertex 18 1 8
    endloop
  endfacet
  facet normal -0 0 1
    outer loop
      vertex 18 9 8
      vertex 24 1 8
      vertex 24 9 8
    endloop
  endfacet
  facet normal 0 0 1
    outer loop
      vertex 24 1 8
      vertex 18 9 8
      vertex 18 1 8
    endloop
  endfacet
  facet normal 1 -0 0
    outer loop
      vertex 24 1 8
      vertex 24 9 5
      vertex 24 9 8
    endloop
  endfacet
  facet normal 1 0 0
    outer loop
      vertex 24 9 5
      vertex 24 1 8
      vertex 24 1 5
    endloop
  endfacet
  facet normal 0 0 -1
    outer loop
      vertex 18 1 5
      vertex 24 9 5
      vertex 24 1 5
    endloop
  endfacet
  facet normal -0 0 -1
    outer loop
      vertex 24 9 5
      vertex 18 1 5
      vertex 18 9 5
    endloop
  endfacet
  facet normal 0 -1 0
    outer loop
      vertex 18 1 5
      vertex 24 1 8
      vertex 18 1 8
    endloop
  endfacet
  facet normal 0 -1 -0
    outer loop
      vertex 24 1 8
      vertex 18 1 5
      vertex 24 1 5
    endloop
  endfacet
  facet normal -1 0 0
    outer loop
      vertex 26 1 5
      vertex 26 9 8
      vertex 26 9 5
    endloop
  endfacet
  facet normal -1 -0 0
    outer loop
      vertex 26 9 8
      vertex 26 1 5
      vertex 26 1 8
    endloop
  endfacet
  facet normal -0 0 1
    outer loop
      vertex 30 9 8
      vertex 32 1 8
      vertex 32 9 8
    endloop
  endfacet
  facet normal 0 0 1
    outer loop
      vertex 32 1 8
      vertex 30 9 8
      vertex 30 1 8
    endloop
  endfacet
  facet normal -0 0 1
    outer loop
      vertex 26 9 8
      vertex 28 1 8
      vertex 28 9 8
    endloop
  endfacet
  facet normal 0 0 1
    outer loop
      vertex 28 1 8
      vertex 26 9 8
      vertex 26 1 8
    endloop
  endfacet
  facet normal 1 -0 0
    outer loop
      vertex 32 1 8
      vertex 32 9 5
      vertex 32 9 8
    endloop
  endfacet
  facet normal 1 0 0
    outer loop
      vertex 32 9 5
      vertex 32 1 8
      vertex 32 1 5
    endloop
  endfacet
  facet normal 0 -1 0
    outer loop
      vertex 30 1 5
      vertex 32 1 8
      vertex 30 1 8
    endloop
  endfacet
  facet normal 0 -1 -0
    outer loop
      vertex 32 1 8
      vertex 30 1 5
      vertex 32 1 5
    endloop
  endfacet
  facet normal 0 -1 0
    outer loop
      vertex 26 1 5
      vertex 28 1 8
      vertex 26 1 8
    endloop
  endfacet
  facet normal 0 -1 -0
    outer loop
      vertex 28 1 8
      vertex 26 1 5
      vertex 28 1 5
    endloop
  endfacet
  facet normal -0 0 1
    outer loop
      vertex 0 11 15
      vertex 30 9 15
      vertex 30 11 15
    endloop
  endfacet
  facet normal 0 0 1
    outer loop
      vertex 30 9 15
      vertex 0 11 15
      vertex 0 9 15
    endloop
  endfacet
  facet normal 0 1 -0
    outer loop
      vertex 30 11 5
      vertex 0 11 15
      vertex 30 11 15
    endloop
  endfacet
  facet normal 0 1 0
    outer loop
      vertex 0 11 15
      vertex 30 11 5
      vertex 0 11 5
    endloop
  endfacet
  facet normal -0 0 1
    outer loop
      vertex 0 9 10
      vertex 2 0 10
      vertex 2 9 10
    endloop
  endfacet
  facet normal 0 0 1
    outer loop
      vertex 2 0 10
      vertex 0 9 10
      vertex 0 0 10
    endloop
  endfacet
  facet normal -1 0 0
    outer loop
      vertex 28 1 5
      vertex 28 0 5
      vertex 28 1 8
    endloop
  endfacet
  facet normal -1 0 0
    outer loop
      vertex 28 1 8
      vertex 28 9 10
      vertex 28 9 8
    endloop
  endfacet
  facet normal -1 0 0
    outer loop
      vertex 28 1 8
      vertex 28 0 10
      vertex 28 9 10
    endloop
  endfacet
  facet normal -1 0 0
    outer loop
      vertex 28 0 10
      vertex 28 1 8
      vertex 28 0 5
    endloop
  endfacet
  facet normal -0 0 1
    outer loop
      vertex 28 9 10
      vertex 30 0 10
      vertex 30 9 10
    endloop
  endfacet
  facet normal 0 0 1
    outer loop
      vertex 30 0 10
      vertex 28 9 10
      vertex 28 0 10
    endloop
  endfacet
endsolid OpenSCAD_Model
