solid OpenSCAD_Model
  facet normal -1 0 0
    outer loop
      vertex 0 20 0
      vertex 0 17 2
      vertex 0 20 12
    endloop
  endfacet
  facet normal -1 0 0
    outer loop
      vertex 0 0 0
      vertex 0 17 2
      vertex 0 20 0
    endloop
  endfacet
  facet normal -1 -0 0
    outer loop
      vertex 0 17 2
      vertex 0 0 0
      vertex 0 0 2
    endloop
  endfacet
  facet normal -1 -0 0
    outer loop
      vertex 0 20 12
      vertex 0 17 2
      vertex 0 17 12
    endloop
  endfacet
  facet normal 0 0 1
    outer loop
      vertex 28 17.1493 2
      vertex 27.191 17.4122 2
      vertex 28 17 2
    endloop
  endfacet
  facet normal -0 0 1
    outer loop
      vertex 28.309 1.95106 2
      vertex 30 0 2
      vertex 30 17 2
    endloop
  endfacet
  facet normal 0 0 1
    outer loop
      vertex 30 0 2
      vertex 28.309 1.95106 2
      vertex 29 1 2
    endloop
  endfacet
  facet normal -0 0 1
    outer loop
      vertex 28 17 2
      vertex 28.309 1.95106 2
      vertex 30 17 2
    endloop
  endfacet
  facet normal 0 0 1
    outer loop
      vertex 27.191 1.58778 2
      vertex 28 17 2
      vertex 27.191 17.4122 2
    endloop
  endfacet
  facet normal 0 0 1
    outer loop
      vertex 28 17 2
      vertex 27.191 1.58778 2
      vertex 28.309 1.95106 2
    endloop
  endfacet
  facet normal -0 0 1
    outer loop
      vertex 28.309 0.0489426 2
      vertex 30 0 2
      vertex 29 1 2
    endloop
  endfacet
  facet normal 0 0 1
    outer loop
      vertex 2 1 2
      vertex 27.191 1.58778 2
      vertex 2 17 2
    endloop
  endfacet
  facet normal 0 0 1
    outer loop
      vertex 27.191 1.58778 2
      vertex 2 1 2
      vertex 27.191 0.412214 2
    endloop
  endfacet
  facet normal 0 0 1
    outer loop
      vertex 1.30902 0.0489426 2
      vertex 27.191 0.412214 2
      vertex 2 1 2
    endloop
  endfacet
  facet normal 0 0 1
    outer loop
      vertex 27.191 0.412214 2
      vertex 1.30902 0.0489426 2
      vertex 28.309 0.0489426 2
    endloop
  endfacet
  facet normal -0 0 1
    outer loop
      vertex 1.30902 0.0489426 2
      vertex 30 0 2
      vertex 28.309 0.0489426 2
    endloop
  endfacet
  facet normal 0 0 1
    outer loop
      vertex 1.30902 0.0489426 2
      vertex 0 0 2
      vertex 30 0 2
    endloop
  endfacet
  facet normal 0 0 1
    outer loop
      vertex 0.190983 0.412214 2
      vertex 0 0 2
      vertex 1.30902 0.0489426 2
    endloop
  endfacet
  facet normal 0 0 1
    outer loop
      vertex 0.190983 1.58778 2
      vertex 0 0 2
      vertex 0.190983 0.412214 2
    endloop
  endfacet
  facet normal 0 0 1
    outer loop
      vertex 2 17 2
      vertex 1.30902 1.95106 2
      vertex 2 1 2
    endloop
  endfacet
  facet normal -0 0 1
    outer loop
      vertex 0 17 2
      vertex 1.30902 1.95106 2
      vertex 2 17 2
    endloop
  endfacet
  facet normal 0 0 1
    outer loop
      vertex 0 0 2
      vertex 0.190983 1.58778 2
      vertex 0 17 2
    endloop
  endfacet
  facet normal 0 0 1
    outer loop
      vertex 1.30902 1.95106 2
      vertex 0 17 2
      vertex 0.190983 1.58778 2
    endloop
  endfacet
  facet normal 0 0 1
    outer loop
      vertex 28 20 2
      vertex 27.191 18.5878 2
      vertex 28 18.8507 2
    endloop
  endfacet
  facet normal 0 0 1
    outer loop
      vertex 2 17 2
      vertex 27.191 18.5878 2
      vertex 2 20 2
    endloop
  endfacet
  facet normal 0 0 1
    outer loop
      vertex 27.191 18.5878 2
      vertex 2 17 2
      vertex 27.191 17.4122 2
    endloop
  endfacet
  facet normal 0 0 1
    outer loop
      vertex 27.191 17.4122 2
      vertex 2 17 2
      vertex 27.191 1.58778 2
    endloop
  endfacet
  facet normal -0 0 1
    outer loop
      vertex 2 20 2
      vertex 27.191 18.5878 2
      vertex 28 20 2
    endloop
  endfacet
  facet normal 1 0 0
    outer loop
      vertex 30 17 2
      vertex 30 20 12
      vertex 30 17 12
    endloop
  endfacet
  facet normal 1 0 0
    outer loop
      vertex 30 20 12
      vertex 30 17 2
      vertex 30 20 0
    endloop
  endfacet
  facet normal 1 0 0
    outer loop
      vertex 30 0 0
      vertex 30 17 2
      vertex 30 0 2
    endloop
  endfacet
  facet normal 1 0 0
    outer loop
      vertex 30 17 2
      vertex 30 0 0
      vertex 30 20 0
    endloop
  endfacet
  facet normal 0 0 -1
    outer loop
      vertex 0 0 0
      vertex 30 20 0
      vertex 30 0 0
    endloop
  endfacet
  facet normal -0 0 -1
    outer loop
      vertex 30 20 0
      vertex 0 0 0
      vertex 0 20 0
    endloop
  endfacet
  facet normal 0 -1 0
    outer loop
      vertex 0 0 0
      vertex 30 0 2
      vertex 0 0 2
    endloop
  endfacet
  facet normal 0 -1 -0
    outer loop
      vertex 30 0 2
      vertex 0 0 0
      vertex 30 0 0
    endloop
  endfacet
  facet normal 0 1 0
    outer loop
      vertex 30 20 12
      vertex 28 20 2
      vertex 28 20 12
    endloop
  endfacet
  facet normal 0 1 0
    outer loop
      vertex 28 20 2
      vertex 30 20 0
      vertex 2 20 2
    endloop
  endfacet
  facet normal 0 1 -0
    outer loop
      vertex 30 20 0
      vertex 28 20 2
      vertex 30 20 12
    endloop
  endfacet
  facet normal 0 1 -0
    outer loop
      vertex 2 20 2
      vertex 0 20 12
      vertex 2 20 12
    endloop
  endfacet
  facet normal 0 1 0
    outer loop
      vertex 2 20 2
      vertex 0 20 0
      vertex 0 20 12
    endloop
  endfacet
  facet normal 0 1 0
    outer loop
      vertex 0 20 0
      vertex 2 20 2
      vertex 30 20 0
    endloop
  endfacet
  facet normal 0.809019 0.587782 0
    outer loop
      vertex 2 1 4
      vertex 1.30902 1.95106 2
      vertex 1.30902 1.95106 4
    endloop
  endfacet
  facet normal 0.809019 0.587782 0
    outer loop
      vertex 1.30902 1.95106 2
      vertex 2 1 4
      vertex 2 1 2
    endloop
  endfacet
  facet normal -1 0 0
    outer loop
      vertex 0.190983 0.412214 2
      vertex 0.190983 1.58778 4
      vertex 0.190983 1.58778 2
    endloop
  endfacet
  facet normal -1 -0 0
    outer loop
      vertex 0.190983 1.58778 4
      vertex 0.190983 0.412214 2
      vertex 0.190983 0.412214 4
    endloop
  endfacet
  facet normal -0.309023 0.951055 0
    outer loop
      vertex 1.30902 1.95106 2
      vertex 0.190983 1.58778 4
      vertex 1.30902 1.95106 4
    endloop
  endfacet
  facet normal -0.309023 0.951055 0
    outer loop
      vertex 0.190983 1.58778 4
      vertex 1.30902 1.95106 2
      vertex 0.190983 1.58778 2
    endloop
  endfacet
  facet normal 0 0 1
    outer loop
      vertex 1.30902 1.95106 4
      vertex 1.30902 0.0489426 4
      vertex 2 1 4
    endloop
  endfacet
  facet normal -0 0 1
    outer loop
      vertex 0.190983 1.58778 4
      vertex 1.30902 0.0489426 4
      vertex 1.30902 1.95106 4
    endloop
  endfacet
  facet normal 0 0 1
    outer loop
      vertex 1.30902 0.0489426 4
      vertex 0.190983 1.58778 4
      vertex 0.190983 0.412214 4
    endloop
  endfacet
  facet normal 0.809018 -0.587783 0
    outer loop
      vertex 1.30902 0.0489426 4
      vertex 2 1 2
      vertex 2 1 4
    endloop
  endfacet
  facet normal 0.809018 -0.587783 0
    outer loop
      vertex 2 1 2
      vertex 1.30902 0.0489426 4
      vertex 1.30902 0.0489426 2
    endloop
  endfacet
  facet normal -0.309016 -0.951057 0
    outer loop
      vertex 0.190983 0.412214 2
      vertex 1.30902 0.0489426 4
      vertex 0.190983 0.412214 4
    endloop
  endfacet
  facet normal -0.309016 -0.951057 -0
    outer loop
      vertex 1.30902 0.0489426 4
      vertex 0.190983 0.412214 2
      vertex 1.30902 0.0489426 2
    endloop
  endfacet
  facet normal 0.809011 0.587793 0
    outer loop
      vertex 29 1 4
      vertex 28.309 1.95106 2
      vertex 28.309 1.95106 4
    endloop
  endfacet
  facet normal 0.809011 0.587793 0
    outer loop
      vertex 28.309 1.95106 2
      vertex 29 1 4
      vertex 29 1 2
    endloop
  endfacet
  facet normal -1 0 0
    outer loop
      vertex 27.191 0.412214 2
      vertex 27.191 1.58778 4
      vertex 27.191 1.58778 2
    endloop
  endfacet
  facet normal -1 -0 0
    outer loop
      vertex 27.191 1.58778 4
      vertex 27.191 0.412214 2
      vertex 27.191 0.412214 4
    endloop
  endfacet
  facet normal -0.309032 0.951052 0
    outer loop
      vertex 28.309 1.95106 2
      vertex 27.191 1.58778 4
      vertex 28.309 1.95106 4
    endloop
  endfacet
  facet normal -0.309032 0.951052 0
    outer loop
      vertex 27.191 1.58778 4
      vertex 28.309 1.95106 2
      vertex 27.191 1.58778 2
    endloop
  endfacet
  facet normal 0 0 1
    outer loop
      vertex 28.309 1.95106 4
      vertex 28.309 0.0489426 4
      vertex 29 1 4
    endloop
  endfacet
  facet normal -0 0 1
    outer loop
      vertex 27.191 1.58778 4
      vertex 28.309 0.0489426 4
      vertex 28.309 1.95106 4
    endloop
  endfacet
  facet normal 0 0 1
    outer loop
      vertex 28.309 0.0489426 4
      vertex 27.191 1.58778 4
      vertex 27.191 0.412214 4
    endloop
  endfacet
  facet normal 0.80901 -0.587794 0
    outer loop
      vertex 28.309 0.0489426 4
      vertex 29 1 2
      vertex 29 1 4
    endloop
  endfacet
  facet normal 0.80901 -0.587794 0
    outer loop
      vertex 29 1 2
      vertex 28.309 0.0489426 4
      vertex 28.309 0.0489426 2
    endloop
  endfacet
  facet normal -0.309026 -0.951054 0
    outer loop
      vertex 27.191 0.412214 2
      vertex 28.309 0.0489426 4
      vertex 27.191 0.412214 4
    endloop
  endfacet
  facet normal -0.309026 -0.951054 -0
    outer loop
      vertex 28.309 0.0489426 4
      vertex 27.191 0.412214 2
      vertex 28.309 0.0489426 2
    endloop
  endfacet
  facet normal -1 0 0
    outer loop
      vertex 27.191 17.4122 2
      vertex 27.191 18.5878 4
      vertex 27.191 18.5878 2
    endloop
  endfacet
  facet normal -1 -0 0
    outer loop
      vertex 27.191 18.5878 4
      vertex 27.191 17.4122 2
      vertex 27.191 17.4122 4
    endloop
  endfacet
  facet normal -0.309059 0.951043 0
    outer loop
      vertex 28 18.8507 2
      vertex 27.191 18.5878 4
      vertex 28 18.8507 4
    endloop
  endfacet
  facet normal -0.309059 0.951043 0
    outer loop
      vertex 27.191 18.5878 4
      vertex 28 18.8507 2
      vertex 27.191 18.5878 2
    endloop
  endfacet
  facet normal -0.309059 -0.951043 0
    outer loop
      vertex 27.191 17.4122 2
      vertex 28 17.1493 4
      vertex 27.191 17.4122 4
    endloop
  endfacet
  facet normal -0.309059 -0.951043 -0
    outer loop
      vertex 28 17.1493 4
      vertex 27.191 17.4122 2
      vertex 28 17.1493 2
    endloop
  endfacet
  facet normal -0 0 1
    outer loop
      vertex 27.191 18.5878 4
      vertex 28 17.1493 4
      vertex 28 18.8507 4
    endloop
  endfacet
  facet normal 0 0 1
    outer loop
      vertex 28 17.1493 4
      vertex 27.191 18.5878 4
      vertex 27.191 17.4122 4
    endloop
  endfacet
  facet normal -0 0 1
    outer loop
      vertex 0 20 12
      vertex 2 17 12
      vertex 2 20 12
    endloop
  endfacet
  facet normal 0 0 1
    outer loop
      vertex 2 17 12
      vertex 0 20 12
      vertex 0 17 12
    endloop
  endfacet
  facet normal 1 -0 0
    outer loop
      vertex 2 17 12
      vertex 2 20 2
      vertex 2 20 12
    endloop
  endfacet
  facet normal 1 0 0
    outer loop
      vertex 2 20 2
      vertex 2 17 12
      vertex 2 17 2
    endloop
  endfacet
  facet normal 0 -1 0
    outer loop
      vertex 0 17 2
      vertex 2 17 12
      vertex 0 17 12
    endloop
  endfacet
  facet normal 0 -1 -0
    outer loop
      vertex 2 17 12
      vertex 0 17 2
      vertex 2 17 2
    endloop
  endfacet
  facet normal -1 0 0
    outer loop
      vertex 28 17.1493 2
      vertex 28 17 2
      vertex 28 17.1493 4
    endloop
  endfacet
  facet normal -1 0 0
    outer loop
      vertex 28 18.8507 4
      vertex 28 20 2
      vertex 28 18.8507 2
    endloop
  endfacet
  facet normal -1 0 0
    outer loop
      vertex 28 20 2
      vertex 28 18.8507 4
      vertex 28 20 12
    endloop
  endfacet
  facet normal -1 0 0
    outer loop
      vertex 28 17 12
      vertex 28 18.8507 4
      vertex 28 17.1493 4
    endloop
  endfacet
  facet normal -1 0 0
    outer loop
      vertex 28 18.8507 4
      vertex 28 17 12
      vertex 28 20 12
    endloop
  endfacet
  facet normal -1 0 0
    outer loop
      vertex 28 17 12
      vertex 28 17.1493 4
      vertex 28 17 2
    endloop
  endfacet
  facet normal -0 0 1
    outer loop
      vertex 28 20 12
      vertex 30 17 12
      vertex 30 20 12
    endloop
  endfacet
  facet normal 0 0 1
    outer loop
      vertex 30 17 12
      vertex 28 20 12
      vertex 28 17 12
    endloop
  endfacet
  facet normal 0 -1 0
    outer loop
      vertex 28 17 2
      vertex 30 17 12
      vertex 28 17 12
    endloop
  endfacet
  facet normal 0 -1 -0
    outer loop
      vertex 30 17 12
      vertex 28 17 2
      vertex 30 17 2
    endloop
  endfacet
endsolid OpenSCAD_Model
