solid OpenSCAD_Model
  facet normal -1 0 0
    outer loop
      vertex 0 0 0
      vertex 0 20 6
      vertex 0 20 0
    endloop
  endfacet
  facet normal -1 -0 0
    outer loop
      vertex 0 20 6
      vertex 0 0 0
      vertex 0 0 6
    endloop
  endfacet
  facet normal 0 0 -1
    outer loop
      vertex 1 2 6
      vertex 2 18 6
      vertex 2 2 6
    endloop
  endfacet
  facet normal -0 0 -1
    outer loop
      vertex 2 18 6
      vertex 1 2 6
      vertex 1 18 6
    endloop
  endfacet
  facet normal 0 0 -1
    outer loop
      vertex 2 2 6
      vertex 28 2 6
      vertex 28 1 6
    endloop
  endfacet
  facet normal 0 0 -1
    outer loop
      vertex 28 2 6
      vertex 2 2 6
      vertex 28 18 6
    endloop
  endfacet
  facet normal 0 0 -1
    outer loop
      vertex 2 2 6
      vertex 28 1 6
      vertex 2 1 6
    endloop
  endfacet
  facet normal 0 0 -1
    outer loop
      vertex 2 18 6
      vertex 28 18 6
      vertex 2 2 6
    endloop
  endfacet
  facet normal 0 0 -1
    outer loop
      vertex 28 18 6
      vertex 2 18 6
      vertex 28 19 6
    endloop
  endfacet
  facet normal -0 0 -1
    outer loop
      vertex 28 19 6
      vertex 2 18 6
      vertex 2 19 6
    endloop
  endfacet
  facet normal 0 0 -1
    outer loop
      vertex 28 2 6
      vertex 29 18 6
      vertex 29 2 6
    endloop
  endfacet
  facet normal -0 0 -1
    outer loop
      vertex 29 18 6
      vertex 28 2 6
      vertex 28 18 6
    endloop
  endfacet
  facet normal 0 0 -1
    outer loop
      vertex -1 0 6
      vertex 0 20 6
      vertex 0 0 6
    endloop
  endfacet
  facet normal -0 0 -1
    outer loop
      vertex 0 20 6
      vertex -1 0 6
      vertex -1 20 6
    endloop
  endfacet
  facet normal 0 0 -1
    outer loop
      vertex 30 0 6
      vertex 31 20 6
      vertex 31 0 6
    endloop
  endfacet
  facet normal -0 0 -1
    outer loop
      vertex 31 20 6
      vertex 30 0 6
      vertex 30 20 6
    endloop
  endfacet
  facet normal -0 0 1
    outer loop
      vertex 3 0.5 6
      vertex 27 0 6
      vertex 27 0.5 6
    endloop
  endfacet
  facet normal 0 0 1
    outer loop
      vertex 27 0 6
      vertex 3 0.5 6
      vertex 3 0 6
    endloop
  endfacet
  facet normal -0 0 1
    outer loop
      vertex 3 20 6
      vertex 27 19.5 6
      vertex 27 20 6
    endloop
  endfacet
  facet normal 0 0 1
    outer loop
      vertex 27 19.5 6
      vertex 3 20 6
      vertex 3 19.5 6
    endloop
  endfacet
  facet normal 1 -0 0
    outer loop
      vertex 30 0 6
      vertex 30 20 0
      vertex 30 20 6
    endloop
  endfacet
  facet normal 1 0 0
    outer loop
      vertex 30 20 0
      vertex 30 0 6
      vertex 30 0 0
    endloop
  endfacet
  facet normal 0 1 0
    outer loop
      vertex 0 20 6
      vertex 3 20 16
      vertex 3 20 6
    endloop
  endfacet
  facet normal 0 1 0
    outer loop
      vertex 3 20 16
      vertex 0 20 6
      vertex -1 20 16
    endloop
  endfacet
  facet normal 0 1 0
    outer loop
      vertex -1 20 16
      vertex 0 20 6
      vertex -1 20 6
    endloop
  endfacet
  facet normal 0 1 0
    outer loop
      vertex 30 20 6
      vertex 31 20 14
      vertex 31 20 6
    endloop
  endfacet
  facet normal 0 1 0
    outer loop
      vertex 31 20 14
      vertex 30 20 6
      vertex 27 20 14
    endloop
  endfacet
  facet normal 0 1 0
    outer loop
      vertex 30 20 6
      vertex 27 20 6
      vertex 27 20 14
    endloop
  endfacet
  facet normal 0 1 -0
    outer loop
      vertex 30 20 0
      vertex 27 20 6
      vertex 30 20 6
    endloop
  endfacet
  facet normal 0 1 0
    outer loop
      vertex 27 20 6
      vertex 30 20 0
      vertex 3 20 6
    endloop
  endfacet
  facet normal 0 1 0
    outer loop
      vertex 0 20 0
      vertex 3 20 6
      vertex 30 20 0
    endloop
  endfacet
  facet normal 0 1 0
    outer loop
      vertex 3 20 6
      vertex 0 20 0
      vertex 0 20 6
    endloop
  endfacet
  facet normal 0 0 -1
    outer loop
      vertex 0 0 0
      vertex 30 20 0
      vertex 30 0 0
    endloop
  endfacet
  facet normal -0 0 -1
    outer loop
      vertex 30 20 0
      vertex 0 0 0
      vertex 0 20 0
    endloop
  endfacet
  facet normal 0 -1 0
    outer loop
      vertex 30 0 6
      vertex 27 0 14
      vertex 27 0 6
    endloop
  endfacet
  facet normal 0 -1 0
    outer loop
      vertex 27 0 14
      vertex 30 0 6
      vertex 31 0 14
    endloop
  endfacet
  facet normal 0 -1 -0
    outer loop
      vertex 31 0 14
      vertex 30 0 6
      vertex 31 0 6
    endloop
  endfacet
  facet normal 0 -1 0
    outer loop
      vertex 0 0 6
      vertex -1 0 16
      vertex -1 0 6
    endloop
  endfacet
  facet normal 0 -1 0
    outer loop
      vertex -1 0 16
      vertex 0 0 6
      vertex 3 0 16
    endloop
  endfacet
  facet normal 0 -1 0
    outer loop
      vertex 0 0 6
      vertex 3 0 6
      vertex 3 0 16
    endloop
  endfacet
  facet normal 0 -1 0
    outer loop
      vertex 0 0 0
      vertex 3 0 6
      vertex 0 0 6
    endloop
  endfacet
  facet normal 0 -1 -0
    outer loop
      vertex 3 0 6
      vertex 0 0 0
      vertex 27 0 6
    endloop
  endfacet
  facet normal 0 -1 0
    outer loop
      vertex 30 0 0
      vertex 27 0 6
      vertex 0 0 0
    endloop
  endfacet
  facet normal 0 -1 0
    outer loop
      vertex 27 0 6
      vertex 30 0 0
      vertex 30 0 6
    endloop
  endfacet
  facet normal 1 -0 0
    outer loop
      vertex 1 2 6
      vertex 1 18 5
      vertex 1 18 6
    endloop
  endfacet
  facet normal 1 0 0
    outer loop
      vertex 1 18 5
      vertex 1 2 6
      vertex 1 2 5
    endloop
  endfacet
  facet normal -1 0 0
    outer loop
      vertex 29 2 5
      vertex 29 18 6
      vertex 29 18 5
    endloop
  endfacet
  facet normal -1 -0 0
    outer loop
      vertex 29 18 6
      vertex 29 2 5
      vertex 29 2 6
    endloop
  endfacet
  facet normal 0 -1 0
    outer loop
      vertex 2 19 5
      vertex 28 19 6
      vertex 2 19 6
    endloop
  endfacet
  facet normal 0 -1 -0
    outer loop
      vertex 28 19 6
      vertex 2 19 5
      vertex 28 19 5
    endloop
  endfacet
  facet normal -0 0 1
    outer loop
      vertex 1 18 5
      vertex 2 2 5
      vertex 2 18 5
    endloop
  endfacet
  facet normal 0 0 1
    outer loop
      vertex 2 2 5
      vertex 1 18 5
      vertex 1 2 5
    endloop
  endfacet
  facet normal 0 0 1
    outer loop
      vertex 2 18 5
      vertex 28 18 5
      vertex 28 19 5
    endloop
  endfacet
  facet normal 0 0 1
    outer loop
      vertex 28 18 5
      vertex 2 18 5
      vertex 28 2 5
    endloop
  endfacet
  facet normal 0 0 1
    outer loop
      vertex 2 18 5
      vertex 28 19 5
      vertex 2 19 5
    endloop
  endfacet
  facet normal 0 0 1
    outer loop
      vertex 2 2 5
      vertex 28 2 5
      vertex 2 18 5
    endloop
  endfacet
  facet normal 0 0 1
    outer loop
      vertex 28 2 5
      vertex 2 2 5
      vertex 28 1 5
    endloop
  endfacet
  facet normal 0 0 1
    outer loop
      vertex 28 1 5
      vertex 2 2 5
      vertex 2 1 5
    endloop
  endfacet
  facet normal -0 0 1
    outer loop
      vertex 28 18 5
      vertex 29 2 5
      vertex 29 18 5
    endloop
  endfacet
  facet normal 0 0 1
    outer loop
      vertex 29 2 5
      vertex 28 18 5
      vertex 28 2 5
    endloop
  endfacet
  facet normal 0 1 -0
    outer loop
      vertex 28 1 5
      vertex 2 1 6
      vertex 28 1 6
    endloop
  endfacet
  facet normal 0 1 0
    outer loop
      vertex 2 1 6
      vertex 28 1 5
      vertex 2 1 5
    endloop
  endfacet
  facet normal 1 -0 0
    outer loop
      vertex 2 1 6
      vertex 2 2 5
      vertex 2 2 6
    endloop
  endfacet
  facet normal 1 0 0
    outer loop
      vertex 2 2 5
      vertex 2 1 6
      vertex 2 1 5
    endloop
  endfacet
  facet normal 0 1 -0
    outer loop
      vertex 2 2 5
      vertex 1 2 6
      vertex 2 2 6
    endloop
  endfacet
  facet normal 0 1 0
    outer loop
      vertex 1 2 6
      vertex 2 2 5
      vertex 1 2 5
    endloop
  endfacet
  facet normal -1 0 0
    outer loop
      vertex 28 1 5
      vertex 28 2 6
      vertex 28 2 5
    endloop
  endfacet
  facet normal -1 -0 0
    outer loop
      vertex 28 2 6
      vertex 28 1 5
      vertex 28 1 6
    endloop
  endfacet
  facet normal 0 1 -0
    outer loop
      vertex 29 2 5
      vertex 28 2 6
      vertex 29 2 6
    endloop
  endfacet
  facet normal 0 1 0
    outer loop
      vertex 28 2 6
      vertex 29 2 5
      vertex 28 2 5
    endloop
  endfacet
  facet normal 1 -0 0
    outer loop
      vertex 2 18 6
      vertex 2 19 5
      vertex 2 19 6
    endloop
  endfacet
  facet normal 1 0 0
    outer loop
      vertex 2 19 5
      vertex 2 18 6
      vertex 2 18 5
    endloop
  endfacet
  facet normal 0 -1 0
    outer loop
      vertex 1 18 5
      vertex 2 18 6
      vertex 1 18 6
    endloop
  endfacet
  facet normal 0 -1 -0
    outer loop
      vertex 2 18 6
      vertex 1 18 5
      vertex 2 18 5
    endloop
  endfacet
  facet normal -1 0 0
    outer loop
      vertex 28 18 5
      vertex 28 19 6
      vertex 28 19 5
    endloop
  endfacet
  facet normal -1 -0 0
    outer loop
      vertex 28 19 6
      vertex 28 18 5
      vertex 28 18 6
    endloop
  endfacet
  facet normal 0 -1 0
    outer loop
      vertex 28 18 5
      vertex 29 18 6
      vertex 28 18 6
    endloop
  endfacet
  facet normal 0 -1 -0
    outer loop
      vertex 29 18 6
      vertex 28 18 5
      vertex 29 18 5
    endloop
  endfacet
  facet normal -1 0 0
    outer loop
      vertex -1 0 6
      vertex -1 20 16
      vertex -1 20 6
    endloop
  endfacet
  facet normal -1 -0 0
    outer loop
      vertex -1 20 16
      vertex -1 0 6
      vertex -1 0 16
    endloop
  endfacet
  facet normal -0 0 1
    outer loop
      vertex -1 20 16
      vertex 3 0 16
      vertex 3 20 16
    endloop
  endfacet
  facet normal 0 0 1
    outer loop
      vertex 3 0 16
      vertex -1 20 16
      vertex -1 0 16
    endloop
  endfacet
  facet normal 1 0 0
    outer loop
      vertex 3 20 16
      vertex 3 19.5 10
      vertex 3 20 6
    endloop
  endfacet
  facet normal 1 0 0
    outer loop
      vertex 3 20 16
      vertex 3 0.5 10
      vertex 3 19.5 10
    endloop
  endfacet
  facet normal 1 -0 0
    outer loop
      vertex 3 0 16
      vertex 3 0.5 10
      vertex 3 20 16
    endloop
  endfacet
  facet normal 1 0 0
    outer loop
      vertex 3 0 6
      vertex 3 0.5 10
      vertex 3 0 16
    endloop
  endfacet
  facet normal 1 0 0
    outer loop
      vertex 3 0.5 10
      vertex 3 0 6
      vertex 3 0.5 6
    endloop
  endfacet
  facet normal 1 0 0
    outer loop
      vertex 3 20 6
      vertex 3 19.5 10
      vertex 3 19.5 6
    endloop
  endfacet
  facet normal -1 0 0
    outer loop
      vertex 27 0.5 6
      vertex 27 0 6
      vertex 27 0.5 10
    endloop
  endfacet
  facet normal -1 0 0
    outer loop
      vertex 27 19.5 10
      vertex 27 20 6
      vertex 27 19.5 6
    endloop
  endfacet
  facet normal -1 0 0
    outer loop
      vertex 27 20 6
      vertex 27 19.5 10
      vertex 27 20 14
    endloop
  endfacet
  facet normal -1 0 0
    outer loop
      vertex 27 0.5 10
      vertex 27 20 14
      vertex 27 19.5 10
    endloop
  endfacet
  facet normal -1 0 0
    outer loop
      vertex 27 0.5 10
      vertex 27 0 14
      vertex 27 20 14
    endloop
  endfacet
  facet normal -1 0 0
    outer loop
      vertex 27 0 14
      vertex 27 0.5 10
      vertex 27 0 6
    endloop
  endfacet
  facet normal -0 0 1
    outer loop
      vertex 27 20 14
      vertex 31 0 14
      vertex 31 20 14
    endloop
  endfacet
  facet normal 0 0 1
    outer loop
      vertex 31 0 14
      vertex 27 20 14
      vertex 27 0 14
    endloop
  endfacet
  facet normal 1 -0 0
    outer loop
      vertex 31 0 14
      vertex 31 20 6
      vertex 31 20 14
    endloop
  endfacet
  facet normal 1 0 0
    outer loop
      vertex 31 20 6
      vertex 31 0 14
      vertex 31 0 6
    endloop
  endfacet
  facet normal -0 0 1
    outer loop
      vertex 3 19.5 10
      vertex 27 0.5 10
      vertex 27 19.5 10
    endloop
  endfacet
  facet normal 0 0 1
    outer loop
      vertex 27 0.5 10
      vertex 3 19.5 10
      vertex 3 0.5 10
    endloop
  endfacet
  facet normal 0 -1 0
    outer loop
      vertex 3 0.5 6
      vertex 27 0.5 10
      vertex 3 0.5 10
    endloop
  endfacet
  facet normal 0 -1 -0
    outer loop
      vertex 27 0.5 10
      vertex 3 0.5 6
      vertex 27 0.5 6
    endloop
  endfacet
  facet normal 0 1 -0
    outer loop
      vertex 27 19.5 6
      vertex 3 19.5 10
      vertex 27 19.5 10
    endloop
  endfacet
  facet normal 0 1 0
    outer loop
      vertex 3 19.5 10
      vertex 27 19.5 6
      vertex 3 19.5 6
    endloop
  endfacet
endsolid OpenSCAD_Model
