solid OpenSCAD_Model
  facet normal -1 0 0
    outer loop
      vertex 0 10 0
      vertex 0 9 11
      vertex 0 10 15
    endloop
  endfacet
  facet normal -1 0 0
    outer loop
      vertex 0 0 0
      vertex 0 9 11
      vertex 0 10 0
    endloop
  endfacet
  facet normal -1 -0 0
    outer loop
      vertex 0 9 11
      vertex 0 0 0
      vertex 0 0 11
    endloop
  endfacet
  facet normal -1 -0 0
    outer loop
      vertex 0 10 15
      vertex 0 9 11
      vertex 0 9 15
    endloop
  endfacet
  facet normal 0 0 1
    outer loop
      vertex 16 9 5
      vertex 14 9 5
      vertex 16 1 5
    endloop
  endfacet
  facet normal -0 0 1
    outer loop
      vertex 16 1 5
      vertex 29 0 5
      vertex 29 1 5
    endloop
  endfacet
  facet normal 0 0 1
    outer loop
      vertex 14 1 5
      vertex 16 1 5
      vertex 14 9 5
    endloop
  endfacet
  facet normal -0 0 1
    outer loop
      vertex 14 1 5
      vertex 29 0 5
      vertex 16 1 5
    endloop
  endfacet
  facet normal 0 0 1
    outer loop
      vertex 1 0 5
      vertex 14 1 5
      vertex 1 1 5
    endloop
  endfacet
  facet normal 0 0 1
    outer loop
      vertex 14 1 5
      vertex 1 0 5
      vertex 29 0 5
    endloop
  endfacet
  facet normal 1 0 0
    outer loop
      vertex 30 9 11
      vertex 30 10 15
      vertex 30 9 15
    endloop
  endfacet
  facet normal 1 0 0
    outer loop
      vertex 30 10 15
      vertex 30 9 11
      vertex 30 10 0
    endloop
  endfacet
  facet normal 1 0 0
    outer loop
      vertex 30 0 0
      vertex 30 9 11
      vertex 30 0 11
    endloop
  endfacet
  facet normal 1 0 0
    outer loop
      vertex 30 9 11
      vertex 30 0 0
      vertex 30 10 0
    endloop
  endfacet
  facet normal 0 0 -1
    outer loop
      vertex 0 0 0
      vertex 30 10 0
      vertex 30 0 0
    endloop
  endfacet
  facet normal -0 0 -1
    outer loop
      vertex 30 10 0
      vertex 0 0 0
      vertex 0 10 0
    endloop
  endfacet
  facet normal 0 -1 0
    outer loop
      vertex 0 0 11
      vertex 1 0 5
      vertex 1 0 11
    endloop
  endfacet
  facet normal 0 -1 -0
    outer loop
      vertex 1 0 5
      vertex 0 0 0
      vertex 29 0 5
    endloop
  endfacet
  facet normal 0 -1 0
    outer loop
      vertex 0 0 0
      vertex 1 0 5
      vertex 0 0 11
    endloop
  endfacet
  facet normal 0 -1 0
    outer loop
      vertex 29 0 5
      vertex 30 0 11
      vertex 29 0 11
    endloop
  endfacet
  facet normal 0 -1 0
    outer loop
      vertex 29 0 5
      vertex 30 0 0
      vertex 30 0 11
    endloop
  endfacet
  facet normal 0 -1 0
    outer loop
      vertex 30 0 0
      vertex 29 0 5
      vertex 0 0 0
    endloop
  endfacet
  facet normal 0 1 -0
    outer loop
      vertex 30 10 0
      vertex 0 10 15
      vertex 30 10 15
    endloop
  endfacet
  facet normal 0 1 0
    outer loop
      vertex 0 10 15
      vertex 30 10 0
      vertex 0 10 0
    endloop
  endfacet
  facet normal 1 0 0
    outer loop
      vertex 1 9 11
      vertex 1 1 8
      vertex 1 9 8
    endloop
  endfacet
  facet normal 1 -0 0
    outer loop
      vertex 1 0 11
      vertex 1 1 8
      vertex 1 9 11
    endloop
  endfacet
  facet normal 1 0 0
    outer loop
      vertex 1 0 5
      vertex 1 1 8
      vertex 1 0 11
    endloop
  endfacet
  facet normal 1 0 0
    outer loop
      vertex 1 1 8
      vertex 1 0 5
      vertex 1 1 5
    endloop
  endfacet
  facet normal -0 0 1
    outer loop
      vertex 1 9 8
      vertex 14 1 8
      vertex 14 9 8
    endloop
  endfacet
  facet normal 0 0 1
    outer loop
      vertex 14 1 8
      vertex 1 9 8
      vertex 1 1 8
    endloop
  endfacet
  facet normal 1 -0 0
    outer loop
      vertex 14 1 8
      vertex 14 9 5
      vertex 14 9 8
    endloop
  endfacet
  facet normal 1 0 0
    outer loop
      vertex 14 9 5
      vertex 14 1 8
      vertex 14 1 5
    endloop
  endfacet
  facet normal 0 -1 0
    outer loop
      vertex 14 9 5
      vertex 16 9 8
      vertex 14 9 8
    endloop
  endfacet
  facet normal 0 -1 -0
    outer loop
      vertex 16 9 8
      vertex 14 9 5
      vertex 16 9 5
    endloop
  endfacet
  facet normal 0 -1 0
    outer loop
      vertex 14 9 8
      vertex 1 9 11
      vertex 1 9 8
    endloop
  endfacet
  facet normal 0 -1 0
    outer loop
      vertex 1 9 11
      vertex 14 9 8
      vertex 29 9 11
    endloop
  endfacet
  facet normal 0 -1 0
    outer loop
      vertex 16 9 8
      vertex 29 9 11
      vertex 14 9 8
    endloop
  endfacet
  facet normal 0 -1 -0
    outer loop
      vertex 29 9 11
      vertex 16 9 8
      vertex 29 9 8
    endloop
  endfacet
  facet normal 0 -1 0
    outer loop
      vertex 1 9 11
      vertex 0 9 15
      vertex 0 9 11
    endloop
  endfacet
  facet normal 0 -1 0
    outer loop
      vertex 0 9 15
      vertex 1 9 11
      vertex 30 9 15
    endloop
  endfacet
  facet normal 0 -1 0
    outer loop
      vertex 29 9 11
      vertex 30 9 15
      vertex 1 9 11
    endloop
  endfacet
  facet normal 0 -1 -0
    outer loop
      vertex 30 9 15
      vertex 29 9 11
      vertex 30 9 11
    endloop
  endfacet
  facet normal 0 -1 0
    outer loop
      vertex 1 1 5
      vertex 14 1 8
      vertex 1 1 8
    endloop
  endfacet
  facet normal 0 -1 -0
    outer loop
      vertex 14 1 8
      vertex 1 1 5
      vertex 14 1 5
    endloop
  endfacet
  facet normal -1 0 0
    outer loop
      vertex 16 1 5
      vertex 16 9 8
      vertex 16 9 5
    endloop
  endfacet
  facet normal -1 -0 0
    outer loop
      vertex 16 9 8
      vertex 16 1 5
      vertex 16 1 8
    endloop
  endfacet
  facet normal -0 0 1
    outer loop
      vertex 16 9 8
      vertex 29 1 8
      vertex 29 9 8
    endloop
  endfacet
  facet normal 0 0 1
    outer loop
      vertex 29 1 8
      vertex 16 9 8
      vertex 16 1 8
    endloop
  endfacet
  facet normal -1 0 0
    outer loop
      vertex 29 1 5
      vertex 29 0 5
      vertex 29 1 8
    endloop
  endfacet
  facet normal -1 0 0
    outer loop
      vertex 29 1 8
      vertex 29 9 11
      vertex 29 9 8
    endloop
  endfacet
  facet normal -1 0 0
    outer loop
      vertex 29 1 8
      vertex 29 0 11
      vertex 29 9 11
    endloop
  endfacet
  facet normal -1 0 0
    outer loop
      vertex 29 0 11
      vertex 29 1 8
      vertex 29 0 5
    endloop
  endfacet
  facet normal 0 -1 0
    outer loop
      vertex 16 1 5
      vertex 29 1 8
      vertex 16 1 8
    endloop
  endfacet
  facet normal 0 -1 -0
    outer loop
      vertex 29 1 8
      vertex 16 1 5
      vertex 29 1 5
    endloop
  endfacet
  facet normal -0 0 1
    outer loop
      vertex 0 9 11
      vertex 1 0 11
      vertex 1 9 11
    endloop
  endfacet
  facet normal 0 0 1
    outer loop
      vertex 1 0 11
      vertex 0 9 11
      vertex 0 0 11
    endloop
  endfacet
  facet normal -0 0 1
    outer loop
      vertex 29 9 11
      vertex 30 0 11
      vertex 30 9 11
    endloop
  endfacet
  facet normal 0 0 1
    outer loop
      vertex 30 0 11
      vertex 29 9 11
      vertex 29 0 11
    endloop
  endfacet
  facet normal -0 0 1
    outer loop
      vertex 0 10 15
      vertex 30 9 15
      vertex 30 10 15
    endloop
  endfacet
  facet normal 0 0 1
    outer loop
      vertex 30 9 15
      vertex 0 10 15
      vertex 0 9 15
    endloop
  endfacet
endsolid OpenSCAD_Model
