solid OpenSCAD_Model
  facet normal -1 0 0
    outer loop
      vertex 0 0 0
      vertex 0 12 13
      vertex 0 12 0
    endloop
  endfacet
  facet normal -1 -0 0
    outer loop
      vertex 0 12 13
      vertex 0 0 0
      vertex 0 0 13
    endloop
  endfacet
  facet normal 1 -0 0
    outer loop
      vertex 30 0 13
      vertex 30 12 0
      vertex 30 12 13
    endloop
  endfacet
  facet normal 1 0 0
    outer loop
      vertex 30 12 0
      vertex 30 0 13
      vertex 30 0 0
    endloop
  endfacet
  facet normal 0 0 -1
    outer loop
      vertex 0 0 0
      vertex 30 12 0
      vertex 30 0 0
    endloop
  endfacet
  facet normal -0 0 -1
    outer loop
      vertex 30 12 0
      vertex 0 0 0
      vertex 0 12 0
    endloop
  endfacet
  facet normal 0 -1 0
    outer loop
      vertex 0 0 13
      vertex 2 0 6
      vertex 2 0 13
    endloop
  endfacet
  facet normal 0 -1 -0
    outer loop
      vertex 2 0 6
      vertex 0 0 0
      vertex 28 0 6
    endloop
  endfacet
  facet normal 0 -1 0
    outer loop
      vertex 0 0 0
      vertex 2 0 6
      vertex 0 0 13
    endloop
  endfacet
  facet normal 0 -1 0
    outer loop
      vertex 28 0 6
      vertex 30 0 13
      vertex 28 0 13
    endloop
  endfacet
  facet normal 0 -1 0
    outer loop
      vertex 28 0 6
      vertex 30 0 0
      vertex 30 0 13
    endloop
  endfacet
  facet normal 0 -1 0
    outer loop
      vertex 30 0 0
      vertex 28 0 6
      vertex 0 0 0
    endloop
  endfacet
  facet normal 0 1 -0
    outer loop
      vertex 30 12 0
      vertex 0 12 13
      vertex 30 12 13
    endloop
  endfacet
  facet normal 0 1 0
    outer loop
      vertex 0 12 13
      vertex 30 12 0
      vertex 0 12 0
    endloop
  endfacet
  facet normal -0 0 1
    outer loop
      vertex 2 10 6
      vertex 28 0 6
      vertex 28 10 6
    endloop
  endfacet
  facet normal 0 0 1
    outer loop
      vertex 28 0 6
      vertex 2 10 6
      vertex 2 0 6
    endloop
  endfacet
  facet normal 0 0 1
    outer loop
      vertex 30 12 13
      vertex 28 10 13
      vertex 30 0 13
    endloop
  endfacet
  facet normal 0 0 1
    outer loop
      vertex 30 12 13
      vertex 2 10 13
      vertex 28 10 13
    endloop
  endfacet
  facet normal -0 0 1
    outer loop
      vertex 0 12 13
      vertex 2 10 13
      vertex 30 12 13
    endloop
  endfacet
  facet normal 0 0 1
    outer loop
      vertex 0 0 13
      vertex 2 10 13
      vertex 0 12 13
    endloop
  endfacet
  facet normal 0 0 1
    outer loop
      vertex 2 10 13
      vertex 0 0 13
      vertex 2 0 13
    endloop
  endfacet
  facet normal 0 0 1
    outer loop
      vertex 30 0 13
      vertex 28 10 13
      vertex 28 0 13
    endloop
  endfacet
  facet normal 0 -1 0
    outer loop
      vertex 2 10 6
      vertex 28 10 13
      vertex 2 10 13
    endloop
  endfacet
  facet normal 0 -1 -0
    outer loop
      vertex 28 10 13
      vertex 2 10 6
      vertex 28 10 6
    endloop
  endfacet
  facet normal 1 -0 0
    outer loop
      vertex 2 0 13
      vertex 2 10 6
      vertex 2 10 13
    endloop
  endfacet
  facet normal 1 0 0
    outer loop
      vertex 2 10 6
      vertex 2 0 13
      vertex 2 0 6
    endloop
  endfacet
  facet normal -1 0 0
    outer loop
      vertex 28 0 6
      vertex 28 10 13
      vertex 28 10 6
    endloop
  endfacet
  facet normal -1 -0 0
    outer loop
      vertex 28 10 13
      vertex 28 0 6
      vertex 28 0 13
    endloop
  endfacet
endsolid OpenSCAD_Model
